<svg width="115" height="54" viewBox="0 0 115 54" fill="none" xmlns="http://www.w3.org/2000/svg">
<g id="Group 104 1" clip-path="url(#clip0_410_3161)">
<path id="Vector" d="M43.0874 5.14284C40.9025 5.2941 39.2489 6.21225 38.4014 8.16805C37.5707 10.0815 37.9024 11.9027 39.2612 13.5469C35.1157 10.2358 30.4174 8.73679 25.1081 9.41897C19.7987 10.1012 15.6025 12.6802 12.5179 16.982C7.85958 23.4998 8.34936 32.5119 13.7171 38.6198C16.949 42.3 21.0669 44.3677 26.0001 44.7474C30.9333 45.127 35.2907 43.6583 39.1844 40.5272C38.3891 42.4195 38.3492 44.1771 39.533 45.8092C40.7167 47.4413 42.3719 48.0373 44.3341 47.9269C43.3822 49.323 37.474 52.2318 33.7047 53.1227C29.775 54.0597 25.6814 54.1113 21.7287 53.2739C17.7798 52.4695 14.0685 50.7911 10.8751 48.3655C-1.96686 38.6183 -3.43468 20.6153 7.09342 9.10587C17.6799 -2.46707 33.852 -1.74556 43.0874 5.14284Z" fill="black"/>
<path id="Vector_2" d="M46.6226 51.66L47.0247 51.7601C46.9404 52.0855 46.7884 52.334 46.5687 52.5055C46.3504 52.6757 46.0829 52.7607 45.7665 52.7607C45.439 52.7607 45.1723 52.6954 44.9664 52.5647C44.7619 52.4326 44.6057 52.242 44.4979 51.9929C44.3915 51.7438 44.3383 51.4762 44.3383 51.1903C44.3383 50.8786 44.3984 50.6069 44.5187 50.3755C44.6403 50.1427 44.8122 49.9665 45.0347 49.8467C45.2587 49.7255 45.5047 49.6649 45.7728 49.6649C46.0768 49.6649 46.3324 49.7411 46.5397 49.8936C46.747 50.046 46.8914 50.2605 46.973 50.5369L46.577 50.6287C46.5065 50.4109 46.4043 50.2524 46.2702 50.153C46.1362 50.0536 45.9676 50.0038 45.7645 50.0038C45.5309 50.0038 45.3353 50.059 45.1778 50.1693C45.0217 50.2796 44.9117 50.428 44.8482 50.6145C44.7846 50.7996 44.7528 50.991 44.7528 51.1884C44.7528 51.4429 44.7901 51.6654 44.8647 51.8562C44.9407 52.0454 45.0582 52.187 45.2173 52.2809C45.3762 52.3748 45.5481 52.4217 45.7333 52.4217C45.9585 52.4217 46.1492 52.3578 46.3055 52.2298C46.4617 52.1018 46.5673 51.912 46.6226 51.66ZM47.4 51.2516C47.4 50.7547 47.5354 50.366 47.8062 50.0855C48.0771 49.8037 48.4268 49.6629 48.8552 49.6629C49.1357 49.6629 49.3886 49.7288 49.6138 49.8609C49.8391 49.9929 50.0104 50.1775 50.1279 50.4144C50.2467 50.6499 50.3061 50.9175 50.3061 51.2169C50.3061 51.5205 50.2439 51.7922 50.1196 52.0318C49.9952 52.2714 49.8191 52.453 49.5911 52.5769C49.3629 52.6995 49.117 52.7607 48.853 52.7607C48.567 52.7607 48.3114 52.6926 48.0861 52.5565C47.8609 52.4204 47.6901 52.2346 47.5741 51.9991C47.458 51.7636 47.4 51.5143 47.4 51.2516ZM47.8145 51.2578C47.8145 51.6185 47.9126 51.9031 48.1088 52.1114C48.3064 52.3183 48.554 52.4217 48.851 52.4217C49.1537 52.4217 49.4024 52.3169 49.5972 52.1073C49.7935 51.8976 49.8916 51.6001 49.8916 51.2148C49.8916 50.9711 49.8495 50.7588 49.7652 50.5777C49.6823 50.3953 49.5599 50.2543 49.3983 50.1549C49.238 50.0542 49.0576 50.0038 48.8572 50.0038C48.5725 50.0038 48.3273 50.1005 48.1213 50.2938C47.9168 50.4858 47.8145 50.8072 47.8145 51.2578ZM50.8223 52.7097V49.716H51.2349L52.8311 52.0664V49.716H53.2166V52.7097H52.804L51.2079 50.3572V52.7097H50.8223ZM53.7577 51.7479L54.1369 51.7152C54.1549 51.8649 54.1963 51.9882 54.2613 52.0849C54.3276 52.1802 54.4298 52.2578 54.568 52.3177C54.7064 52.3762 54.8618 52.4054 55.0345 52.4054C55.1879 52.4054 55.3233 52.383 55.4407 52.3381C55.5582 52.2932 55.6453 52.2319 55.7019 52.1543C55.7601 52.0754 55.7891 51.9896 55.7891 51.897C55.7891 51.8031 55.7615 51.7213 55.7061 51.6518C55.6508 51.581 55.5596 51.5219 55.4325 51.4742C55.3509 51.4429 55.1707 51.3945 54.8915 51.3292C54.6123 51.2625 54.4168 51.1999 54.3049 51.1413C54.1598 51.0664 54.0512 50.9739 53.9794 50.8636C53.9089 50.752 53.8737 50.6273 53.8737 50.4898C53.8737 50.3387 53.9172 50.1979 54.0042 50.0672C54.0913 49.9352 54.2184 49.835 54.3856 49.767C54.5528 49.6989 54.7388 49.6649 54.9433 49.6649C55.1685 49.6649 55.3669 49.701 55.5382 49.7732C55.711 49.844 55.8436 49.9488 55.9362 50.0876C56.0288 50.2265 56.0785 50.3837 56.0855 50.5593L55.6999 50.5879C55.6792 50.3986 55.6087 50.2557 55.4885 50.159C55.3697 50.0624 55.1934 50.0141 54.9599 50.0141C54.7167 50.0141 54.539 50.0583 54.4271 50.1468C54.3165 50.2339 54.2613 50.3395 54.2613 50.4634C54.2613 50.5709 54.3007 50.6594 54.3795 50.7288C54.4569 50.7983 54.6586 50.8698 54.9847 50.9433C55.3122 51.0155 55.5369 51.0787 55.6585 51.1331C55.8353 51.2135 55.966 51.3156 56.0503 51.4394C56.1346 51.562 56.1767 51.7036 56.1767 51.8643C56.1767 52.0236 56.1304 52.174 56.0379 52.3156C55.9453 52.4558 55.8118 52.5654 55.6377 52.6444C55.465 52.722 55.2702 52.7607 55.0532 52.7607C54.7782 52.7607 54.5473 52.7212 54.3608 52.6423C54.1756 52.5633 54.0299 52.4449 53.9235 52.287C53.8185 52.1277 53.7632 51.948 53.7577 51.7479ZM58.7202 49.716H59.1223V51.4457C59.1223 51.7465 59.0877 51.9855 59.0186 52.1625C58.9495 52.3394 58.8244 52.4838 58.6434 52.5954C58.4638 52.7057 58.2275 52.7607 57.9345 52.7607C57.6498 52.7607 57.4169 52.7125 57.2359 52.6158C57.0549 52.5191 56.9258 52.3795 56.8484 52.1971C56.7708 52.0133 56.7322 51.7628 56.7322 51.4457V49.716H57.1344V51.4435C57.1344 51.7036 57.1585 51.8957 57.2069 52.0195C57.2566 52.1421 57.3409 52.2366 57.4598 52.3033C57.58 52.37 57.7265 52.4034 57.8994 52.4034C58.1951 52.4034 58.4057 52.3373 58.5315 52.2053C58.6572 52.0732 58.7202 51.8194 58.7202 51.4435V49.716ZM59.7773 52.7097V49.716H60.1795V52.3564H61.6761V52.7097H59.7773ZM62.6151 52.7097V50.0692H61.6139V49.716H64.0226V50.0692H63.0172V52.7097H62.6151ZM64.2362 51.2516C64.2362 50.7547 64.3716 50.366 64.6424 50.0855C64.9133 49.8037 65.2629 49.6629 65.6914 49.6629C65.9719 49.6629 66.2248 49.7288 66.45 49.8609C66.6753 49.9929 66.8466 50.1775 66.9641 50.4144C67.0829 50.6499 67.1423 50.9175 67.1423 51.2169C67.1423 51.5205 67.0802 51.7922 66.9558 52.0318C66.8314 52.2714 66.6553 52.453 66.4273 52.5769C66.1992 52.6995 65.9532 52.7607 65.6893 52.7607C65.4032 52.7607 65.1476 52.6926 64.9223 52.5565C64.6971 52.4204 64.5264 52.2346 64.4103 51.9991C64.2942 51.7636 64.2362 51.5143 64.2362 51.2516ZM64.6507 51.2578C64.6507 51.6185 64.7488 51.9031 64.9451 52.1114C65.1427 52.3183 65.3902 52.4217 65.6873 52.4217C65.9899 52.4217 66.2386 52.3169 66.4335 52.1073C66.6297 51.8976 66.7278 51.6001 66.7278 51.2148C66.7278 50.9711 66.6857 50.7588 66.6014 50.5777C66.5185 50.3953 66.3961 50.2543 66.2345 50.1549C66.0742 50.0542 65.8938 50.0038 65.6934 50.0038C65.4087 50.0038 65.1634 50.1005 64.9575 50.2938C64.753 50.4858 64.6507 50.8072 64.6507 51.2578ZM67.669 52.7097V49.716H69.0163C69.2871 49.716 69.493 49.7432 69.6341 49.7977C69.7751 49.8508 69.8876 49.9453 69.9719 50.0814C70.0562 50.2176 70.0984 50.3681 70.0984 50.5328C70.0984 50.7452 70.0285 50.9243 69.889 51.0699C69.7494 51.2156 69.5338 51.3082 69.2423 51.3476C69.3487 51.398 69.4294 51.4476 69.4847 51.4966C69.6023 51.6028 69.7135 51.7356 69.8185 51.8949L70.3471 52.7097H69.8414L69.4391 52.0868C69.3217 51.9071 69.2249 51.7697 69.1489 51.6744C69.0729 51.5791 69.0046 51.5124 68.9438 51.4742C68.8844 51.4361 68.8236 51.4095 68.7614 51.3945C68.7158 51.385 68.6412 51.3803 68.5375 51.3803H68.0711V52.7097H67.669ZM68.0711 51.0372H68.9355C69.1193 51.0372 69.263 51.0188 69.3666 50.982C69.4703 50.9439 69.549 50.884 69.6029 50.8023C69.6568 50.7193 69.6839 50.6295 69.6839 50.5328C69.6839 50.3912 69.6313 50.2747 69.5262 50.1835C69.4225 50.0923 69.2581 50.0468 69.0329 50.0468H68.0711V51.0372ZM70.799 52.7097V49.716H71.2011V52.7097H70.799ZM71.5784 52.7097L72.7454 49.716H73.1787L74.4225 52.7097H73.9643L73.6098 51.8031H72.3391L72.0055 52.7097H71.5784ZM72.4552 51.4803H73.4855L73.1684 50.6512C73.0717 50.3994 72.9998 50.1925 72.9528 50.0305C72.9141 50.2224 72.8595 50.413 72.789 50.6022L72.4552 51.4803ZM75.6973 52.7097V49.716H77.8946V50.0692H76.0994V50.9861H77.7805V51.3374H76.0994V52.3564H77.9651V52.7097H75.6973ZM79.7229 52.7097V49.716H81.773V50.0692H80.1251V50.9964H81.5513V51.3496H80.1251V52.7097H79.7229ZM82.1751 51.2516C82.1751 50.7547 82.3107 50.366 82.5815 50.0855C82.8524 49.8037 83.202 49.6629 83.6303 49.6629C83.9108 49.6629 84.1637 49.7288 84.389 49.8609C84.6144 49.9929 84.7857 50.1775 84.9032 50.4144C85.022 50.6499 85.0814 50.9175 85.0814 51.2169C85.0814 51.5205 85.0192 51.7922 84.8949 52.0318C84.7705 52.2714 84.5942 52.453 84.3662 52.5769C84.1382 52.6995 83.8923 52.7607 83.6283 52.7607C83.3421 52.7607 83.0865 52.6926 82.8613 52.5565C82.636 52.4204 82.4654 52.2346 82.3494 51.9991C82.2331 51.7636 82.1751 51.5143 82.1751 51.2516ZM82.5898 51.2578C82.5898 51.6185 82.6879 51.9031 82.8841 52.1114C83.0817 52.3183 83.3291 52.4217 83.6262 52.4217C83.9288 52.4217 84.1775 52.3169 84.3724 52.1073C84.5688 51.8976 84.6669 51.6001 84.6669 51.2148C84.6669 50.9711 84.6246 50.7588 84.5403 50.5777C84.4574 50.3953 84.3351 50.2543 84.1734 50.1549C84.0131 50.0542 83.8329 50.0038 83.6325 50.0038C83.3477 50.0038 83.1025 50.1005 82.8966 50.2938C82.6921 50.4858 82.5898 50.8072 82.5898 51.2578ZM85.6079 52.7097V49.716H86.9553C87.2262 49.716 87.4321 49.7432 87.573 49.7977C87.714 49.8508 87.8267 49.9453 87.911 50.0814C87.9953 50.2176 88.0373 50.3681 88.0373 50.5328C88.0373 50.7452 87.9676 50.9243 87.8281 51.0699C87.6885 51.2156 87.4728 51.3082 87.1812 51.3476C87.2876 51.398 87.3685 51.4476 87.4238 51.4966C87.5413 51.6028 87.6526 51.7356 87.7576 51.8949L88.2861 52.7097H87.7803L87.3782 52.0868C87.2607 51.9071 87.164 51.7697 87.088 51.6744C87.012 51.5791 86.9435 51.5124 86.8827 51.4742C86.8233 51.4361 86.7625 51.4095 86.7003 51.3945C86.6547 51.385 86.5801 51.3803 86.4765 51.3803H86.01V52.7097H85.6079ZM86.01 51.0372H86.8744C87.0582 51.0372 87.2019 51.0188 87.3056 50.982C87.4092 50.9439 87.488 50.884 87.5419 50.8023C87.5959 50.7193 87.6228 50.6295 87.6228 50.5328C87.6228 50.3912 87.5703 50.2747 87.4652 50.1835C87.3616 50.0923 87.1972 50.0468 86.9719 50.0468H86.01V51.0372ZM88.6572 52.7097V49.716H89.2624L89.9817 51.8358C90.0481 52.0331 90.0964 52.1808 90.1268 52.2788C90.1614 52.1699 90.2153 52.01 90.2885 51.799L91.0161 49.716H91.5572V52.7097H91.1695V50.204L90.2865 52.7097H89.9237L89.0448 50.1611V52.7097H88.6572ZM91.8722 52.7097L93.0393 49.716H93.4726L94.7162 52.7097H94.2582L93.9037 51.8031H92.633L92.2992 52.7097H91.8722ZM92.7491 51.4803H93.7794L93.4621 50.6512C93.3654 50.3994 93.2936 50.1925 93.2466 50.0305C93.2079 50.2224 93.1534 50.413 93.0829 50.6022L92.7491 51.4803ZM97.2059 51.66L97.608 51.7601C97.5237 52.0855 97.3717 52.334 97.152 52.5055C96.9336 52.6757 96.6662 52.7607 96.3497 52.7607C96.0222 52.7607 95.7555 52.6954 95.5496 52.5647C95.3451 52.4326 95.189 52.242 95.0812 51.9929C94.9746 51.7438 94.9215 51.4762 94.9215 51.1903C94.9215 50.8786 94.9816 50.6069 95.1019 50.3755C95.2235 50.1427 95.3955 49.9665 95.618 49.8467C95.8418 49.7255 96.0879 49.6649 96.356 49.6649C96.66 49.6649 96.9157 49.7411 97.1229 49.8936C97.3302 50.046 97.4747 50.2605 97.5562 50.5369L97.1603 50.6287C97.0898 50.4109 96.9875 50.2524 96.8535 50.153C96.7194 50.0536 96.5509 50.0038 96.3477 50.0038C96.1142 50.0038 95.9186 50.059 95.7611 50.1693C95.6049 50.2796 95.495 50.428 95.4314 50.6145C95.3679 50.7996 95.3361 50.991 95.3361 51.1884C95.3361 51.4429 95.3734 51.6654 95.448 51.8562C95.524 52.0454 95.6415 52.187 95.8004 52.2809C95.9593 52.3748 96.1314 52.4217 96.3166 52.4217C96.5418 52.4217 96.7325 52.3578 96.8886 52.2298C97.0448 52.1018 97.1506 51.912 97.2059 51.66ZM95.9952 53.0242L96.1031 52.6627H96.3809L96.3124 52.8813C96.4299 52.8949 96.5183 52.9303 96.5777 52.9875C96.6372 53.046 96.6669 53.1107 96.6669 53.1815C96.6669 53.2836 96.6172 53.3735 96.5177 53.4511C96.4182 53.53 96.2682 53.5695 96.0678 53.5695C95.9545 53.5695 95.855 53.5613 95.7694 53.545L95.7921 53.306C95.8805 53.3114 95.9455 53.3142 95.9869 53.3142C96.117 53.3142 96.2082 53.2965 96.2607 53.2611C96.3008 53.2339 96.3207 53.2006 96.3207 53.1611C96.3207 53.1366 96.3124 53.1148 96.2958 53.0958C96.2806 53.0767 96.2516 53.0604 96.2088 53.0467C96.1659 53.0331 96.0949 53.0256 95.9952 53.0242ZM97.7718 52.7097L98.9388 49.716H99.3721L100.616 52.7097H100.158L99.8033 51.8031H98.5326L98.1988 52.7097H97.7718ZM98.6487 51.4803H99.6789L99.3617 50.6512C99.265 50.3994 99.1931 50.1925 99.1461 50.0305C99.1074 50.2224 99.0528 50.413 98.9823 50.6022L98.6487 51.4803ZM98.5014 49.5321C98.5 49.3905 98.5395 49.2775 98.6196 49.1931C98.6984 49.1087 98.7993 49.0665 98.9223 49.0665C99.0079 49.0665 99.1246 49.1032 99.2726 49.1767C99.3542 49.2176 99.4191 49.238 99.4675 49.238C99.5117 49.238 99.5455 49.2265 99.569 49.2034C99.5925 49.1789 99.609 49.1312 99.6187 49.0604H99.8882C99.884 49.2156 99.844 49.3319 99.768 49.4095C99.6933 49.4871 99.598 49.526 99.4819 49.526C99.3948 49.526 99.2802 49.4879 99.1378 49.4117C99.0452 49.3626 98.9775 49.3381 98.9347 49.3381C98.8877 49.3381 98.8496 49.3545 98.8206 49.3871C98.7902 49.4198 98.7758 49.4681 98.7772 49.5321H98.5014ZM100.815 51.2516C100.815 50.7547 100.95 50.366 101.221 50.0855C101.492 49.8037 101.842 49.6629 102.27 49.6629C102.551 49.6629 102.803 49.7288 103.029 49.8609C103.254 49.9929 103.425 50.1775 103.543 50.4144C103.662 50.6499 103.721 50.9175 103.721 51.2169C103.721 51.5205 103.659 51.7922 103.535 52.0318C103.41 52.2714 103.234 52.453 103.006 52.5769C102.778 52.6995 102.532 52.7607 102.268 52.7607C101.982 52.7607 101.726 52.6926 101.501 52.5565C101.276 52.4204 101.105 52.2346 100.989 51.9991C100.873 51.7636 100.815 51.5143 100.815 51.2516ZM101.229 51.2578C101.229 51.6185 101.327 51.9031 101.524 52.1114C101.721 52.3183 101.969 52.4217 102.266 52.4217C102.568 52.4217 102.817 52.3169 103.012 52.1073C103.208 51.8976 103.306 51.6001 103.306 51.2148C103.306 50.9711 103.264 50.7588 103.18 50.5777C103.097 50.3953 102.975 50.2543 102.813 50.1549C102.653 50.0542 102.473 50.0038 102.272 50.0038C101.987 50.0038 101.742 50.1005 101.536 50.2938C101.332 50.4858 101.229 50.8072 101.229 51.2578ZM105.406 52.7097V49.716H105.808V52.3564H107.305V52.7097H105.406ZM107.786 52.7097V49.716H108.833C109.069 49.716 109.25 49.7302 109.374 49.7588C109.548 49.7983 109.696 49.8698 109.819 49.9733C109.98 50.1067 110.099 50.2775 110.178 50.4858C110.258 50.6928 110.298 50.9297 110.298 51.1965C110.298 51.4239 110.271 51.6254 110.218 51.801C110.164 51.9766 110.095 52.1222 110.01 52.238C109.926 52.3523 109.833 52.4429 109.732 52.5096C109.633 52.575 109.512 52.6246 109.37 52.6586C109.229 52.6926 109.066 52.7097 108.883 52.7097H107.786ZM108.188 52.3564H108.837C109.037 52.3564 109.194 52.3381 109.308 52.3013C109.422 52.2646 109.513 52.2128 109.581 52.1461C109.677 52.0522 109.75 51.9262 109.803 51.7683C109.857 51.609 109.884 51.4163 109.884 51.1903C109.884 50.8772 109.831 50.6369 109.726 50.4694C109.623 50.3006 109.496 50.1876 109.347 50.1304C109.239 50.0896 109.066 50.0692 108.827 50.0692H108.188V52.3564ZM110.52 52.7097L111.687 49.716H112.121L113.364 52.7097H112.906L112.552 51.8031H111.281L110.947 52.7097H110.52ZM111.397 51.4803H112.427L112.11 50.6512C112.013 50.3994 111.942 50.1925 111.895 50.0305C111.856 50.2224 111.801 50.413 111.731 50.6022L111.397 51.4803Z" fill="#EC4F0A"/>
<path id="Vector_3" d="M41.7077 40.4297C41.7077 38.8107 42.149 37.5445 43.0314 36.6308C43.9139 35.7126 45.0528 35.2535 46.4486 35.2535C47.3625 35.2535 48.1864 35.4686 48.9203 35.899C49.6541 36.3292 50.2123 36.9301 50.5951 37.702C50.9823 38.4692 51.1759 39.3407 51.1759 40.3165C51.1759 41.3056 50.9733 42.1905 50.5681 42.9712C50.1629 43.7518 49.5888 44.344 48.846 44.7476C48.1032 45.1467 47.3017 45.3464 46.4419 45.3464C45.5099 45.3464 44.677 45.1245 43.9431 44.681C43.2093 44.2375 42.6532 43.632 42.275 42.8647C41.8969 42.0975 41.7077 41.2857 41.7077 40.4297ZM43.0584 40.4496C43.0584 41.6251 43.378 42.552 44.0174 43.2307C44.6612 43.9049 45.4671 44.2419 46.4351 44.2419C47.421 44.2419 48.2314 43.9003 48.8663 43.2174C49.5056 42.5343 49.8253 41.5652 49.8253 40.3099C49.8253 39.5161 49.6878 38.824 49.4133 38.2341C49.1431 37.6398 48.7447 37.1807 48.2179 36.8569C47.6957 36.5288 47.1081 36.3647 46.4554 36.3647C45.5279 36.3647 44.7287 36.6796 44.0579 37.3093C43.3916 37.9348 43.0584 38.9815 43.0584 40.4496ZM52.8575 45.18V35.4266H54.2014L59.4014 43.0843V35.4266H60.6575V45.18H59.3136L54.1136 37.5156V45.18H52.8575ZM62.4201 42.0463L63.656 41.94C63.7145 42.4278 63.8496 42.8293 64.0612 43.1442C64.2772 43.4546 64.6104 43.7075 65.0605 43.9026C65.5109 44.0934 66.0174 44.1886 66.5801 44.1886C67.0799 44.1886 67.521 44.1154 67.9037 43.9692C68.2864 43.8228 68.5701 43.6232 68.7547 43.3703C68.9437 43.113 69.0382 42.8337 69.0382 42.532C69.0382 42.226 68.9483 41.96 68.7682 41.7337C68.5881 41.503 68.291 41.3102 67.8767 41.1548C67.6111 41.0529 67.0235 40.8954 66.1141 40.6826C65.2047 40.4652 64.5677 40.2612 64.2029 40.0704C63.7303 39.8264 63.3768 39.5248 63.1427 39.1656C62.913 38.802 62.7983 38.3961 62.7983 37.9481C62.7983 37.4557 62.94 36.9967 63.2238 36.5709C63.5073 36.1407 63.9216 35.8147 64.4663 35.5928C65.0111 35.3711 65.6166 35.2602 66.283 35.2602C67.0168 35.2602 67.6628 35.3777 68.2211 35.6128C68.784 35.8435 69.2162 36.185 69.5177 36.6374C69.8194 37.0898 69.9814 37.6022 70.004 38.1742L68.7479 38.2674C68.6803 37.6509 68.4508 37.1851 68.0591 36.8702C67.6719 36.5554 67.0978 36.398 66.337 36.398C65.5446 36.398 64.9661 36.5421 64.6015 36.8304C64.2413 37.1142 64.0612 37.458 64.0612 37.8616C64.0612 38.212 64.1894 38.5003 64.4461 38.7265C64.6982 38.9528 65.3555 39.1856 66.418 39.425C67.4851 39.6602 68.2167 39.8664 68.6128 40.0438C69.1892 40.3055 69.6146 40.6381 69.8892 41.0418C70.1638 41.441 70.3011 41.9022 70.3011 42.4256C70.3011 42.9445 70.1503 43.4346 69.8486 43.896C69.5471 44.3528 69.1126 44.7099 68.5452 44.967C67.9825 45.2199 67.3478 45.3464 66.6409 45.3464C65.745 45.3464 64.9931 45.2177 64.3853 44.9604C63.782 44.7032 63.307 44.3174 62.9603 43.8028C62.6182 43.2838 62.4381 42.6984 62.4201 42.0463ZM78.5874 35.4266H79.8975V41.0618C79.8975 42.042 79.785 42.8203 79.5599 43.397C79.3348 43.9736 78.9273 44.4437 78.3376 44.8075C77.7523 45.1667 76.9825 45.3464 76.0279 45.3464C75.1005 45.3464 74.3419 45.1889 73.752 44.874C73.1623 44.5591 72.7413 44.1044 72.4892 43.5101C72.2371 42.9113 72.111 42.0952 72.111 41.0618V35.4266H73.4211V41.0551C73.4211 41.9022 73.4999 42.5277 73.6576 42.9312C73.8196 43.3304 74.0942 43.6387 74.4815 43.856C74.8731 44.0734 75.3503 44.182 75.9131 44.182C76.8765 44.182 77.5631 43.9669 77.9729 43.5367C78.3826 43.1064 78.5874 42.2793 78.5874 41.0551V35.4266ZM82.0316 45.18V35.4266H83.3417V44.0291H88.2176V45.18H82.0316ZM89.7303 45.18V35.4266H91.0404V44.0291H95.9163V45.18H89.7303ZM96.3958 45.18L100.198 35.4266H101.609L105.661 45.18H104.169L103.014 42.226H98.8742L97.787 45.18H96.3958ZM99.2524 41.1748H102.609L101.576 38.4737C101.26 37.6531 101.026 36.979 100.873 36.4511C100.747 37.0765 100.569 37.6975 100.34 38.314L99.2524 41.1748ZM106.654 45.18V35.4266H110.368C111.125 35.4266 111.73 35.5264 112.185 35.7259C112.644 35.9211 113.002 36.2249 113.259 36.6374C113.52 37.0455 113.65 37.4734 113.65 37.9215C113.65 38.3383 113.536 38.7309 113.306 39.099C113.076 39.4672 112.73 39.7644 112.266 39.9906C112.865 40.1636 113.324 40.4586 113.644 40.8754C113.968 41.2923 114.13 41.7847 114.13 42.3525C114.13 42.8093 114.031 43.2351 113.833 43.6299C113.639 44.0201 113.398 44.3218 113.11 44.5346C112.822 44.7476 112.46 44.9094 112.023 45.0203C111.591 45.1268 111.059 45.18 110.429 45.18H106.654ZM107.964 39.5248H110.105C110.686 39.5248 111.102 39.4872 111.354 39.4117C111.687 39.3141 111.937 39.1523 112.104 38.9261C112.275 38.6999 112.361 38.4159 112.361 38.0745C112.361 37.7507 112.282 37.4668 112.124 37.223C111.967 36.9746 111.741 36.8059 111.449 36.7173C111.156 36.6241 110.654 36.5775 109.943 36.5775H107.964V39.5248ZM107.964 44.0291H110.429C110.852 44.0291 111.149 44.0135 111.32 43.9825C111.622 43.9292 111.874 43.8404 112.077 43.7163C112.279 43.5921 112.446 43.4125 112.577 43.1775C112.707 42.9379 112.772 42.6629 112.772 42.3525C112.772 41.9887 112.678 41.6738 112.489 41.4077C112.3 41.1371 112.036 40.9486 111.699 40.8422C111.366 40.7313 110.884 40.6759 110.254 40.6759H107.964V44.0291Z" fill="black"/>
<path id="Vector_4" d="M44.9805 16.7007H41.0392V35.0093H44.9805V16.7007Z" fill="black"/>
<path id="Vector_5" d="M49.0186 19.8257H45.782V35.0092H49.0186V19.8257Z" fill="black"/>
<path id="Vector_6" d="M52.8186 22.6981H50.2991V35.0092H52.8186V22.6981Z" fill="black"/>
<path id="Vector_7" d="M113.581 47.9193H45.0128V49.2761H113.581V47.9193Z" fill="black"/>
<path id="Vector_8" d="M39.4593 13.3729V40.5862C36.8112 42.8481 33.5588 44.3125 30.0898 44.8047C26.6206 45.2969 23.0811 44.7962 19.8927 43.3624C16.7043 41.9285 14.0015 39.6217 12.1064 36.7172C10.2113 33.8126 9.20367 30.4325 9.20367 26.9795C9.20367 23.5266 10.2113 20.1465 12.1064 17.2418C14.0015 14.3373 16.7043 12.0306 19.8927 10.5967C23.0811 9.16284 26.6206 8.66217 30.0898 9.15439C33.5588 9.64659 36.8112 11.1109 39.4593 13.3729Z" fill="url(#paint0_linear_410_3161)"/>
</g>
<defs>
<linearGradient id="paint0_linear_410_3161" x1="12.6822" y1="18.6141" x2="43.2693" y2="36.4126" gradientUnits="userSpaceOnUse">
<stop offset="0.11" stop-color="#7AB5BD"/>
<stop offset="0.23" stop-color="#82B9C1"/>
<stop offset="0.42" stop-color="#98C5CC"/>
<stop offset="0.65" stop-color="#BBD9DD"/>
<stop offset="0.91" stop-color="#ECF4F5"/>
<stop offset="1" stop-color="white"/>
</linearGradient>
<clipPath id="clip0_410_3161">
<rect width="115" height="54" fill="white"/>
</clipPath>
</defs>
</svg>
