<svg width="187" height="44" viewBox="0 0 187 44" fill="none" xmlns="http://www.w3.org/2000/svg">
<g id="Vector">
<path d="M9.01568 3.90622C7.81835 4.5273 7.12303 5.51853 6.8492 6.83029C6.51038 8.45332 6.59798 10.0333 7.31697 11.6887C7.11009 12.9191 6.87493 14.0195 6.63977 15.1199C5.69931 14.5116 5.4712 13.7986 5.79449 12.7923C5.91286 12.4239 5.90463 11.9917 5.86242 11.5985C5.72307 10.3003 5.54182 9.00664 5.37371 7.68809C4.03276 9.4867 2.30259 11.2555 2.46529 13.7694C2.55187 15.1072 3.30508 16.4091 3.81629 17.7039C3.89373 17.9 4.2833 17.993 4.54439 18.0912C5.04568 18.2799 5.55837 18.4381 6.06755 18.739C5.88929 20 5.70982 21.131 5.53035 22.262C3.7562 22.479 2.33488 21.6997 2.46589 20.2685C2.59936 18.8104 1.4461 18.1149 1.21462 16.7579C-0.267172 20.1273 0.807657 24.311 3.50638 26.2162C3.68065 26.3392 3.97536 26.2766 4.1818 26.3711C4.6046 26.5647 5.00548 26.8064 5.36538 27.0925C5.14399 27.8753 4.97261 28.5937 4.80123 29.3121C3.23507 29.3306 3.23011 29.2092 2.6646 27.7174C2.38538 26.9808 1.64878 26.4183 1.05855 25.7037C0.673082 27.6457 2.04019 30.5623 4.20264 32.6936C4.10889 32.9512 3.98936 33.0962 3.86984 33.2411C3.75621 33.3159 3.53703 33.4426 3.54452 33.4579C3.69862 33.7729 3.87854 34.0751 4.02723 34.4808C3.97602 34.6084 3.95093 34.635 3.92583 34.6617C3.34169 33.6662 2.68649 32.705 2.18781 31.6682C1.06222 29.3279 0.414564 26.8396 0.0667294 24.2244C0 22.7726 0 21.3529 0 19.8467C0.152234 18.8976 0.278103 18.0294 0.461056 17.1734C1.51141 12.2593 3.8371 8.04473 7.41674 4.52668C7.96041 3.99236 8.52324 3.47763 9.14545 2.99639C9.14769 3.32803 9.08168 3.61713 9.01568 3.90622ZM0.862358 25.6053L0.821287 25.5821C0.821287 25.5821 0.830462 25.6416 0.862358 25.6053ZM3.46644 32.9802C3.42701 32.979 3.38758 32.9778 3.34815 32.9766C3.36719 32.999 3.38623 33.0215 3.46644 32.9802Z" fill="white"/>
<path d="M125.432 1.82417C126.732 0.8088 128.277 0.435342 129.877 0.0660157C131.261 0 132.616 -7.93902e-09 134.058 1.76735e-07C135.24 0.37018 136.343 0.722009 137.43 1.12031C137.819 1.26325 138.168 1.51824 138.491 1.78938C138.025 1.91489 137.605 2.02192 137.184 2.02362C133.778 2.03736 130.373 2.03992 126.967 2.02209C126.455 2.01941 125.944 1.89322 125.432 1.82417Z" fill="white"/>
<path d="M55.4387 2.20564C56.6905 0.911887 58.2858 0.379433 60.0402 0.0667445C60.8115 1.10075e-08 61.5531 0 62.38 0C63.3031 0.297655 64.17 0.533427 64.969 0.912861C65.59 1.20773 66.1262 1.68175 66.6538 2.16557C66.3399 2.30356 66.0725 2.39355 65.8049 2.39438C62.6444 2.40419 59.4838 2.40582 56.3234 2.39215C56.0282 2.39087 55.7336 2.27064 55.4387 2.20564Z" fill="white"/>
<path d="M40.5706 39.9248C43.2383 37.8521 43.5367 34.8489 42.5341 32.1312C42.4786 31.9806 42.3416 31.8112 42.1997 31.7491C40.3118 30.9226 40.3099 30.9269 40.3456 28.7535C40.4717 28.042 40.6025 27.4856 40.7334 26.9292C41.3464 27.4778 41.8292 28.0857 42.829 28.1642C43.8453 28.244 44.2789 29.5497 43.9085 30.5995C43.7899 30.9357 43.8034 31.3424 43.8441 31.7071C43.9882 32.9996 44.1702 34.2878 44.3371 35.5715C44.3066 35.5882 44.4655 35.5501 44.5473 35.4492C45.6546 34.0845 46.6702 32.6596 47.1281 30.9275C47.6508 28.9504 46.8476 27.2654 45.8761 25.6391C45.7788 25.4761 45.4933 25.3575 45.2851 25.3402C43.4208 25.1849 42.7646 24.4402 42.8745 22.6359C42.8899 22.3819 42.7377 22.0573 42.5574 21.865C42.2462 21.5331 41.852 21.2794 41.5271 20.9033C41.6549 20.3879 41.7483 19.962 41.8417 19.5362C42.4234 19.838 42.9935 20.1657 43.5906 20.4328C44.0093 20.62 44.4632 20.8384 44.9042 20.8448C46.3928 20.8664 47.439 22.0294 47.285 23.4949C47.2442 23.8828 47.4115 24.3249 47.5831 24.6957C47.8737 25.3238 48.2437 25.9151 48.6344 26.6192C49.1481 24.6753 49.6759 22.737 48.8954 20.9463C48.2804 19.5353 47.0984 18.3717 46.1557 17.1076C46.1007 17.0339 45.9299 17.0113 45.8181 17.0214C44.6926 17.1227 44.3172 16.4948 44.0128 15.5014C43.8646 15.0177 43.0891 14.7271 42.6265 14.2614C42.8222 13.7522 42.9889 13.3306 43.1557 12.909C43.5594 13.1791 43.9444 13.4851 44.3722 13.7089C44.7812 13.923 45.2567 14.0107 45.6629 14.2288C46.1136 14.4709 46.8524 14.7647 46.8849 15.0936C47.0111 16.3724 48.1262 16.8034 48.76 17.851C48.6797 14.7387 47.4761 11.9365 43.5455 9.0812C43.7135 8.85776 43.8545 8.72874 43.9954 8.59972C44.6113 9.08425 45.2273 9.56878 45.9331 10.1254C46.0916 10.2206 46.1601 10.2438 46.2287 10.2669C46.1961 10.1482 46.1636 10.0296 46.1311 9.91092C45.4083 8.83097 44.6855 7.75101 43.9799 6.58378C44.0262 6.47176 44.0554 6.44701 44.0846 6.42226C45.8787 8.47235 47.2281 10.7748 48.1862 13.3356C49.99 18.1566 50.2193 23.0383 48.8344 27.9783C47.6321 32.2668 45.303 35.9169 42.2039 39.0689C41.1575 40.1332 39.9669 41.0578 38.8156 42.014C38.4763 42.2958 38.0457 42.4672 37.6009 42.5857C38.1449 41.861 38.7186 41.1562 39.2184 40.4021C39.4184 40.1003 39.4384 39.6836 39.5739 39.3321C39.6527 39.1276 39.7569 38.8961 39.9207 38.7678C40.585 38.2469 40.7 37.6329 40.3589 36.8424C40.2561 36.6042 40.3343 36.0686 40.4937 35.9856C40.7511 35.8515 41.2276 35.8666 41.4531 36.0336C41.6217 36.1585 41.6871 36.7715 41.5464 36.9099C40.7673 37.6767 40.5795 38.6296 40.4112 39.734C40.1289 40.0131 39.938 40.2011 39.7063 40.4142C39.646 40.4988 39.6265 40.5584 39.5587 40.6302C39.5037 40.6862 39.4968 40.73 39.49 40.7739C39.5533 40.7537 39.6165 40.7335 39.7209 40.6995C39.8138 40.6574 39.8588 40.6209 39.9461 40.543C40.187 40.315 40.3788 40.1199 40.5706 39.9248Z" fill="white"/>
<path d="M129.203 21.1494C131.535 21.9629 133.802 21.8112 136.143 20.7074C137.515 20.776 138.747 20.8529 139.979 20.8551C140.632 20.8563 141.284 20.7277 141.937 20.6577C142.139 20.7848 142.341 20.912 142.546 21.0403C138.585 26.7079 131.103 28.2207 125.382 24.7731C124.039 23.9634 122.931 22.9847 122.033 21.6407C124.114 21.4877 126.16 21.4664 128.205 21.4107C128.54 21.4015 128.87 21.2403 129.203 21.1494Z" fill="white"/>
<path d="M87.8644 22.7147C87.8644 23.7567 87.8644 24.7987 87.8644 25.8986C82.9654 25.8986 78.0799 25.8986 73.1083 25.8986C73.1083 24.8684 73.1083 23.8627 73.2159 22.7859C78.1705 22.7148 83.0174 22.7147 87.8644 22.7147Z" fill="white"/>
<path d="M90.6857 3.13888C90.6857 2.28816 90.6857 1.43744 90.6857 0.555586C96.2018 0.555586 101.646 0.555586 107.19 0.555586C107.19 1.38837 107.19 2.17828 107.091 3.0531C101.557 3.13831 96.1214 3.1386 90.6857 3.13888Z" fill="white"/>
<path d="M73.153 3.13951C73.153 2.31318 73.153 1.48684 73.153 0.586176C78.0371 0.586176 82.9187 0.586176 87.8891 0.586176C87.8891 1.38679 87.8891 2.17806 87.7916 3.05448C82.8471 3.13958 78.0001 3.13955 73.153 3.13951Z" fill="white"/>
<path d="M68.3493 23.0802C66.9819 24.9517 65.0813 25.9606 62.8584 26.3607C59.3356 26.9947 56.3663 25.9635 54.0458 23.1124C54.2257 22.9629 54.3727 22.9046 54.5198 22.9044C58.8655 22.8993 63.2112 22.8968 67.5569 22.9074C67.8212 22.908 68.0852 23.02 68.3493 23.0802Z" fill="white"/>
<path d="M68.4005 23.0429C68.0852 23.02 67.8212 22.908 67.5569 22.9074C63.2112 22.8968 58.8655 22.8993 54.5198 22.9044C54.3727 22.9046 54.2257 22.9629 54.0268 23.0536C53.5385 22.4175 53.102 21.722 52.7263 20.9292C53.1147 20.7825 53.4418 20.6945 53.77 20.6902C55.268 20.6703 56.7663 20.6739 58.2644 20.6691C59.3601 21.2882 60.3914 22.0052 61.7987 21.679C62.9932 21.4022 63.8532 20.8275 64.4163 19.7216C64.8219 19.8151 65.1378 19.9309 65.4556 19.936C66.8279 19.9579 68.2008 19.9474 69.5734 19.9486C69.1995 20.9676 68.8256 21.9866 68.4005 23.0429Z" fill="white"/>
<path d="M90.6727 3.22377C96.1214 3.1386 101.557 3.13831 107.073 3.13689C107.154 3.79888 107.154 4.46199 107.154 5.21699C105.334 5.21699 103.569 5.21699 101.63 5.20006C99.715 5.19169 97.9739 5.20025 96.2328 5.20881C94.4024 5.20881 92.572 5.20881 90.6596 5.20881C90.6596 4.52302 90.6596 3.91584 90.6727 3.22377Z" fill="white"/>
<path d="M73.1357 3.22359C78.0001 3.13955 82.8471 3.13958 87.7784 3.13975C87.8627 3.8389 87.8627 4.53792 87.8627 5.40471C84.6888 5.40471 81.5301 5.40471 78.2419 5.47261C76.4592 5.54042 74.8061 5.54033 73.1529 5.54024C73.1414 4.79605 73.1299 4.05185 73.1357 3.22359Z" fill="white"/>
<path d="M140.769 3.53105C140.923 3.67224 141.087 3.80386 141.229 3.95618C142.117 4.91032 142.115 4.91185 140.975 5.68383C139.154 5.69544 137.464 5.71558 135.774 5.73572C133.762 4.90293 131.71 4.73217 129.627 5.42343C129.144 5.58391 128.701 5.8681 128.112 6.06556C127.655 5.93213 127.327 5.74483 126.995 5.73883C125.192 5.70621 123.387 5.7183 121.584 5.71499C122.107 4.99196 122.63 4.26892 123.257 3.58294C123.74 3.70604 124.119 3.8657 124.498 3.86696C129.525 3.88366 134.553 3.8859 139.58 3.86309C139.977 3.86129 140.373 3.64673 140.769 3.53105Z" fill="white"/>
<path d="M140.745 3.47322C140.373 3.64673 139.977 3.86129 139.58 3.86309C134.553 3.8859 129.525 3.88366 124.498 3.86696C124.119 3.8657 123.74 3.70604 123.316 3.56404C123.951 2.95542 124.631 2.40277 125.371 1.83714C125.944 1.89322 126.455 2.01941 126.967 2.02209C130.373 2.03992 133.778 2.03736 137.184 2.02362C137.605 2.02192 138.025 1.91489 138.525 1.84394C139.309 2.35928 140.015 2.88734 140.745 3.47322Z" fill="white"/>
<path d="M115.23 25.8141C113.51 25.8141 111.789 25.8141 109.969 25.8141C109.969 24.0773 109.969 22.2806 110.074 20.3991C111.83 20.3169 113.483 20.3197 115.142 20.4082C115.176 22.2674 115.203 24.0407 115.23 25.8141Z" fill="white"/>
<path d="M87.8776 22.6318C83.0174 22.7147 78.1705 22.7148 73.237 22.7145C73.1389 21.9087 73.1273 21.1032 73.2204 20.2136C74.9773 20.1299 76.6293 20.1304 78.2813 20.1309C78.2983 20.4658 78.3154 20.8007 78.3366 21.2182C81.4894 21.2182 84.6459 21.2182 87.8908 21.2182C87.8908 21.7136 87.8908 22.1312 87.8776 22.6318Z" fill="white"/>
<path d="M73.1528 14.0352C73.1408 13.4745 73.1289 12.9139 73.2212 12.2709C78.1099 12.1889 82.8942 12.1892 87.6785 12.1896C87.6877 12.7497 87.6968 13.3099 87.608 13.9528C82.7242 14.0354 77.9385 14.0353 73.1528 14.0352Z" fill="white"/>
<path d="M53.2731 6.27927C53.5314 5.49248 53.7896 4.70569 54.135 3.94455C54.5879 4.06263 54.9532 4.23361 55.3194 4.23543C59.227 4.25487 63.1346 4.25289 67.0422 4.23907C67.4274 4.2377 67.8122 4.11863 68.1971 4.05419C68.3782 4.3302 68.5592 4.60622 68.7833 4.94791C67.4547 5.7365 66.1778 6.49438 64.9131 7.24497C62.4625 4.58986 60.1782 4.30521 58.417 6.40958C56.6198 6.36825 54.9464 6.32376 53.2731 6.27927Z" fill="white"/>
<path d="M186.672 10.7152C186.523 11.3632 186.374 12.0113 186.109 12.6968C184.827 11.6228 183.67 10.5016 182.488 9.40795C182.236 9.17506 181.892 9.04236 181.565 8.79349C181.21 6.9081 180.226 5.70511 178.367 5.25362C178.278 5.00237 178.229 4.78112 178.096 4.63618C177.177 3.62983 176.232 2.64652 175.313 1.63963C175.014 1.31247 174.768 0.936927 174.498 0.583514C175.179 0.574838 175.86 0.566162 176.633 0.632594C177.987 2.08082 179.221 3.4811 180.519 4.82045C182.293 6.65232 184.11 8.44246 185.922 10.2369C186.128 10.441 186.42 10.5579 186.672 10.7152Z" fill="#ACABB7"/>
<path d="M101.53 21.2376C101.53 22.7698 101.53 24.302 101.53 25.8949C99.8172 25.8949 98.1162 25.8949 96.2907 25.8949C96.2907 24.3919 96.2907 22.8983 96.4028 21.3209C98.1868 21.2373 99.8586 21.2375 101.53 21.2376Z" fill="white"/>
<path d="M68.187 3.99043C67.8122 4.11863 67.4274 4.2377 67.0422 4.23907C63.1346 4.25289 59.227 4.25487 55.3194 4.23543C54.9532 4.23361 54.5879 4.06263 54.1862 3.90238C54.5405 3.30413 54.9308 2.77369 55.3799 2.22445C55.7336 2.27064 56.0282 2.39087 56.3234 2.39215C59.4838 2.40582 62.6444 2.40419 65.8049 2.39438C66.0725 2.39355 66.3399 2.30356 66.6819 2.22283C67.2299 2.76933 67.7034 3.348 68.187 3.99043Z" fill="white"/>
<path d="M73.1346 14.1167C77.9385 14.0353 82.7242 14.0354 87.5943 14.0358C87.6786 14.58 87.6786 15.124 87.6786 15.7396C84.5916 15.7396 81.5633 15.7396 78.3627 15.7227C76.5112 15.703 74.8319 15.7001 73.1525 15.6972C73.1405 15.1976 73.1285 14.6979 73.1346 14.1167Z" fill="white"/>
<path d="M186.708 10.6481C186.42 10.5579 186.128 10.441 185.922 10.2369C184.11 8.44246 182.293 6.65232 180.519 4.82045C179.221 3.4811 177.987 2.08082 176.717 0.646145C177.532 0.594894 178.355 0.605198 179.24 0.72842C179.353 0.950566 179.378 1.08404 179.457 1.16549C181.657 3.44468 183.858 5.72321 186.076 7.98438C186.247 8.15887 186.549 8.20519 186.789 8.31109C186.774 9.06772 186.759 9.82435 186.708 10.6481Z" fill="#ACABB7"/>
<path d="M87.6921 12.1069C82.8942 12.1892 78.1099 12.1889 73.2392 12.1885C73.1412 11.5055 73.1295 10.8225 73.2216 10.0558C74.9773 9.97273 76.6292 9.97321 78.2812 9.97368C78.3067 10.3032 78.3321 10.6326 78.3639 11.0431C81.4778 11.0431 84.556 11.0431 87.7058 11.0431C87.7058 11.4265 87.7058 11.7254 87.6921 12.1069Z" fill="white"/>
<path d="M156.04 24.1929C156.04 24.7723 156.04 25.3516 156.04 25.9849C154.357 25.9849 152.686 25.9849 150.916 25.9849C150.916 23.9054 150.916 21.8263 150.991 19.6693C152.436 20.9184 153.801 22.2512 155.181 23.5676C155.436 23.8099 155.752 23.9861 156.04 24.1929Z" fill="#ACABB7"/>
<path d="M54.9525 12.2385C54.486 11.5227 54.0196 10.8068 53.6128 10.0326C55.1022 9.97359 56.5324 9.99143 57.9616 9.96288C58.4974 9.95217 59.0311 9.83358 59.5657 9.76418C61.3606 10.4199 63.1554 11.0757 64.9503 11.8293C64.4479 12.0141 63.9463 12.1698 63.4427 12.177C60.6129 12.2173 57.7826 12.2218 54.9525 12.2385Z" fill="white"/>
<path d="M154.786 0.644966C155.593 0.631671 156.401 0.618375 157.337 0.655912C157.607 0.711643 157.749 0.716543 157.942 0.731092C158.086 0.708238 158.179 0.675735 158.272 0.643233C158.356 0.631907 158.441 0.620579 158.587 0.690974C159.757 2.0241 160.869 3.27035 161.966 4.53054C162.239 4.84397 162.46 5.20249 162.705 5.54029C161.41 5.55313 160.115 5.56597 158.729 5.49405C158.425 5.0811 158.255 4.71132 157.99 4.4324C157.148 3.5451 156.245 2.71431 155.418 1.81276C155.128 1.49639 154.992 1.03833 154.786 0.644966Z" fill="#ACABB7"/>
<path d="M54.9807 12.2982C57.7826 12.2218 60.6129 12.2173 63.4427 12.177C63.9463 12.1698 64.4479 12.0141 64.9973 11.8743C65.9054 12.3905 66.7665 12.9594 67.575 13.5996C67.1042 13.7307 66.6865 13.8398 66.2681 13.8424C63.7061 13.8585 61.1439 13.8389 58.5821 13.8659C58.2788 13.8691 57.9776 14.0837 57.6755 14.2003C56.7866 13.5862 55.8978 12.972 54.9807 12.2982Z" fill="white"/>
<path d="M169.891 16.436C169.878 15.3228 169.864 14.2095 169.938 13.0124C170.259 13.0533 170.539 13.1308 170.718 13.31C172.187 14.7787 173.637 16.2664 175.092 17.7484C175.061 18.1388 175.031 18.5293 174.946 19.041C174.858 19.6501 174.823 20.1379 174.769 20.8815C173.303 19.4734 172.042 18.2487 170.762 17.0433C170.507 16.8031 170.183 16.6366 169.891 16.436Z" fill="#ACABB7"/>
<path d="M186.788 8.24642C186.549 8.20519 186.247 8.15887 186.076 7.98438C183.858 5.72321 181.657 3.44468 179.457 1.16549C179.378 1.08404 179.353 0.950566 179.301 0.77575C182.793 0.829926 186.109 3.82908 186.547 7.25161C186.587 7.56677 186.705 7.87194 186.788 8.24642Z" fill="#ACABB7"/>
<path d="M150.943 7.20155C150.934 6.70239 150.925 6.20324 150.991 5.62981C152.396 6.84235 153.715 8.14024 155.064 9.40652C155.331 9.65734 155.712 9.7867 156.041 9.97207C156.041 10.3591 156.041 10.7462 156.041 11.2682C156.517 11.2682 156.949 11.2682 157.472 11.3444C158.611 12.5437 159.674 13.6548 160.702 14.7969C161.046 15.1793 161.303 15.641 161.6 16.0665C161.04 16.0789 160.481 16.0913 159.832 16.0202C159.218 15.3571 158.714 14.757 158.165 14.2017C156.056 12.07 153.937 9.9487 151.809 7.83557C151.558 7.58611 151.234 7.41108 150.943 7.20155Z" fill="#ACABB7"/>
<path d="M150.929 7.28453C151.234 7.41108 151.558 7.58611 151.809 7.83557C153.937 9.9487 156.056 12.07 158.165 14.2017C158.714 14.757 159.218 15.3571 159.75 16.0014C159.197 16.0786 158.638 16.091 157.99 16.0201C157.708 15.6689 157.546 15.3725 157.319 15.1378C155.753 13.5152 154.191 11.8883 152.588 10.3019C152.102 9.82071 151.495 9.46281 150.943 9.04843C150.934 8.48812 150.925 7.92781 150.929 7.28453Z" fill="#ACABB7"/>
<path d="M129.159 21.1055C128.87 21.2403 128.54 21.4015 128.205 21.4107C126.16 21.4664 124.114 21.4877 122.017 21.5805C121.506 20.9425 121.047 20.2443 120.651 19.4753C122.175 19.3384 123.637 19.2813 125.097 19.199C125.415 19.1811 125.728 19.0729 126.043 19.0063C127.067 19.6914 128.092 20.3766 129.159 21.1055Z" fill="white"/>
<path d="M110 3.32407C110 2.41692 110 1.50978 110 0.560492C111.777 0.560492 113.496 0.560492 115.303 0.560492C115.303 1.46267 115.303 2.31129 115.202 3.24317C113.401 3.32565 111.701 3.32486 110 3.32407Z" fill="white"/>
<path d="M57.7263 14.2469C57.9776 14.0837 58.2788 13.8691 58.5821 13.8659C61.1439 13.8389 63.7061 13.8585 66.2681 13.8424C66.6865 13.8398 67.1042 13.7307 67.6026 13.6574C68.0954 14.1607 68.5078 14.6774 68.8382 15.26C66.9044 15.3266 65.0527 15.3283 63.2011 15.3272C62.8298 15.327 62.431 15.2769 62.4668 15.8482C60.9036 15.3299 59.3403 14.8117 57.7263 14.2469Z" fill="white"/>
<path d="M124.549 11.635C124.506 12.5004 124.464 13.3658 124.325 14.3161C122.614 14.4041 121 14.4072 119.385 14.4103C119.39 13.5379 119.394 12.6655 119.501 11.714C121.251 11.635 122.9 11.635 124.549 11.635Z" fill="white"/>
<path d="M150.929 9.1326C151.495 9.46281 152.102 9.82071 152.588 10.3019C154.191 11.8883 155.753 13.5152 157.319 15.1378C157.546 15.3725 157.708 15.6689 157.908 16.0014C157.371 16.0801 156.828 16.0941 156.145 16.0731C154.587 14.6348 153.174 13.2262 151.745 11.8335C151.513 11.6074 151.212 11.4524 150.943 11.2645C150.934 10.5819 150.925 9.89934 150.929 9.1326Z" fill="#ACABB7"/>
<path d="M119.375 14.4924C121 14.4072 122.614 14.4041 124.317 14.3985C124.604 15.22 124.802 16.0441 124.942 16.9301C123.17 16.9944 121.457 16.9969 119.744 16.9994C119.617 16.1911 119.491 15.3828 119.375 14.4924Z" fill="white"/>
<path d="M62.5192 15.8846C62.431 15.2769 62.8298 15.327 63.2011 15.3272C65.0527 15.3283 66.9044 15.3266 68.8434 15.3244C69.1498 16.0179 69.3687 16.713 69.4933 17.4767C67.6938 17.5478 65.9886 17.5501 64.2835 17.5525C63.7128 17.0087 63.1422 16.4648 62.5192 15.8846Z" fill="white"/>
<path d="M115.27 25.74C115.203 24.0407 115.176 22.2674 115.151 20.322C115.148 19.3448 115.142 18.5395 115.145 17.649C115.148 16.882 115.142 16.2002 115.145 15.4337C115.148 14.7292 115.144 14.1093 115.147 13.4037C115.157 13.0741 115.128 12.8249 115.168 12.5873C115.324 11.6505 114.946 11.3719 114.019 11.4288C112.686 11.5108 111.344 11.4497 110.005 11.4497C109.994 10.828 109.982 10.2063 110.074 9.50155C111.871 9.41984 113.564 9.4212 115.257 9.42257C115.278 13.237 115.303 17.0514 115.319 20.8658C115.325 22.4658 115.313 24.0659 115.27 25.74Z" fill="white"/>
<path d="M115.136 17.7342C115.142 18.5395 115.148 19.3448 115.144 20.2363C113.483 20.3197 111.83 20.3169 110.092 20.3142C109.993 19.5084 109.981 18.7027 110.073 17.8128C111.831 17.7305 113.483 17.7323 115.136 17.7342Z" fill="white"/>
<path d="M24.875 26.6226C26.455 26.8463 27.4481 28.1145 27.2882 29.7044C27.1327 31.251 25.8566 32.2312 24.0325 32.0475C24.2611 30.1744 24.5681 28.3985 24.875 26.6226Z" fill="#ACABB7"/>
<path d="M109.985 3.40847C111.701 3.32486 113.401 3.32565 115.182 3.32729C115.274 4.07161 115.286 4.81507 115.197 5.6421C113.4 5.72543 111.702 5.72521 110.005 5.72498C109.993 4.98094 109.981 4.23691 109.985 3.40847Z" fill="white"/>
<path d="M64.2918 17.6276C65.9886 17.5501 67.6938 17.5478 69.4792 17.5451C69.5834 18.2917 69.6073 19.0385 69.6023 19.867C68.2008 19.9474 66.8279 19.9579 65.4556 19.936C65.1378 19.9309 64.8219 19.8151 64.4636 19.6724C64.3814 18.9639 64.3407 18.3333 64.2918 17.6276Z" fill="white"/>
<path d="M119.743 17.0733C121.457 16.9969 123.17 16.9944 124.965 16.992C125.372 17.6209 125.698 18.2499 126.033 18.9426C125.728 19.0729 125.415 19.1811 125.097 19.199C123.637 19.2813 122.175 19.3384 120.626 19.4106C120.272 18.6603 120.007 17.9038 119.743 17.0733Z" fill="white"/>
<path d="M78.2949 9.88902C76.6292 9.97321 74.9773 9.97273 73.239 9.97222C73.141 9.22802 73.1294 8.48384 73.2217 7.65565C74.9774 7.5719 76.6292 7.57218 78.281 7.57246C78.2902 8.31643 78.2995 9.0604 78.2949 9.88902Z" fill="white"/>
<path d="M124.579 11.5726C122.9 11.635 121.251 11.635 119.518 11.6354C119.559 10.9266 119.684 10.2173 119.936 9.4576C121.457 9.41091 122.85 9.40013 124.242 9.42989C124.546 9.43639 124.847 9.58767 125.15 9.67227C124.97 10.2849 124.79 10.8976 124.579 11.5726Z" fill="white"/>
<path d="M121.532 5.74957C123.387 5.7183 125.192 5.70621 126.995 5.73883C127.327 5.74483 127.655 5.93213 128.048 6.07663C127.593 6.58668 127.074 7.05585 126.414 7.55179C124.405 7.5121 122.536 7.44565 120.668 7.37919C120.939 6.84751 121.21 6.31583 121.532 5.74957Z" fill="white"/>
<path d="M78.2955 20.0467C76.6293 20.1304 74.9773 20.1299 73.2389 20.1294C73.14 19.4463 73.1275 18.7632 73.2198 17.9966C74.977 17.9135 76.6294 17.9139 78.2818 17.9143C78.2911 18.5971 78.3004 19.2798 78.2955 20.0467Z" fill="white"/>
<path d="M96.3402 11.2641C96.3265 10.5808 96.3128 9.89757 96.4086 9.13165C98.188 9.04922 99.8579 9.04944 101.528 9.04966C101.541 9.73266 101.554 10.4157 101.461 11.1819C99.6842 11.2649 98.0122 11.2645 96.3402 11.2641Z" fill="white"/>
<path d="M78.2957 17.8304C76.6294 17.9139 74.977 17.9135 73.2382 17.9131C73.1397 17.2301 73.1277 16.5471 73.1341 15.7806C74.8319 15.7001 76.5112 15.703 78.2807 15.7117C78.3504 16.3939 78.33 17.0702 78.2957 17.8304Z" fill="white"/>
<path d="M115.145 17.649C113.483 17.7323 111.831 17.7305 110.091 17.7286C109.993 17.0455 109.981 16.3625 110.073 15.596C111.831 15.5145 113.484 15.5165 115.137 15.5184C115.142 16.2002 115.148 16.882 115.145 17.649Z" fill="white"/>
<path d="M59.5285 9.71203C59.0311 9.83358 58.4974 9.95217 57.9616 9.96288C56.5324 9.99143 55.1022 9.97359 53.5909 9.9747C53.3805 9.3461 53.2516 8.717 53.221 8.01557C54.9453 7.94293 56.5713 7.94262 58.1973 7.94231C58.6286 8.51484 59.06 9.08736 59.5285 9.71203Z" fill="white"/>
<path d="M150.929 11.3487C151.212 11.4524 151.513 11.6074 151.745 11.8335C153.174 13.2262 154.587 14.6348 156.065 16.0646C156.105 16.6437 156.086 17.1962 155.988 17.8301C155.287 17.3567 154.664 16.802 154.042 16.2469C153.009 15.3251 151.976 14.4029 150.943 13.4809C150.934 12.7982 150.925 12.1156 150.929 11.3487Z" fill="#ACABB7"/>
<path d="M156.04 19.7606C156.049 20.4431 156.058 21.1257 155.993 21.8845C155.837 21.9214 155.74 21.8987 155.677 21.8401C154.262 20.5261 152.853 19.2044 151.43 17.8979C151.314 17.791 151.108 17.7828 150.943 17.7287C150.934 17.0461 150.925 16.3635 150.995 15.5977C151.261 15.6023 151.493 15.6464 151.628 15.7851C152.35 16.5265 153.003 17.3401 153.766 18.034C154.468 18.6719 155.278 19.1898 156.04 19.7606Z" fill="#ACABB7"/>
<path d="M69.8502 42.4577C69.7656 41.1353 69.7656 39.8251 69.7656 38.4421C70.6611 38.7812 71.7629 37.8664 72.6506 38.9005C73.2485 38.1712 74.057 38.3228 74.7767 38.5065C75.5821 38.712 75.6433 39.5266 75.715 40.2006C75.7894 40.8995 75.7316 41.6126 75.7316 42.3524C75.2789 42.552 74.994 42.5897 74.9857 41.9412C74.9764 41.2171 74.9638 40.4758 74.7982 39.7788C74.7234 39.4636 74.2796 39.034 73.9956 39.0283C73.7139 39.0225 73.2363 39.4442 73.1711 39.7486C72.9832 40.6265 72.9599 41.5398 72.7117 42.5216C72.6133 42.3438 72.4439 42.1714 72.4301 41.9872C72.3912 41.4669 72.4981 40.9243 72.3914 40.4238C72.2969 39.981 72.0476 39.5373 71.7563 39.1859C71.6248 39.0271 71.1742 38.9823 70.961 39.0829C70.7166 39.1982 70.4417 39.518 70.4144 39.774C70.3398 40.4739 70.4213 41.1896 70.3673 41.8933C70.3518 42.0954 70.0859 42.2783 69.8502 42.4577Z" fill="white"/>
<path d="M166.206 32.7627C166.023 32.2824 165.905 31.8273 165.63 31.5082C165.469 31.3216 164.999 31.2198 164.774 31.3198C164.515 31.4352 164.231 31.8016 164.205 32.0818C164.131 32.9026 164.179 33.7347 164.179 34.9096C163.822 34.6044 163.475 34.4489 163.469 34.2799C163.421 33.0886 163.443 31.8946 163.443 30.6174C164.47 31.0489 165.618 30.079 166.446 31.157C167.076 30.418 167.944 30.4643 168.575 30.8111C169.039 31.0659 169.357 31.8129 169.485 32.3968C169.639 33.0967 169.522 33.8563 169.522 34.6311C169.027 34.7976 168.783 34.7494 168.774 34.1558C168.763 33.4034 168.734 32.6366 168.57 31.9086C168.507 31.6306 168.046 31.263 167.768 31.2644C167.49 31.2657 167.029 31.6397 166.973 31.9164C166.789 32.8246 166.752 33.7628 166.643 34.8518C165.866 34.2273 166.37 33.4555 166.206 32.7627Z" fill="white"/>
<path d="M181.59 8.86351C181.892 9.04236 182.236 9.17506 182.488 9.40795C183.67 10.5016 184.827 11.6228 186.058 12.7416C185.855 13.2846 185.587 13.8202 185.198 14.3767C184.82 14.1975 184.541 14.0181 184.306 13.7934C183.302 12.8342 182.311 11.8617 181.316 10.8223C181.408 10.1216 181.499 9.49257 181.59 8.86351Z" fill="#ACABB7"/>
<path d="M150.93 17.8118C151.108 17.7828 151.314 17.791 151.43 17.8979C152.853 19.2044 154.262 20.5261 155.677 21.8401C155.74 21.8987 155.837 21.9214 155.979 21.9687C156.049 22.6592 156.059 23.3419 156.054 24.1087C155.752 23.9861 155.436 23.8099 155.181 23.5676C153.801 22.2512 152.436 20.9184 151.004 19.5837C150.934 19.0157 150.925 18.4552 150.93 17.8118Z" fill="#ACABB7"/>
<path d="M120.617 7.41848C122.536 7.44565 124.405 7.5121 126.362 7.58349C126.053 8.25817 125.655 8.92792 125.203 9.63497C124.847 9.58767 124.546 9.43639 124.242 9.42989C122.85 9.40013 121.457 9.41091 119.972 9.39962C120.109 8.74732 120.337 8.10254 120.617 7.41848Z" fill="white"/>
<path d="M119.807 33.8839C119.353 32.6772 119.535 31.6536 120.215 31.0376C121.065 30.2681 122.038 30.6831 123.084 30.7213C123.084 32.1854 123.144 33.6792 123.064 35.1656C123.009 36.1836 121.681 36.7364 120.528 36.2948C120.224 36.1785 119.947 35.9915 119.66 35.838C119.955 35.2177 119.955 35.2177 120.524 35.461C121.689 35.9598 121.963 35.8543 122.574 34.5691C121.431 35.1374 120.508 35.0044 119.807 33.8839ZM122.146 34.0894C122.838 33.5453 122.487 32.7843 122.518 32.1209C122.554 31.3712 121.935 31.0409 121.218 31.3179C120.322 31.6642 120.197 32.3843 120.341 33.1779C120.508 34.0989 121.212 34.2321 122.146 34.0894Z" fill="white"/>
<path d="M96.3189 11.3466C98.0122 11.2645 99.6842 11.2649 101.442 11.2653C101.542 11.8872 101.554 12.5092 101.461 13.2139C99.6841 13.2962 98.0123 13.2957 96.3405 13.2952C96.3262 12.6732 96.3119 12.0511 96.3189 11.3466Z" fill="white"/>
<path d="M101.55 21.1549C99.8586 21.2375 98.1868 21.2373 96.4263 21.2369C96.3228 20.6142 96.3079 19.9916 96.4045 19.2873C98.1872 19.2058 99.8583 19.206 101.529 19.2062C101.543 19.8282 101.556 20.4502 101.55 21.1549Z" fill="white"/>
<path d="M96.3188 13.3776C98.0123 13.2957 99.6841 13.2962 101.442 13.2967C101.541 13.9186 101.554 14.5406 101.462 15.2453C99.6841 15.3276 98.0121 15.3272 96.3401 15.3268C96.3258 14.7046 96.3115 14.0823 96.3188 13.3776Z" fill="white"/>
<path d="M115.145 15.4337C113.484 15.5165 111.831 15.5145 110.092 15.5126C109.994 14.8908 109.982 14.269 110.074 13.5642C111.832 13.4839 113.485 13.4867 115.139 13.4894C115.144 14.1093 115.148 14.7292 115.145 15.4337Z" fill="white"/>
<path d="M115.147 13.4037C113.485 13.4867 111.832 13.4839 110.092 13.4812C109.994 12.8594 109.982 12.2376 109.988 11.5328C111.344 11.4497 112.686 11.5108 114.019 11.4288C114.946 11.3719 115.324 11.6505 115.168 12.5873C115.128 12.8249 115.157 13.0741 115.147 13.4037Z" fill="white"/>
<path d="M169.891 7.20232C169.879 6.5804 169.866 5.95847 169.936 5.26004C170.278 5.39007 170.56 5.57482 170.795 5.80686C171.909 6.90677 173 8.02963 174.124 9.11933C174.348 9.33683 174.677 9.4453 174.977 9.68681C174.983 10.3918 174.971 11.014 174.896 11.6353C174.565 11.4467 174.264 11.2922 174.033 11.0657C172.914 9.96936 171.822 8.84603 170.702 7.75126C170.472 7.52663 170.164 7.38318 169.891 7.20232Z" fill="#ACABB7"/>
<path d="M96.3178 15.4091C98.0121 15.3272 99.6841 15.3276 101.442 15.328C101.542 15.95 101.555 16.5719 101.463 17.2766C99.6842 17.3591 98.0115 17.3588 96.3389 17.3585C96.3245 16.7361 96.31 16.1137 96.3178 15.4091Z" fill="white"/>
<path d="M78.2943 7.48872C76.6292 7.57218 74.9774 7.5719 73.2393 7.57162C73.1414 6.94991 73.1298 6.32822 73.1356 5.62338C74.8061 5.54033 76.4592 5.54042 78.1966 5.54075C78.2899 6.16231 78.2988 6.78365 78.2943 7.48872Z" fill="white"/>
<path d="M101.547 8.96672C99.8579 9.04944 98.188 9.04922 96.4296 9.04863C96.3275 8.42633 96.3137 7.8044 96.4092 7.10012C98.1883 7.01798 99.8581 7.01819 101.528 7.01839C101.54 7.64019 101.553 8.26199 101.547 8.96672Z" fill="white"/>
<path d="M161.683 16.0854C161.303 15.641 161.046 15.1793 160.702 14.7969C159.674 13.6548 158.611 12.5437 157.554 11.3582C158.166 11.2864 158.786 11.2769 159.497 11.3432C160.794 12.6739 162.007 13.9224 163.2 15.1894C163.442 15.4458 163.609 15.7722 163.811 16.0663C163.129 16.0789 162.447 16.0916 161.683 16.0854Z" fill="#ACABB7"/>
<path d="M156.054 19.6776C155.278 19.1898 154.468 18.6719 153.766 18.034C153.003 17.3401 152.35 16.5265 151.628 15.7851C151.493 15.6464 151.261 15.6023 151.008 15.5136C150.934 14.8912 150.925 14.2698 150.93 13.5646C151.976 14.4029 153.009 15.3251 154.042 16.2469C154.664 16.802 155.287 17.3567 155.975 17.9125C156.049 18.4738 156.058 19.0342 156.054 19.6776Z" fill="#ACABB7"/>
<path d="M115.277 9.34037C113.564 9.4212 111.871 9.41984 110.092 9.41848C109.994 8.85779 109.982 8.29708 110.074 7.654C111.871 7.57285 113.564 7.57408 115.257 7.5753C115.27 8.13626 115.283 8.69721 115.277 9.34037Z" fill="white"/>
<path d="M115.277 7.49319C113.564 7.57408 111.871 7.57285 110.092 7.57162C109.994 7.01102 109.982 6.45044 109.988 5.80742C111.702 5.72521 113.4 5.72543 115.177 5.72535C115.27 6.28705 115.283 6.84906 115.277 7.49319Z" fill="white"/>
<path d="M101.546 6.93664C99.8581 7.01819 98.1883 7.01798 96.4299 7.01753C96.3155 6.46749 96.2895 5.91771 96.2481 5.28837C97.9739 5.20025 99.715 5.19169 101.552 5.19048C101.62 5.75018 101.592 6.30253 101.546 6.93664Z" fill="white"/>
<path d="M96.3162 17.4399C98.0115 17.3588 99.6842 17.3591 101.443 17.3594C101.543 17.9204 101.556 18.4813 101.549 19.1243C99.8583 19.206 98.1872 19.2058 96.4275 19.2052C96.3238 18.6436 96.3087 18.0825 96.3162 17.4399Z" fill="white"/>
<path d="M18.4257 36.546C17.7788 36.4604 17.1319 36.3748 16.4434 36.1612C16.5795 34.7185 16.7572 33.4037 16.9349 32.0889C17.7154 31.6622 18.4127 31.9559 19.1315 32.4667C18.9176 33.9108 18.6716 35.2284 18.4257 36.546Z" fill="white"/>
<path d="M174.416 0.569937C174.768 0.936927 175.014 1.31247 175.313 1.63963C176.232 2.64652 177.177 3.62983 178.096 4.63618C178.229 4.78112 178.278 5.00237 178.283 5.25901C177.642 5.30973 177.084 5.28976 176.514 5.21065C176.296 4.85161 176.125 4.51691 175.876 4.25804C174.981 3.32887 174.045 2.43969 173.159 1.50242C172.927 1.25637 172.82 0.891294 172.655 0.580881C173.214 0.572706 173.773 0.564533 174.416 0.569937Z" fill="#ACABB7"/>
<path d="M60.7742 41.4341C61.8477 41.9705 62.764 41.8665 63.5468 40.9377C63.7603 41.1318 63.9324 41.2883 64.1002 41.4409C63.2128 42.8447 60.7282 42.716 59.8584 41.8171C58.8553 40.7805 58.8828 38.5384 59.9582 37.5099C60.7868 36.7175 63.0872 36.602 64.0172 37.9494C63.6546 37.9928 63.3302 38.1393 63.1326 38.0378C61.9082 37.409 60.9175 37.5709 60.1759 38.5883C59.5904 39.3914 59.8062 40.5049 60.7742 41.4341Z" fill="white"/>
<path d="M15.4806 21.8862C14.03 21.8824 13.4577 21.3519 13.1061 19.5611C13.2147 18.9672 13.3404 18.5134 13.4662 18.0595C13.7343 18.0534 14.0027 18.0535 14.2705 18.0399C14.8981 18.0082 15.5254 17.9699 16.1681 18.0556C15.9491 19.4134 15.7148 20.6498 15.4806 21.8862Z" fill="white"/>
<path d="M14.7514 27.5451C14.0738 28.5228 13.1413 28.5236 12.1453 28.1466C12.4055 26.6585 12.6527 25.2553 12.9 23.852C13.8614 23.914 14.7703 24.067 15.0825 25.2592C14.9328 26.0929 14.8421 26.819 14.7514 27.5451Z" fill="white"/>
<path d="M169.891 11.4497C169.878 11.0715 169.865 10.6934 169.935 10.2424C170.147 10.2463 170.3 10.2999 170.403 10.403C172.577 12.5723 174.752 14.7414 176.906 16.9309C177.097 17.1256 177.147 17.4603 177.262 17.73C176.945 17.7436 176.627 17.7572 176.227 17.6862C176.088 17.4943 176.055 17.3646 175.973 17.2828C174.135 15.4292 172.293 13.5778 170.441 11.7374C170.301 11.5979 170.076 11.5436 169.891 11.4497Z" fill="#ACABB7"/>
<path d="M179.287 17.6976C179.031 17.7208 178.774 17.7441 178.436 17.6846C178.278 17.4719 178.225 17.319 178.122 17.2155C175.589 14.6673 173.053 12.1218 170.507 9.58638C170.345 9.42509 170.098 9.34929 169.891 9.23371C169.879 8.97624 169.866 8.71877 169.936 8.39222C171.158 9.39414 172.288 10.4763 173.443 11.5308C173.92 11.9658 174.45 12.3414 174.977 12.8156C175.137 12.9936 175.277 13.1001 175.418 13.2683C175.519 13.5114 175.585 13.7267 175.725 13.8684C176.447 14.5998 177.209 15.2924 177.915 16.0383C178.407 16.5582 178.832 17.1422 179.287 17.6976Z" fill="#ACABB7"/>
<path d="M158.652 37.5266C158.684 37.2945 158.668 37.0783 158.756 37.0197C159.223 36.7098 161.186 36.9963 161.61 37.4071C162.262 38.0368 162.404 38.939 161.767 39.779C161.453 40.1939 160.818 40.3884 160.297 40.6104C160.067 40.7084 159.761 40.6269 159.478 40.6269C159.398 41.2693 159.332 41.8598 159.23 42.4438C159.224 42.4737 158.903 42.4477 158.651 42.4477C158.651 40.8014 158.651 39.2083 158.652 37.5266ZM160.477 37.6803C160.126 37.6803 159.776 37.6803 159.455 37.6803C159.455 38.4935 159.455 39.1787 159.455 39.8569C160.314 39.9738 161.016 39.8118 161.291 38.9806C161.479 38.4146 161.191 37.9613 160.477 37.6803Z" fill="white"/>
<path d="M169.891 1.84651C169.873 1.45706 169.854 1.06762 169.83 0.558099C170.194 0.558099 170.512 0.558099 170.921 0.631743C171.527 1.2684 172.055 1.82028 172.555 2.39693C173.393 3.36421 174.214 4.34727 175.026 5.40261C174.993 5.74755 174.976 6.01357 174.897 6.2781C174.566 6.08964 174.264 5.93624 174.033 5.71004C172.915 4.6137 171.822 3.49012 170.702 2.3952C170.472 2.17058 170.164 2.02729 169.891 1.84651Z" fill="#ACABB7"/>
<path d="M174.958 9.60405C174.677 9.4453 174.348 9.33683 174.124 9.11933C173 8.02963 171.909 6.90677 170.795 5.80686C170.56 5.57482 170.278 5.39007 169.955 5.17722C169.879 4.61009 169.866 4.04925 169.936 3.41259C170.277 3.54239 170.564 3.72169 170.791 3.95815C171.847 5.05766 172.869 6.19123 173.947 7.26911C174.197 7.51933 174.617 7.59906 174.977 7.83932C174.984 8.48227 174.971 9.04316 174.958 9.60405Z" fill="#ACABB7"/>
<path d="M53.298 33.7488C53.6932 34.1368 54.055 34.511 54.5726 34.158C54.807 33.9981 55.1482 33.6589 55.1033 33.4931C55.0039 33.1267 54.7122 32.8001 54.4535 32.4961C54.3536 32.3787 54.1343 32.3508 53.9629 32.3091C53.1073 32.1009 52.5118 31.5532 52.5642 30.6919C52.5931 30.2188 52.995 29.5771 53.4099 29.3612C54.1428 28.9798 54.9943 28.9593 55.5952 29.7731C55.6665 29.8698 55.7517 29.9562 55.8603 30.0819C55.5989 30.4746 55.445 30.6033 55.0051 30.1805C54.3339 29.5355 53.5468 29.7812 53.3968 30.5711C53.2655 31.2621 53.7649 31.4187 54.2459 31.5748C54.9889 31.8161 55.7053 32.0227 55.8902 32.9778C56.0355 33.7288 55.7287 34.5827 55.0677 34.8337C54.2189 35.1559 52.7795 34.7287 52.5643 34.0673C52.5184 33.9263 52.6216 33.7366 52.6561 33.5694C52.8539 33.613 53.0517 33.6566 53.298 33.7488Z" fill="white"/>
<path d="M143.296 33.0551C142.356 33.056 141.501 33.056 140.639 33.056C140.763 33.9876 141.42 34.3349 142.237 33.9911C142.54 33.8636 142.876 33.8122 143.202 33.7523C143.227 33.7477 143.347 34.0309 143.328 34.0447C142.992 34.2812 142.664 34.6322 142.291 34.6934C140.453 34.9948 139.328 33.6637 139.877 31.9042C140.159 31.0003 141.217 30.4424 142.23 30.6634C143.097 30.8526 143.813 31.7867 143.71 32.6456C143.693 32.7929 143.496 32.9186 143.296 33.0551ZM142.83 32.0581C142.616 31.4691 142.2 31.2383 141.59 31.3683C141.011 31.4918 140.601 31.7688 140.621 32.5021C141.298 32.5021 141.94 32.519 142.58 32.4871C142.701 32.4811 142.812 32.2813 142.83 32.0581Z" fill="white"/>
<path d="M58.2107 7.8677C56.5713 7.94262 54.9453 7.94293 53.239 7.94441C53.1819 7.43821 53.205 6.93085 53.2506 6.35138C54.9464 6.32376 56.6198 6.36825 58.3657 6.44406C58.3668 6.91461 58.2955 7.35385 58.2107 7.8677Z" fill="white"/>
<path d="M94.5368 32.8507C94.5875 32.6377 94.6794 32.5022 94.6931 32.3591C94.8351 30.8766 95.963 30.4942 96.9975 30.6708C97.8564 30.8175 98.7501 31.5 98.5357 33.0384C97.5339 33.0384 96.5131 33.0384 95.4751 33.0384C95.64 33.9259 96.2654 34.3149 96.9543 34.0468C97.1492 33.971 97.3288 33.8358 97.5285 33.7982C97.7226 33.7617 97.9335 33.8155 98.1371 33.8297C98.0446 34.026 98.0031 34.2849 97.8517 34.4087C96.7739 35.2899 94.998 34.6248 94.6989 33.2503C94.674 33.1357 94.5954 33.0329 94.5368 32.8507ZM95.8073 31.6843C95.6727 31.9166 95.5382 32.1488 95.3574 32.4609C96.2797 32.4609 97.0333 32.4609 97.7994 32.4609C97.424 31.2745 97.0091 31.0895 95.8073 31.6843Z" fill="white"/>
<path d="M88.8993 31.9422C88.9656 32.3262 88.9804 32.6525 88.9987 33.0541C87.9209 33.0541 86.9185 33.0541 85.908 33.0541C86.0467 33.9922 86.7059 34.333 87.5211 33.9896C87.822 33.8628 88.159 33.8182 88.4838 33.7602C88.5048 33.7564 88.6174 34.0388 88.595 34.0543C88.2577 34.2883 87.9273 34.629 87.5517 34.6946C85.8431 34.9933 84.7503 33.8099 85.1074 32.2492C85.3078 31.3738 85.7372 30.805 86.6048 30.6683C87.687 30.4977 88.3999 30.9194 88.8993 31.9422ZM86.5637 32.5027C87.1218 32.5027 87.6798 32.5027 88.2379 32.5027C88.281 32.3868 88.3242 32.2709 88.3673 32.155C87.9624 31.8727 87.5851 31.439 87.1434 31.3579C86.8152 31.2976 86.3287 31.6201 86.0462 31.905C85.612 32.3429 85.9085 32.5209 86.5637 32.5027Z" fill="white"/>
<path d="M58.6052 34.1557C58.9799 34.0335 59.2736 33.8722 59.588 33.7906C59.7715 33.743 59.988 33.8229 60.1897 33.8454C60.1106 34.0191 60.078 34.2533 59.9446 34.3564C59.2516 34.8916 58.4701 34.8463 57.7183 34.5365C56.9371 34.2145 56.5807 33.499 56.5982 32.721C56.6381 30.9488 58.2973 30.0902 59.8212 31.0214C60.5428 31.4623 60.7126 32.1693 60.5759 33.0437C59.5561 33.0437 58.5524 33.0437 57.5497 33.0437C57.3678 33.9473 58.1344 33.873 58.6052 34.1557ZM59.2039 31.4083C58.1501 31.2025 57.5881 31.5688 57.591 32.4486C58.341 32.4486 59.0901 32.4486 59.999 32.4486C59.7225 32.0523 59.5233 31.7669 59.2039 31.4083Z" fill="white"/>
<path d="M54.6947 41.9136C54.928 41.8283 55.0819 41.7117 55.2532 41.6737C55.5336 41.6115 55.8253 41.6005 56.1123 41.5678C55.9221 41.8197 55.7847 42.1698 55.5324 42.3057C54.6425 42.7852 53.4413 42.4642 52.8721 41.6129C52.3463 40.8266 52.5537 39.4751 53.2941 38.83C53.9566 38.2528 55.3446 38.1877 55.9579 38.8833C56.3575 39.3365 56.4809 40.0343 56.7949 40.7819C55.5364 40.7819 54.5346 40.7819 53.4956 40.7819C53.3673 41.7591 54.1485 41.6799 54.6947 41.9136ZM54.7485 39.0841C54.0148 39.101 53.549 39.4194 53.4248 40.1821C54.2669 40.1821 55.0355 40.1821 55.8041 40.1821C55.8421 40.1077 55.88 40.0333 55.918 39.9589C55.5704 39.6864 55.2228 39.4138 54.7485 39.0841Z" fill="white"/>
<path d="M169.788 38.416C171.078 39.0193 171.479 39.7154 171.16 41.0868C170.702 43.061 169.159 42.5624 167.744 42.3672C167.744 40.6831 167.744 38.9267 167.744 37.1702C167.84 37.143 167.935 37.1158 168.03 37.0886C168.129 37.5547 168.228 38.0208 168.312 38.4135C168.765 38.4135 169.238 38.4135 169.788 38.416ZM168.814 41.8533C169.616 42.0656 170.147 41.7763 170.438 40.9985C170.707 40.283 170.486 39.7172 169.915 39.2813C169.414 38.8982 168.318 39.0138 168.294 39.4581C168.253 40.2303 167.883 41.1138 168.814 41.8533Z" fill="white"/>
<path d="M181.711 17.0572C181.256 17.2173 180.801 17.3775 180.271 17.4692C179.149 16.3033 178.093 15.2153 177.065 14.1009C176.833 13.8495 176.701 13.506 176.604 13.1845C177.246 13.1564 177.805 13.1487 178.374 13.2025C179.236 14.1657 180.101 15.0563 180.936 15.9747C181.232 16.3007 181.455 16.6944 181.711 17.0572Z" fill="#ACABB7"/>
<path d="M6.68773 15.1672C6.87493 14.0195 7.11009 12.9191 7.35238 11.7486C9.01543 11.7913 9.56164 12.5545 9.26569 14.5207C9.02058 15.1097 8.83537 15.6037 8.65016 16.0976C8.22455 15.3404 7.37838 15.499 6.68773 15.1672Z" fill="white"/>
<path d="M169.87 16.517C170.183 16.6366 170.507 16.8031 170.762 17.0433C172.042 18.2487 173.303 19.4734 174.769 20.8815C174.823 20.1379 174.858 19.6501 174.927 19.1006C174.974 20.0221 174.987 21.0052 174.915 22.0721C174.379 21.8364 173.897 21.5525 173.482 21.1906C172.33 20.1859 171.207 19.148 170.069 18.1276C170.032 18.0938 169.952 18.1068 169.892 18.098C169.878 17.598 169.863 17.098 169.87 16.517Z" fill="white"/>
<path d="M174.958 7.75725C174.617 7.59906 174.197 7.51933 173.947 7.26911C172.869 6.19123 171.847 5.05766 170.791 3.95815C170.564 3.72169 170.277 3.54239 169.955 3.33043C169.879 2.88516 169.866 2.44623 169.872 1.9269C170.164 2.02729 170.472 2.17058 170.702 2.3952C171.822 3.49012 172.915 4.6137 174.033 5.71004C174.264 5.93624 174.566 6.08964 174.916 6.35841C174.984 6.87923 174.971 7.31824 174.958 7.75725Z" fill="#ACABB7"/>
<path d="M181.315 10.894C182.311 11.8617 183.302 12.8342 184.306 13.7934C184.541 14.0181 184.82 14.1975 185.143 14.4055C184.817 14.8419 184.425 15.2705 183.95 15.6654C183.21 14.9549 182.538 14.2917 181.901 13.5968C181.438 13.0915 181.02 12.5443 180.608 11.96C180.862 11.5675 181.089 11.2307 181.315 10.894Z" fill="#ACABB7"/>
<path d="M82.7383 30.6564C83.0768 30.6807 83.3371 30.7049 83.5632 30.726C83.658 30.2752 83.7551 29.8133 83.8521 29.3514C83.9555 29.3697 84.0588 29.388 84.1621 29.4064C84.1621 31.1481 84.1621 32.8897 84.1621 34.6317C81.3974 34.7109 80.9564 34.4991 80.8923 33.0633C80.8197 31.4396 81.3134 30.7675 82.7383 30.6564ZM83.6557 32.2684C83.4889 31.9577 83.3512 31.4106 83.1492 31.3857C82.7352 31.3346 82.1349 31.4265 81.8843 31.7057C81.3726 32.2757 81.3837 33.0583 81.8606 33.6643C82.079 33.9418 82.6288 34.1897 82.9396 34.1088C83.4421 33.978 83.7606 33.5062 83.6593 32.8907C83.6347 32.7411 83.6557 32.5839 83.6557 32.2684Z" fill="white"/>
<path d="M135.859 34.2872C135.688 33.768 135.518 33.3176 135.442 32.8517C135.182 31.2478 136.497 30.2451 138.112 30.7739C138.428 30.366 137.854 29.632 138.69 29.2656C138.69 31.1272 138.69 32.8632 138.69 34.824C137.753 34.6644 136.828 34.5066 135.859 34.2872ZM137.949 33.7733C138.032 33.3149 138.197 32.8518 138.171 32.3998C138.151 32.0468 137.977 31.5371 137.717 31.4087C137.44 31.2714 136.936 31.4128 136.614 31.5864C136.005 31.9139 135.878 33.0473 136.392 33.6781C136.768 34.1389 137.27 34.4557 137.949 33.7733Z" fill="white"/>
<path d="M114.243 37.9016C114.243 39.4594 114.243 40.9297 114.243 42.496C113.18 42.1547 111.857 43.1461 111.171 41.669C110.771 40.8081 110.7 39.9029 111.288 39.0852C111.881 38.2611 112.732 38.3257 113.656 38.5109C113.667 38.269 113.643 37.9988 113.702 37.7484C113.753 37.5311 113.899 37.3362 114.003 37.1314C114.083 37.3589 114.163 37.5865 114.243 37.9016ZM113.424 39.1751C112.503 38.8268 111.493 39.4019 111.53 40.3687C111.554 41.0005 111.765 41.7953 112.56 41.8635C112.912 41.8937 113.552 41.4747 113.628 41.1564C113.766 40.5724 113.583 39.912 113.424 39.1751Z" fill="white"/>
<path d="M183.606 31.0696C184.955 30.1828 186.6 30.7704 186.966 32.3503C187.166 33.2144 186.46 34.4681 185.589 34.698C184.423 35.0057 183.264 34.3886 182.96 33.39C182.683 32.4783 182.929 31.7589 183.606 31.0696ZM185.925 31.8624C185.297 31.2828 184.581 31.2069 184.08 31.6668C183.488 32.2103 183.378 33.1579 183.932 33.6735C184.449 34.1543 185.078 34.3527 185.703 33.7979C186.287 33.2786 186.38 32.6588 185.925 31.8624Z" fill="white"/>
<path d="M103.283 39.168C103.338 40.2927 103.338 41.3609 103.338 42.4744C102.626 42.4744 101.949 42.5129 101.278 42.464C100.552 42.411 100 42.1378 100.048 41.2375C100.094 40.3555 100.442 39.9317 101.284 39.8942C101.763 39.8729 102.243 39.8904 102.704 39.8904C102.46 38.901 102.016 38.7892 100.586 39.4305C100.165 38.8112 100.165 38.812 100.773 38.5906C101.7 38.2531 102.549 38.2761 103.283 39.168ZM101.654 41.9195C102.281 41.7619 103.011 41.7005 102.782 40.7356C101.919 40.2794 101.181 40.3219 100.521 41.2669C100.88 41.5009 101.195 41.7064 101.654 41.9195Z" fill="white"/>
<path d="M92.7997 38.4445C93.1485 38.4183 93.4248 38.3991 93.6989 38.4162C94.5465 38.4689 95.0731 39.0268 95.0784 39.8723C95.0837 40.7252 95.0796 41.5783 95.0796 42.4746C94.358 42.4746 93.7136 42.4873 93.07 42.4715C92.1703 42.4495 91.7517 42.0413 91.7638 41.23C91.7775 40.3171 92.1704 39.916 93.0923 39.8922C93.5409 39.8806 93.9901 39.8902 94.4188 39.8902C94.1515 38.8917 93.7242 38.7863 92.2873 39.4356C91.862 38.7858 91.862 38.7858 92.7997 38.4445ZM92.3334 41.2511C92.7658 41.7717 93.2557 42.1923 93.944 41.7265C94.2387 41.5271 94.4358 41.1829 94.7491 40.8216C93.2256 40.2959 93.114 40.3159 92.3334 41.2511Z" fill="white"/>
<path d="M107.194 38.5833C108.17 38.916 108.494 39.6895 108.499 40.5098C108.504 41.3974 108.02 42.1826 107.129 42.4155C106.269 42.64 105.385 42.5649 104.742 41.74C104.264 41.1249 104.216 39.9789 104.706 39.2301C105.138 38.5695 106.166 38.2864 107.194 38.5833ZM105.293 39.722C105.224 39.9203 105.137 40.1143 105.089 40.3176C104.917 41.06 105.911 42.0874 106.61 41.8693C107.217 41.6795 107.743 41.2277 107.736 40.6265C107.731 40.1598 107.398 39.5258 107.012 39.277C106.514 38.9563 105.831 39.0056 105.293 39.722Z" fill="white"/>
<path d="M64.7071 41.4367C64.4249 39.7279 64.701 39.1033 65.8594 38.5708C66.7242 38.1734 67.4523 38.4736 68.1024 39.0046C68.6744 39.4719 68.9051 40.6891 68.5007 41.4086C68.1431 42.0449 67.5958 42.466 66.7491 42.5012C65.8429 42.5389 65.2574 42.1326 64.7071 41.4367ZM65.5959 39.6177C65.4859 39.8613 65.3342 40.0951 65.2739 40.3506C65.1137 41.0303 66.1519 42.1528 66.7458 41.8676C67.2335 41.6335 67.7831 41.1437 67.9101 40.6625C68.0105 40.2821 67.6206 39.5201 67.2472 39.3349C66.8565 39.141 66.2255 39.4334 65.5959 39.6177Z" fill="white"/>
<path d="M117.318 42.474C116.962 42.4738 116.677 42.5186 116.413 42.4635C115.778 42.3308 115.3 42.0632 115.337 41.2614C115.372 40.4846 115.657 39.9707 116.463 39.8999C116.998 39.8529 117.541 39.891 118.057 39.891C117.644 38.8693 117.245 38.7843 115.822 39.4711C115.489 39.0208 115.414 38.767 116.125 38.5572C117.766 38.0732 118.665 38.653 118.665 40.3254C118.665 41.0264 118.665 41.7275 118.665 42.376C118.192 42.4124 117.795 42.4429 117.318 42.474ZM117.69 40.6142C116.882 40.1993 116.342 40.5487 115.825 41.2774C116.166 41.5031 116.46 41.8553 116.752 41.8537C117.19 41.8512 117.641 41.6284 118.047 41.4216C118.099 41.395 117.917 40.9049 117.69 40.6142Z" fill="white"/>
<path d="M138.284 39.9695C137.909 38.8669 137.511 38.7828 136.09 39.4724C135.753 39.0163 135.692 38.7642 136.401 38.556C138.04 38.0742 138.934 38.6556 138.934 40.3362C138.934 41.0351 138.934 41.734 138.934 42.4746C138.207 42.4746 137.562 42.4879 136.917 42.4713C136.02 42.4482 135.604 42.0369 135.619 41.2209C135.635 40.3116 136.03 39.9051 136.958 39.8965C137.377 39.8926 137.797 39.9569 138.284 39.9695ZM136.844 40.5951C136.6 40.7819 136.356 40.9686 136.088 41.1736C136.635 41.7406 137.112 42.2052 137.803 41.7262C138.095 41.5233 138.291 41.1802 138.531 40.9008C138.467 40.8091 138.403 40.7173 138.339 40.6256C137.876 40.5825 137.414 40.5394 136.844 40.5951Z" fill="white"/>
<path d="M152.014 39.462C152.017 40.4905 152.017 41.4378 152.017 42.4741C151.27 42.4741 150.571 42.5205 149.88 42.4609C149.204 42.4026 148.663 42.1415 148.693 41.2858C148.725 40.3912 149.063 39.951 149.881 39.8937C150.155 39.8745 150.432 39.8818 150.707 39.8928C150.941 39.9021 151.175 39.9341 151.409 39.9563C151.03 38.8745 150.633 38.7845 149.176 39.465C148.861 39.0364 148.716 38.7649 149.454 38.5623C150.67 38.2285 151.309 38.3742 152.014 39.462ZM151.446 40.7694C150.198 40.253 149.894 40.3177 149.147 41.4162C149.682 41.5844 150.168 41.875 150.631 41.84C151.012 41.8112 151.614 41.6133 151.446 40.7694Z" fill="white"/>
<path d="M182.266 39.2776C181.579 39.2266 180.941 39.2266 180.303 39.2266C179.974 38.9994 179.94 38.7544 180.639 38.5524C182.278 38.0788 183.158 38.6585 183.158 40.3514C183.158 41.0466 183.158 41.7418 183.158 42.4746C182.415 42.4746 181.769 42.5038 181.126 42.4668C180.407 42.4253 179.82 42.207 179.836 41.2981C179.853 40.3631 180.216 39.9276 181.104 39.8935C181.583 39.8752 182.063 39.8902 182.579 39.8902C182.504 39.7319 182.409 39.5302 182.266 39.2776ZM182.128 41.7214C182.326 41.412 182.525 41.1027 182.764 40.7291C181.238 40.3028 181.055 40.3514 180.388 41.237C180.828 41.6963 181.244 42.1884 182.128 41.7214Z" fill="white"/>
<path d="M181.862 34.4366C181.009 34.5617 180.149 34.7071 179.316 34.6138C178.653 34.5397 178.472 33.9385 178.546 33.2803C178.621 32.6148 178.961 32.2093 179.614 32.1465C180.149 32.0951 180.693 32.1361 181.213 32.1361C180.928 31.1315 180.509 31.0297 179.072 31.6822C178.667 31.0522 178.657 31.014 179.286 30.8451C179.742 30.7227 180.255 30.597 180.697 30.69C181.365 30.8304 181.914 31.2041 181.875 32.0558C181.84 32.8203 181.867 33.5877 181.862 34.4366ZM180.027 32.6949C179.697 32.9132 179.366 33.1315 178.991 33.3793C179.532 33.9335 179.922 34.3625 180.649 34.04C181.146 33.8195 181.489 33.5916 181.237 32.9071C180.918 32.8414 180.547 32.7649 180.027 32.6949Z" fill="white"/>
<path d="M171.591 32.1339C172.088 32.1338 172.506 32.1338 172.906 32.1338C172.663 31.1221 172.198 31.0159 170.72 31.7092C170.386 31.2375 170.367 30.9965 171.059 30.7961C172.696 30.3222 173.576 30.9024 173.576 32.593C173.576 33.2885 173.576 33.984 173.576 34.6335C172.896 34.6648 172.315 34.7059 171.733 34.7146C171.027 34.7253 170.367 34.6131 170.266 33.733C170.15 32.7198 170.473 32.3271 171.591 32.1339ZM171.206 33.9107C172.337 34.3979 173.045 34.0141 172.955 32.8937C172.566 32.8289 172.152 32.6722 171.758 32.7135C171.058 32.7871 170.796 33.2967 171.206 33.9107Z" fill="white"/>
<path d="M158.145 34.6957C157.481 34.6344 156.81 34.7087 156.318 34.4462C155.28 33.8925 155.081 32.3318 155.808 31.3859C156.507 30.4755 158.119 30.3854 158.953 31.2509C159.669 31.9941 159.84 33.4529 158.814 34.2767C158.628 34.4258 158.419 34.5455 158.145 34.6957ZM156.932 33.9687C157.501 34.3776 158.022 34.0386 158.37 33.6986C158.633 33.4419 158.764 32.8945 158.714 32.5078C158.635 31.9029 158.317 31.4034 157.549 31.3826C156.881 31.3644 156.496 31.6366 156.246 32.2422C155.94 32.9841 156.226 33.4791 156.932 33.9687Z" fill="white"/>
<path d="M127.661 34.7182C126.303 34.7136 125.857 34.4072 125.853 33.5301C125.848 32.5599 126.238 32.1563 127.216 32.1355C127.663 32.126 128.11 32.1339 128.538 32.1339C128.181 31.118 127.784 31.028 126.328 31.7086C126.01 31.2791 125.842 30.8713 126.612 30.8402C127.274 30.8134 127.963 30.8057 128.594 30.9686C128.848 31.0343 129.114 31.5651 129.142 31.9036C129.218 32.8135 129.168 33.734 129.168 34.6261C128.649 34.6596 128.195 34.6889 127.661 34.7182ZM128.613 33.1656C127.781 32.4025 127.018 32.5202 126.428 33.503C127.351 34.4394 128.265 34.3625 128.613 33.1656Z" fill="white"/>
<path d="M117.822 34.5041C116.621 34.9546 115.705 34.7953 115.063 33.9559C114.508 33.2312 114.517 32.4294 114.968 31.6229C115.393 30.8611 116.553 30.4337 117.389 30.7611C118.422 31.1657 119.049 32.1545 118.735 33.0565C118.558 33.5661 118.178 34.0052 117.822 34.5041ZM116.431 31.3956C115.57 31.8019 115.204 32.4049 115.439 33.0536C115.686 33.7361 116.175 34.2304 116.9 34.1039C117.576 33.9858 118.06 33.4375 118.087 32.715C118.117 31.9353 117.467 31.422 116.431 31.3956Z" fill="white"/>
<path d="M108.476 31.3615C109.811 30.0617 111.808 30.6942 112.127 32.2923C112.311 33.2182 111.669 34.4779 110.755 34.7035C109.567 34.997 108.484 34.3737 108.138 33.3705C107.878 32.6153 108.146 32.0364 108.476 31.3615ZM109.2 33.7783C109.307 33.8302 109.431 33.8632 109.52 33.9371C110.073 34.3957 110.615 34.0753 110.973 33.7472C111.367 33.3874 111.627 32.8524 111.306 32.2221C111.036 31.6916 110.724 31.3612 110.075 31.3854C108.944 31.4277 108.504 32.4307 109.2 33.7783Z" fill="white"/>
<path d="M78.3095 32.6927C77.7483 34.4423 77.3785 34.7219 75.9908 34.7302C75.1751 34.735 74.6666 34.2667 74.3122 33.6767C73.8934 32.9796 74.1121 31.761 74.6822 31.2669C75.2965 30.7344 76.0079 30.4839 76.8466 30.7494C77.7738 31.0429 78.1194 31.7612 78.3095 32.6927ZM74.9804 33.1573C75.436 34.0776 76.0485 34.3301 76.8056 33.9099C77.4718 33.5401 77.7137 32.6587 77.3264 31.9947C76.9552 31.3583 76.3186 31.221 75.7344 31.4355C75.0654 31.6811 74.7834 32.3014 74.9804 33.1573Z" fill="white"/>
<path d="M169.872 9.30907C170.098 9.34929 170.345 9.42509 170.507 9.58638C173.053 12.1218 175.589 14.6673 178.122 17.2155C178.225 17.319 178.278 17.4719 178.361 17.6655C178.05 17.7431 177.733 17.7571 177.339 17.7505C177.147 17.4603 177.097 17.1256 176.906 16.9309C174.752 14.7414 172.577 12.5723 170.403 10.403C170.3 10.2999 170.147 10.2463 169.954 10.1633C169.878 9.89945 169.865 9.64193 169.872 9.30907Z" fill="#ACABB7"/>
<path d="M58.2348 20.6133C56.7663 20.6739 55.268 20.6703 53.77 20.6902C53.4418 20.6945 53.1147 20.7825 52.7116 20.8631C52.242 20.489 52.3839 20.2036 52.8388 19.9905C53.9862 19.4533 55.134 18.9171 56.2117 18.4132C56.8633 19.114 57.5342 19.8358 58.2348 20.6133Z" fill="white"/>
<path d="M157.177 5.53883C156.876 5.55326 156.575 5.56768 156.139 5.5466C154.729 4.18895 153.44 2.87838 152.189 1.533C151.987 1.31566 151.951 0.94357 151.838 0.643009C152.275 0.6295 152.713 0.615993 153.233 0.685038C153.413 0.950852 153.478 1.16501 153.614 1.31245C154.634 2.41542 155.682 3.49335 156.688 4.60815C156.916 4.85987 157.018 5.22559 157.177 5.53883Z" fill="#ACABB7"/>
<path d="M169.871 11.53C170.076 11.5436 170.301 11.5979 170.441 11.7374C172.293 13.5778 174.135 15.4292 175.973 17.2828C176.055 17.3646 176.088 17.4943 176.15 17.6653C175.852 17.7434 175.547 17.7579 175.167 17.7604C173.637 16.2664 172.187 14.7787 170.718 13.31C170.539 13.1308 170.259 13.0533 169.958 12.9279C169.878 12.4882 169.865 12.0492 169.871 11.53Z" fill="white"/>
<path d="M156.054 9.89208C155.712 9.7867 155.331 9.65734 155.064 9.40652C153.715 8.14024 152.396 6.84235 151.004 5.54763C150.934 5.10133 150.925 4.66293 150.991 4.15133C152.436 5.40542 153.801 6.73837 155.181 8.05491C155.435 8.29713 155.753 8.47283 156.04 8.67923C156.049 9.05684 156.058 9.43446 156.054 9.89208Z" fill="#ACABB7"/>
<path d="M173.392 26.0109C172.242 26.0109 171.092 26.0109 169.851 26.0109C169.851 24.8762 169.851 23.7876 169.937 22.6148C171.447 23.398 172.562 24.5662 173.392 26.0109Z" fill="#ACABB7"/>
<path d="M145.424 39.7929C145.126 40.5619 145.339 41.1162 145.889 41.6021C146.573 42.2055 147.107 41.6755 147.681 41.4103C148.114 42.0926 147.944 42.304 146.945 42.5176C146.969 42.9338 147.15 43.5351 146.981 43.6583C146.65 43.9013 146.125 43.8792 145.68 43.9667C145.657 43.8371 145.635 43.7076 145.613 43.578C145.873 43.5219 146.133 43.4657 146.403 43.4077C145.816 42.6736 145.146 42.0152 144.701 41.2287C144.239 40.4125 144.619 39.2961 145.348 38.733C146.01 38.2206 147.171 38.2902 148.103 39.0145C147.766 39.1292 147.435 39.3494 147.315 39.2657C146.488 38.6879 145.97 39.1657 145.424 39.7929Z" fill="white"/>
<path d="M98.0153 38.4127C98.5086 38.5231 98.9233 38.6335 99.3381 38.7439C99.3327 38.8777 99.3274 39.0114 99.3221 39.1452C99.0455 39.1571 98.7103 39.276 98.5026 39.1618C97.7462 38.746 97.2693 39.1657 96.8821 39.6814C96.4925 40.2003 96.5151 40.7961 96.9616 41.3056C97.3839 41.7874 97.8483 42.114 98.5301 41.6993C98.7218 41.5827 99.0197 41.6416 99.2689 41.62C99.1152 41.8637 99.0031 42.1561 98.7944 42.3357C98.6306 42.4767 98.3473 42.4782 98.26 42.5023C98.3074 42.8951 98.5253 43.4989 98.3651 43.6268C98.0389 43.8872 97.5087 43.8907 97.0625 44C97.033 43.8648 97.0036 43.7297 96.9741 43.5945C97.2207 43.537 97.4674 43.4794 97.8037 43.401C97.2504 42.7816 96.6447 42.2513 96.2228 41.6011C95.2673 40.1288 96.1989 38.4509 98.0153 38.4127Z" fill="white"/>
<path d="M175.793 30.7473C177.292 30.5982 177.292 30.5982 177.989 31.3976C177.691 31.3976 177.34 31.5006 177.105 31.3785C176.364 30.9931 175.929 31.4496 175.57 31.9215C175.182 32.4314 175.176 33.0334 175.638 33.5438C176.033 33.9806 176.453 34.3462 177.122 33.9872C177.354 33.8629 177.67 33.8965 177.947 33.8579C177.745 34.1362 177.57 34.4431 177.327 34.6794C177.224 34.7792 176.978 34.7306 176.938 34.7348C176.988 35.1364 177.208 35.739 177.049 35.8667C176.723 36.1283 176.194 36.1351 175.748 36.2469C175.718 36.1114 175.688 35.9759 175.658 35.8404C175.902 35.7834 176.147 35.7264 176.483 35.6481C175.93 35.0282 175.338 34.4921 174.904 33.8486C174.16 32.7444 174.53 31.5321 175.793 30.7473Z" fill="white"/>
<path d="M72.3839 34.9562C72.4836 35.314 72.6427 35.858 72.5804 35.8848C72.1648 36.0635 71.7019 36.1318 71.2543 36.236C71.226 36.1017 71.1976 35.9674 71.1693 35.833C71.4214 35.7738 71.6736 35.7146 71.9694 35.6451C71.4301 35.0032 70.8292 34.4258 70.3979 33.7412C69.8002 32.7926 70.0986 31.5451 70.946 30.9344C71.635 30.4379 72.8339 30.5585 73.7227 31.4039C73.2549 31.4253 72.931 31.5424 72.7412 31.4307C72.0045 30.9969 71.5074 31.3672 71.1137 31.8957C70.7062 32.4427 70.7132 33.0504 71.1974 33.5909C71.6751 34.1241 72.1966 34.3673 72.8449 33.8455C72.9576 33.7548 73.1173 33.7227 73.495 33.7623C73.3706 34.021 73.2991 34.3335 73.1069 34.5232C72.9142 34.7136 72.6011 34.7814 72.3839 34.9562Z" fill="white"/>
<path d="M128.335 39.5879C128.481 40.0247 128.443 40.2967 127.93 40.2652C127.41 40.2334 126.887 40.2582 126.22 40.2582C126.22 40.6328 126.22 40.9851 126.22 41.3374C126.22 41.673 126.22 42.0087 126.22 42.3443C126.153 42.4086 126.087 42.4729 126.02 42.5372C125.842 42.3595 125.513 42.1855 125.508 42.0035C125.468 40.3495 125.485 38.6942 125.485 36.9876C126.456 36.9876 127.365 36.9876 128.281 36.9876C128.43 37.5682 128.43 37.5682 126.283 37.7211C126.283 38.2792 126.283 38.8442 126.283 39.5384C126.938 39.5384 127.602 39.5384 128.335 39.5879Z" fill="white"/>
<path d="M37.0355 19.5462C36.455 19.4594 35.8744 19.3726 35.2783 19.1704C35.5419 17.7359 35.8211 16.4168 36.1002 15.0977C36.5537 15.1034 37.0071 15.1092 37.5246 15.2251C37.4043 16.7389 37.2199 18.1425 37.0355 19.5462Z" fill="white"/>
<path d="M9.21478 29.2073C10.6069 29.3826 10.9277 29.7018 11.1058 31.286C10.9268 31.8334 10.8087 32.2444 10.6906 32.6553C10.0033 32.8063 9.31591 32.9572 8.56244 33.0003C8.7358 31.6641 8.97529 30.4357 9.21478 29.2073Z" fill="white"/>
<path d="M141.907 20.6014C141.284 20.7277 140.632 20.8563 139.979 20.8551C138.747 20.8529 137.515 20.776 136.209 20.6979C137.096 19.9997 138.055 19.3336 139.076 18.6243C139.955 19.2271 140.916 19.8861 141.907 20.6014Z" fill="white"/>
<path d="M175.041 5.3237C174.214 4.34727 173.393 3.36421 172.555 2.39693C172.055 1.82028 171.527 1.2684 171.003 0.643815C171.493 0.572889 171.992 0.563535 172.573 0.567532C172.82 0.891294 172.927 1.25637 173.159 1.50242C174.045 2.43969 174.981 3.32887 175.876 4.25804C176.125 4.51691 176.296 4.85161 176.434 5.22993C175.924 5.31346 175.483 5.31858 175.041 5.3237Z" fill="#ACABB7"/>
<path d="M79.6024 39.1858C79.569 38.6541 79.5931 38.2631 80.2796 38.4684C80.2796 39.7471 80.2796 41.0533 80.2796 42.4738C79.5123 42.4738 78.7255 42.5201 77.9468 42.4605C77.1959 42.4031 76.7235 41.9255 76.6674 41.1719C76.6105 40.4086 76.624 39.6355 76.6767 38.8716C76.69 38.6787 76.9702 38.5043 77.1278 38.3214C77.2153 38.3726 77.3028 38.4238 77.3903 38.4749C77.3903 39.2355 77.4177 39.9974 77.3829 40.7564C77.3456 41.5687 77.8769 41.8877 78.5017 41.8882C79.1339 41.8888 79.6573 41.5496 79.6079 40.7456C79.5778 40.2562 79.6023 39.7635 79.6024 39.1858Z" fill="white"/>
<path d="M165.787 42.3544C165.214 42.3644 164.704 42.4859 164.202 42.4583C163.445 42.4167 162.968 41.9413 162.905 41.191C162.841 40.4284 162.86 39.6542 162.911 38.8897C162.924 38.6895 163.192 38.5064 163.344 38.3154C163.438 38.3638 163.532 38.4123 163.626 38.4607C163.626 39.2205 163.653 39.9816 163.618 40.7399C163.582 41.5407 164.085 41.8891 164.721 41.8885C165.345 41.8879 165.882 41.5741 165.845 40.7603C165.811 40.0266 165.838 39.29 165.838 38.5184C166.315 38.3278 166.59 38.3432 166.579 38.9602C166.559 40.0937 166.574 41.2279 166.574 42.454C166.299 42.4331 166.077 42.4161 165.787 42.3544Z" fill="white"/>
<path d="M82.7667 38.4128C84.1229 38.2691 84.8336 38.8796 84.9377 40.4081C84.9813 41.0489 84.9449 41.6953 84.9449 42.3788C84.4568 42.5584 84.179 42.5226 84.2042 41.9175C84.2273 41.3646 84.2441 40.807 84.1997 40.2567C84.1287 39.3761 83.3576 38.8409 82.5794 39.164C82.3297 39.2677 82.0546 39.6169 82.0232 39.8814C81.944 40.549 82.0324 41.2352 81.9768 41.9076C81.958 42.1348 81.7083 42.3429 81.5641 42.5597C81.4791 42.5139 81.3942 42.4681 81.3092 42.4223C81.3092 41.1108 81.3092 39.7994 81.3092 38.5051C81.7777 38.4738 82.2324 38.4433 82.7667 38.4128Z" fill="white"/>
<path d="M148.765 34.6173C148.718 33.263 148.718 31.9798 148.718 30.6424C149.843 30.9662 151.268 30.0323 151.929 31.3045C152.413 32.2367 152.366 33.4468 152.553 34.5234C151.927 34.7997 151.623 34.826 151.646 34.1827C151.665 33.6297 151.681 33.0732 151.641 32.5224C151.577 31.6341 150.819 31.0859 150.041 31.3992C149.787 31.5014 149.495 31.8417 149.465 32.1013C149.385 32.7996 149.414 33.514 149.445 34.2201C149.467 34.7396 149.194 34.7649 148.765 34.6173Z" fill="white"/>
<path d="M107.241 32.9157C107.241 33.5228 107.241 34.0445 107.241 34.5983C106.782 34.7999 106.478 34.8245 106.501 34.1822C106.521 33.6293 106.537 33.0728 106.497 32.5221C106.432 31.634 105.674 31.0859 104.896 31.3993C104.643 31.5015 104.343 31.8447 104.32 32.1007C104.247 32.9222 104.293 33.7544 104.293 34.6214C103.805 34.8026 103.539 34.7685 103.551 34.1623C103.572 33.0273 103.557 31.8915 103.557 30.7579C104.056 30.7218 104.505 30.6862 104.955 30.6573C106.544 30.555 107.12 31.1036 107.241 32.9157Z" fill="white"/>
<path d="M131.012 39.727C131.012 39.2442 131.012 38.8503 131.012 38.5027C131.555 38.4693 132.015 38.4462 132.475 38.4119C133.975 38.2999 134.567 38.8708 134.69 40.4667C134.728 40.9557 134.743 41.4567 134.675 41.939C134.644 42.1596 134.386 42.3481 134.231 42.5512C134.14 42.5 134.05 42.4488 133.96 42.3976C133.96 41.7271 133.981 41.0558 133.955 40.3863C133.915 39.3871 133.135 38.8048 132.278 39.166C132.048 39.2628 131.791 39.5968 131.772 39.8391C131.71 40.6631 131.748 41.4948 131.748 42.3556C131.286 42.5572 130.989 42.5755 131.007 41.9371C131.028 41.2306 131.012 40.523 131.012 39.727Z" fill="white"/>
<path d="M141.388 38.4134C142.92 38.2375 143.711 38.872 143.725 40.7101C143.728 41.1409 143.773 41.5797 143.704 41.999C143.669 42.2079 143.419 42.3809 143.267 42.5701C143.174 42.521 143.081 42.4719 142.989 42.4228C142.989 41.7229 143.018 41.0214 142.981 40.3234C142.933 39.3812 142.161 38.8285 141.333 39.1633C141.099 39.2579 140.827 39.5752 140.802 39.8137C140.732 40.5143 140.812 41.2294 140.756 41.9326C140.739 42.1481 140.474 42.3438 140.322 42.5485C140.242 42.4994 140.162 42.4503 140.082 42.4012C140.082 41.0891 140.082 39.777 140.082 38.5086C140.512 38.4754 140.91 38.4447 141.388 38.4134Z" fill="white"/>
<path d="M157.257 5.55798C157.018 5.22559 156.916 4.85987 156.688 4.60815C155.682 3.49335 154.634 2.41542 153.614 1.31245C153.478 1.16501 153.413 0.950852 153.312 0.706006C153.748 0.630702 154.187 0.616984 154.706 0.624115C154.992 1.03833 155.128 1.49639 155.418 1.81276C156.245 2.71431 157.148 3.5451 157.99 4.4324C158.255 4.71132 158.425 5.0811 158.645 5.47431C158.213 5.55193 157.775 5.56453 157.257 5.55798Z" fill="white"/>
<path d="M12.8284 23.8386C12.6527 25.2553 12.4055 26.6585 12.0865 28.1014C10.9584 27.7051 10.7434 26.8032 10.7163 25.6513C10.8917 25.067 11.0723 24.6259 11.2529 24.1849C11.7542 24.065 12.2555 23.9451 12.8284 23.8386Z" fill="white"/>
<path d="M159.939 0.650672C160.316 0.63716 160.692 0.623648 161.149 0.692039C161.288 0.910488 161.314 1.07763 161.41 1.17893C162.642 2.48071 163.88 3.77644 165.129 5.06066C165.218 5.15162 165.411 5.14023 165.555 5.17643C165.424 5.31218 165.309 5.53747 165.158 5.56522C164.833 5.6249 164.49 5.58284 164.068 5.49763C162.816 4.12815 161.641 2.8509 160.49 1.55254C160.26 1.29326 160.12 0.953385 159.939 0.650672Z" fill="#ACABB7"/>
<path d="M159.861 0.630131C160.12 0.953385 160.26 1.29326 160.49 1.55254C161.641 2.8509 162.816 4.12815 163.988 5.47669C163.617 5.55449 163.239 5.56844 162.783 5.56133C162.46 5.20249 162.239 4.84397 161.966 4.53054C160.869 3.27035 159.757 2.0241 158.648 0.711233C159.025 0.636376 159.403 0.622983 159.861 0.630131Z" fill="white"/>
<path d="M180.581 12.0158C181.02 12.5443 181.438 13.0915 181.901 13.5968C182.538 14.2917 183.21 14.9549 183.893 15.6915C183.596 16.0005 183.272 16.2497 182.863 16.4547C182.341 15.9463 181.897 15.4877 181.468 15.0167C180.799 14.283 180.139 13.5408 179.526 12.766C179.912 12.4918 180.247 12.2538 180.581 12.0158Z" fill="#ACABB7"/>
<path d="M9.01852 3.98406C9.08168 3.61713 9.14769 3.32803 9.20456 2.9739C10.056 2.21178 10.9165 1.51471 11.777 0.817635C11.8453 0.888394 11.9136 0.959153 11.9819 1.02991C11.4655 1.75496 10.9292 2.46695 10.4436 3.21218C10.2754 3.47046 10.2477 3.81714 10.1286 4.11241C10.0348 4.34507 9.95536 4.64154 9.77208 4.76954C9.11371 5.22937 8.86917 5.70824 9.32467 6.48474C9.45907 6.71387 9.37337 7.28521 9.18229 7.43441C8.98737 7.58661 8.40356 7.533 8.2389 7.34753C8.07141 7.15887 8.06422 6.54823 8.23564 6.38531C8.92831 5.72695 9.04606 4.93212 9.01852 3.98406Z" fill="white"/>
<path d="M27.4646 12.5372C27.6757 13.0626 27.8868 13.5881 28.1338 14.203C28.8231 14.3215 29.6337 14.4609 30.5058 14.6892C30.4519 15.1908 30.3365 15.6034 30.221 16.016C29.8087 15.9268 29.3878 15.8656 28.9858 15.7424C28.1705 15.4926 27.4159 15.4327 26.7841 16.1687C26.9685 14.9157 27.2165 13.7265 27.4646 12.5372Z" fill="#ACABB7"/>
<path d="M135.809 5.78944C137.464 5.71558 139.154 5.69544 140.916 5.70683C140.215 6.47511 139.442 7.21185 138.751 7.87039C137.721 7.15236 136.782 6.49776 135.809 5.78944Z" fill="white"/>
<path d="M151.763 0.622135C151.951 0.94357 151.987 1.31566 152.189 1.533C153.44 2.87838 154.729 4.18895 156.064 5.53903C156.105 5.81632 156.087 6.06566 155.993 6.38175C154.76 5.3199 153.604 4.18838 152.441 3.0641C151.949 2.58864 151.442 2.12845 150.942 1.66132C150.942 1.35949 150.942 1.05765 150.942 0.648101C151.184 0.632915 151.435 0.617087 151.763 0.622135Z" fill="#ACABB7"/>
<path d="M169.888 21.0526C169.876 20.7347 169.864 20.4169 169.94 20.0228C170.191 20.0122 170.399 20.0345 170.512 20.15C171.702 21.3723 172.866 22.6202 174.065 23.8335C174.304 24.0746 174.66 24.199 174.961 24.3771C174.974 24.7527 174.986 25.1282 174.919 25.581C174.657 25.5626 174.437 25.5042 174.297 25.3653C173.45 24.5274 172.632 23.6607 171.784 22.8243C171.168 22.2172 170.521 21.642 169.888 21.0526Z" fill="#ACABB7"/>
<path d="M66.3327 34.7168C65.9812 34.4894 65.5663 34.3145 65.4547 34.023C65.0481 32.9609 64.7429 31.8599 64.3997 30.7743C64.8012 30.6912 64.8012 30.6912 66.2334 33.4218C66.5514 32.4817 66.8473 31.6071 67.156 30.6946C67.4057 30.6946 67.6702 30.6946 67.9654 30.6946C67.949 30.8135 67.9516 30.9005 67.9243 30.9769C67.522 32.1055 67.1209 33.2346 66.7035 34.3576C66.6525 34.4947 66.509 34.5972 66.3327 34.7168Z" fill="white"/>
<path d="M24.8001 26.6096C24.5681 28.3985 24.2611 30.1744 23.9539 32.027C23.5393 31.9113 23.125 31.7187 22.7115 31.4054C23.0031 29.7813 23.2938 28.278 23.5846 26.7748C23.9647 26.7153 24.3449 26.6559 24.8001 26.6096Z" fill="#ACABB7"/>
<path d="M36.4796 25.5052C35.8062 24.8451 35.2201 25.6415 34.5202 25.5278C34.7008 24.1118 34.9461 22.7873 35.1914 21.4627C36.4005 21.8624 36.5336 22.8627 36.6137 24.0494C36.6056 24.6187 36.5426 25.062 36.4796 25.5052Z" fill="white"/>
<path d="M122.156 42.1306C121.051 42.7131 120.341 42.6096 119.667 41.6024C119.898 41.6278 120.132 41.6416 120.36 41.6836C120.474 41.7047 120.597 41.8402 120.685 41.8152C121.011 41.7229 121.325 41.5852 121.644 41.4645C121.453 41.2472 121.299 40.9034 121.064 40.8338C119.846 40.4723 119.563 40.2147 119.8 39.2861C119.884 38.9592 120.24 38.5024 120.517 38.4677C121.047 38.4013 121.612 38.5814 122.152 38.7063C122.196 38.7166 122.158 39.0863 122.158 39.3915C121.844 39.2467 121.622 39.0516 121.432 39.078C121.125 39.1206 120.838 39.3095 120.543 39.4365C120.7 39.6451 120.835 39.8757 121.021 40.0532C121.116 40.1435 121.304 40.1287 121.445 40.1778C122.54 40.5604 122.72 41.0259 122.156 42.1306Z" fill="white"/>
<path d="M130.916 34.718C130.537 34.5462 130.235 34.3746 129.932 34.203C129.95 34.097 129.968 33.991 129.986 33.885C130.229 33.9028 130.475 33.9013 130.713 33.9455C130.855 33.9719 131.015 34.1554 131.112 34.1197C131.415 34.0092 131.692 33.8276 131.979 33.6735C131.8 33.4683 131.652 33.1313 131.437 33.0815C130.652 32.8994 129.884 32.7235 130.115 31.6746C130.194 31.3124 130.505 30.787 130.788 30.7305C131.308 30.6268 131.891 30.7956 132.436 30.9105C132.496 30.9231 132.474 31.3247 132.499 31.6702C132.108 31.4729 131.856 31.2348 131.64 31.2642C131.36 31.3023 131.109 31.5534 130.845 31.7129C130.991 31.9015 131.112 32.12 131.291 32.2687C131.419 32.3746 131.62 32.4073 131.795 32.437C132.459 32.55 132.894 32.9997 132.807 33.6034C132.712 34.2605 132.311 34.8445 131.45 34.7213C131.3 34.6999 131.145 34.7183 130.916 34.718Z" fill="white"/>
<path d="M155.061 40.3006C155.776 41.0871 155.824 41.6781 155.277 42.2206C154.795 42.6994 153.441 42.5143 152.835 41.6447C153.076 41.6609 153.321 41.6575 153.558 41.7005C153.7 41.7263 153.859 41.9099 153.958 41.8745C154.261 41.7655 154.539 41.5852 154.826 41.4326C154.649 41.2265 154.502 40.8884 154.288 40.838C153.506 40.6539 152.732 40.484 152.963 39.4322C153.043 39.0697 153.353 38.5435 153.636 38.4871C154.157 38.3833 154.74 38.5513 155.284 38.6675C155.346 38.6807 155.323 39.0897 155.347 39.4268C154.956 39.2292 154.704 38.9904 154.488 39.0201C154.208 39.0585 153.957 39.3105 153.693 39.4706C153.84 39.6592 153.951 39.9116 154.142 40.0204C154.393 40.1629 154.709 40.1921 155.061 40.3006Z" fill="white"/>
<path d="M185.989 38.4151C186.532 38.6016 186.77 38.8566 186.326 39.3454C186.114 39.2391 185.881 39.0187 185.696 39.0532C185.391 39.1102 185.116 39.332 184.828 39.4843C184.981 39.6706 185.101 39.9104 185.295 40.0292C185.516 40.164 185.878 40.1143 186.043 40.2804C186.357 40.5966 186.793 41.0192 186.777 41.3792C186.755 41.8534 186.473 42.4498 185.79 42.4668C185.108 42.4838 184.356 42.6647 183.859 41.5969C184.202 41.63 184.434 41.6468 184.665 41.6763C184.971 41.7152 185.286 41.8318 185.576 41.7834C185.752 41.7539 186.011 41.4743 186.007 41.3119C186.004 41.1459 185.745 40.9554 185.56 40.8344C185.448 40.7614 185.26 40.8155 185.112 40.7865C184.283 40.6241 183.902 40.1212 184.09 39.2874C184.25 38.5803 184.762 38.3347 185.455 38.4103C185.607 38.4268 185.761 38.4131 185.989 38.4151Z" fill="white"/>
<path d="M92.6945 34.4608C92.6872 32.9106 92.6872 31.4467 92.6872 30.0778C92.2499 29.677 91.2994 30.3776 91.4158 29.2306C92.5527 29.2306 93.672 29.2306 94.791 29.2306C94.8461 29.8192 94.8461 29.8192 93.4212 30.0104C93.4212 30.7561 93.4212 31.516 93.4212 32.2758C93.4212 33.041 93.4212 33.8063 93.4212 34.7352C93.1388 34.6613 92.9203 34.6042 92.6945 34.4608Z" fill="white"/>
<path d="M156.054 8.60089C155.753 8.47283 155.435 8.29713 155.181 8.05491C153.801 6.73837 152.436 5.40542 151.004 4.07021C150.934 3.68463 150.924 3.30694 150.991 2.85734C151.756 3.46731 152.439 4.1573 153.14 4.82914C154.1 5.75037 155.073 6.65783 156.041 7.5712C156.049 7.88832 156.058 8.20544 156.054 8.60089Z" fill="#ACABB7"/>
<path d="M9.14247 29.1939C8.97529 30.4357 8.7358 31.6641 8.48707 32.9629C7.73259 32.7708 7.32352 32.2453 7.16588 31.4685C7.1069 31.1779 6.89117 30.9192 6.7692 30.5619C6.93218 30.0706 7.07288 29.6633 7.21357 29.2559C7.86066 29.9292 8.44496 29.0486 9.14247 29.1939Z" fill="white"/>
<path d="M176.511 38.7092C177.445 38.2833 178.297 38.2253 179.124 39.1156C178.869 39.1561 178.535 39.3202 178.372 39.2162C177.607 38.7287 177.089 39.1188 176.676 39.6743C176.295 40.1863 176.294 40.7697 176.734 41.2995C177.256 41.928 177.837 42.0886 178.527 41.5601C178.617 41.4908 178.74 41.4635 178.847 41.4168C179.197 42.0569 178.995 42.3793 178.187 42.4737C177.12 42.5985 176.164 42.1887 175.826 41.4615C175.401 40.5453 175.61 39.6551 176.511 38.7092Z" fill="white"/>
<path d="M101.176 30.6564C101.723 30.7588 102.192 30.8611 102.66 30.9635C102.656 31.1048 102.653 31.2461 102.649 31.3874C102.388 31.4134 102.055 31.5555 101.879 31.4452C101.099 30.9545 100.591 31.3921 100.19 31.938C99.8131 32.4504 99.8142 33.0427 100.282 33.5617C100.784 34.1187 101.319 34.3787 101.993 33.8184C102.096 33.7328 102.26 33.7216 102.632 33.8041C102.487 34.054 102.4 34.4415 102.189 34.5292C101.409 34.8526 100.598 34.9066 99.9068 34.2864C99.2558 33.7023 98.9981 33.0137 99.2985 32.1204C99.6004 31.2225 100.089 30.6418 101.176 30.6564Z" fill="white"/>
<path d="M89.1042 42.4715C87.6758 41.802 87.2811 40.9811 87.7148 39.7396C88.2144 38.3097 89.8031 37.9082 91.238 39.1039C90.7833 39.1631 90.4506 39.3163 90.2832 39.2094C89.5099 38.7157 89.0014 39.1358 88.5887 39.6828C88.199 40.1995 88.227 40.7922 88.667 41.305C89.151 41.869 89.6934 42.1395 90.3736 41.5826C90.4802 41.4952 90.6416 41.4751 91.0161 41.5465C90.8783 41.7999 90.7939 42.2037 90.5918 42.2757C90.1534 42.4317 89.6549 42.4181 89.1042 42.4715Z" fill="white"/>
<path d="M37.1012 19.5597C37.2199 18.1425 37.4043 16.7389 37.5884 15.2575C38.6398 15.6402 39.0057 16.51 38.9791 17.7075C38.7072 18.299 38.4761 18.7728 38.2449 19.2465C37.8856 19.3554 37.5263 19.4643 37.1012 19.5597Z" fill="white"/>
<path d="M165.438 14.7723C165.28 15.2059 165.923 15.859 164.989 16.02C164.531 15.505 164.17 15.0629 163.785 14.6434C162.755 13.5223 161.715 12.4109 160.679 11.2957C161.056 11.2859 161.433 11.2762 161.897 11.3427C163.135 12.5368 164.287 13.6545 165.438 14.7723Z" fill="#ACABB7"/>
<path d="M169.867 21.1325C170.521 21.642 171.168 22.2172 171.784 22.8243C172.632 23.6607 173.45 24.5274 174.297 25.3653C174.437 25.5042 174.657 25.5626 174.902 25.6599C174.86 25.7885 174.769 26.0095 174.651 26.0249C174.29 26.0719 173.92 26.0396 173.473 26.0245C172.562 24.5662 171.447 23.398 169.955 22.5299C169.874 22.0901 169.86 21.6513 169.867 21.1325Z" fill="#ACABB7"/>
<path d="M5.5752 22.3092C5.70982 21.131 5.88929 20 6.09833 18.7938C6.37208 19.214 6.81836 19.7123 6.81124 20.204C6.8015 20.8761 6.96282 21.3131 7.50613 21.7731C7.39782 22.4285 7.28523 22.9606 7.17264 23.4927C6.65511 23.1139 6.13757 22.7351 5.5752 22.3092Z" fill="white"/>
<path d="M30.9591 11.2035C29.9102 10.7997 29.5716 9.95216 29.6301 8.92569C29.6929 7.82353 30.2886 7.10925 31.4439 6.93113C31.3263 8.41543 31.1427 9.80945 30.9591 11.2035Z" fill="#ACABB7"/>
<path d="M165.578 5.0967C165.411 5.14023 165.218 5.15162 165.129 5.06066C163.88 3.77644 162.642 2.48071 161.41 1.17893C161.314 1.07763 161.288 0.910488 161.227 0.712698C161.602 0.637991 161.978 0.624528 162.436 0.691879C163.169 1.50625 163.799 2.26216 164.485 2.96297C164.783 3.26747 165.196 3.45868 165.557 3.70135C165.571 4.13989 165.585 4.57843 165.578 5.0967Z" fill="#ACABB7"/>
<path d="M179.475 12.8023C180.139 13.5408 180.799 14.283 181.468 15.0167C181.897 15.4877 182.341 15.9463 182.801 16.4751C182.496 16.7076 182.168 16.8753 181.776 17.0501C181.455 16.6944 181.232 16.3007 180.936 15.9747C180.101 15.0563 179.236 14.1657 178.437 13.186C178.819 13.006 179.147 12.9041 179.475 12.8023Z" fill="#ACABB7"/>
<path d="M156.054 7.49285C155.073 6.65783 154.1 5.75037 153.14 4.82914C152.439 4.1573 151.756 3.46731 151.004 2.77744C150.933 2.45223 150.924 2.13499 150.928 1.73954C151.442 2.12845 151.949 2.58864 152.441 3.0641C153.604 4.18838 154.76 5.3199 155.98 6.45585C156.05 6.7803 156.059 7.0974 156.054 7.49285Z" fill="#ACABB7"/>
<path d="M10.8907 37.2254C11.208 37.2032 11.5589 37.2607 11.836 37.1432C12.5483 36.8414 13.2212 37.0296 13.5257 37.6966C13.8623 38.4339 13.5214 39.2611 12.7535 39.5698C12.2715 39.7636 11.4626 39.3035 11.2421 38.7207C11.1527 38.4844 11.0375 38.2578 10.8952 37.8941C10.8679 37.5827 10.8793 37.404 10.8907 37.2254Z" fill="white"/>
<path d="M174.981 24.2995C174.66 24.199 174.304 24.0746 174.065 23.8335C172.866 22.6202 171.702 21.3723 170.512 20.15C170.399 20.0345 170.191 20.0122 169.96 19.9456C169.878 19.7466 169.864 19.5485 169.938 19.2792C170.417 19.4291 170.868 19.5851 171.186 19.8834C172.169 20.804 173.09 21.7916 174.062 22.7241C174.309 22.9609 174.659 23.0898 174.962 23.2683C174.975 23.5861 174.987 23.904 174.981 24.2995Z" fill="#ACABB7"/>
<path d="M25.6122 11.2777C25.8875 11.3725 26.1628 11.4673 26.4749 11.6799C26.2726 13.4457 26.0336 15.0936 25.7945 16.7414C25.4586 16.7604 25.1227 16.7793 24.731 16.6845C24.9876 14.8064 25.2999 13.0421 25.6122 11.2777Z" fill="#ACABB7"/>
<path d="M160.601 11.2816C161.715 12.4109 162.755 13.5223 163.785 14.6434C164.17 15.0629 164.531 15.505 164.91 16.0013C164.599 16.0784 164.282 16.0909 163.888 16.0848C163.609 15.7722 163.442 15.4458 163.2 15.1894C162.007 13.9224 160.794 12.6739 159.581 11.3573C159.89 11.2863 160.206 11.2769 160.601 11.2816Z" fill="#ACABB7"/>
<path d="M15.5458 21.9004C15.7148 20.6498 15.9491 19.4134 16.2116 18.1087C17.144 18.4176 17.5534 19.1255 17.4857 20.0743C17.4169 21.0373 16.8108 21.593 15.5458 21.9004Z" fill="white"/>
<path d="M174.956 12.744C174.45 12.3414 173.92 11.9658 173.443 11.5308C172.288 10.4763 171.158 9.39414 169.955 8.31673C169.879 7.99271 169.866 7.6751 169.872 7.2799C170.164 7.38318 170.472 7.52663 170.702 7.75126C171.822 8.84603 172.914 9.96936 174.033 11.0657C174.264 11.2922 174.565 11.4467 174.911 11.6852C174.979 11.7695 174.969 11.8029 174.929 11.8735C174.92 12.0583 174.94 12.2059 174.979 12.418C174.983 12.5697 174.969 12.6569 174.956 12.744Z" fill="#ACABB7"/>
<path d="M165.579 3.61904C165.196 3.45868 164.783 3.26747 164.485 2.96297C163.799 2.26216 163.169 1.50625 162.515 0.711378C163.13 0.636155 163.748 0.622249 164.453 0.682589C164.885 1.06369 165.229 1.37055 165.574 1.67741C165.583 2.29719 165.592 2.91697 165.579 3.61904Z" fill="#ACABB7"/>
<path d="M40.3278 10.2471C40.7505 10.3435 41.1732 10.44 41.621 10.6623C41.4613 11.9331 41.2765 13.0781 41.0917 14.2231C40.6167 14.2028 40.1416 14.1825 39.6784 14.0662C39.9028 12.7292 40.1153 11.4882 40.3278 10.2471Z" fill="white"/>
<path d="M31.0195 11.2465C31.1427 9.80945 31.3263 8.41543 31.5109 6.94156C31.8291 6.85383 32.1463 6.84594 32.5401 6.9375C32.4319 8.50803 32.2473 9.97911 32.0628 11.4502C31.7352 11.3966 31.4076 11.3431 31.0195 11.2465Z" fill="#ACABB7"/>
<path d="M154.413 32.5182C154.412 33.1295 154.457 33.6572 154.391 34.1707C154.362 34.3969 154.108 34.5941 153.956 34.8045C153.873 34.7537 153.789 34.7029 153.705 34.6521C153.705 33.5549 153.705 32.4577 153.705 31.3977C153.413 31.2301 153.181 31.0968 152.949 30.9635C153.163 30.8112 153.376 30.659 153.589 30.5067C153.545 30.4682 153.502 30.4297 153.458 30.3912C153.761 30.0558 154.022 29.6535 154.388 29.416C154.547 29.3131 155.237 29.0774 155.091 29.7753C155.045 29.999 154.599 30.1391 154.271 30.3619C154.66 30.6172 154.901 30.7747 155.141 30.9322C154.917 31.0707 154.692 31.2092 154.413 31.3817C154.413 31.6973 154.413 32.063 154.413 32.5182Z" fill="white"/>
<path d="M174.981 23.1904C174.659 23.0898 174.309 22.9609 174.062 22.7241C173.09 21.7916 172.169 20.804 171.186 19.8834C170.868 19.5851 170.417 19.4291 169.959 19.2071C169.877 18.8882 169.864 18.5702 169.871 18.1751C169.952 18.1068 170.032 18.0938 170.069 18.1276C171.207 19.148 172.33 20.1859 173.482 21.1906C173.897 21.5525 174.379 21.8364 174.896 22.1561C174.974 22.4751 174.987 22.7938 174.981 23.1904Z" fill="#ACABB7"/>
<path d="M23.5184 26.7724C23.2938 28.278 23.0031 29.7813 22.6841 31.3489C22.3547 30.7781 22.0535 30.1429 21.7765 29.3755C21.903 28.8101 22.0052 28.3769 22.1075 27.9436C22.5557 27.5524 23.0039 27.1612 23.5184 26.7724Z" fill="#ACABB7"/>
<path d="M13.4402 18.0036C13.3404 18.5134 13.2147 18.9672 13.0882 19.4925C12.2385 18.9925 11.3896 18.4211 10.5662 17.7492C10.7585 17.1764 10.9253 16.7041 11.092 16.2318C11.8661 16.8038 12.6402 17.3758 13.4402 18.0036Z" fill="white"/>
<path d="M33.3486 25.3072C32.4532 24.8683 32.0983 24.1368 32.2236 23.1663C32.3543 22.154 32.9106 21.519 33.9978 21.4048C33.8287 22.7632 33.5887 24.0352 33.3486 25.3072Z" fill="white"/>
<path d="M40.2551 10.2458C40.1153 11.4882 39.9028 12.7292 39.6325 14.0153C39.2443 13.602 38.8969 13.1545 38.5912 12.68C38.4587 12.4742 38.4123 12.2126 38.3389 11.8963C38.4689 11.4398 38.5868 11.0633 38.7046 10.6869C39.1972 10.5394 39.6898 10.392 40.2551 10.2458Z" fill="white"/>
<path d="M25.5378 11.2533C25.2999 13.0421 24.9876 14.8064 24.6656 16.6544C24.3935 16.6611 24.1309 16.5842 23.8208 16.3848C24.0789 14.6027 24.3844 12.9431 24.69 11.2835C24.9478 11.2653 25.2055 11.2472 25.5378 11.2533Z" fill="#ACABB7"/>
<path d="M176.523 13.2049C176.701 13.506 176.833 13.8495 177.065 14.1009C178.093 15.2153 179.149 16.3033 180.202 17.4632C179.947 17.589 179.684 17.6524 179.355 17.7067C178.832 17.1422 178.407 16.5582 177.915 16.0383C177.209 15.2924 176.447 14.5998 175.725 13.8684C175.585 13.7267 175.519 13.5114 175.495 13.2479C175.889 13.1788 176.206 13.1919 176.523 13.2049Z" fill="#ACABB7"/>
<path d="M10.7402 32.6982C10.8087 32.2444 10.9268 31.8334 11.0708 31.3509C11.9812 31.639 12.8658 31.9987 13.7683 32.4714C13.6649 33.02 13.5435 33.4557 13.4222 33.8914C12.5448 33.508 11.6673 33.1245 10.7402 32.6982Z" fill="white"/>
<path d="M25.8549 16.7402C26.0336 15.0936 26.2726 13.4457 26.52 11.725C26.8331 11.9068 27.1379 12.1615 27.4536 12.4767C27.2165 13.7265 26.9685 14.9157 26.7215 16.1849C26.4534 16.4229 26.1844 16.581 25.8549 16.7402Z" fill="#ACABB7"/>
<path d="M16.8691 32.0994C16.7572 33.4037 16.5795 34.7185 16.4025 36.1096C15.9939 35.6319 15.5845 35.0779 15.1397 34.4057C15.1704 33.8695 15.2366 33.4515 15.3028 33.0336C15.803 32.7257 16.3032 32.4178 16.8691 32.0994Z" fill="white"/>
<path d="M41.1635 14.226C41.2765 13.0781 41.4613 11.9331 41.6597 10.7095C41.9706 11.1133 42.2631 11.5986 42.5671 12.0766C42.7247 12.3244 42.9027 12.5591 43.1136 12.8543C42.9889 13.3306 42.8222 13.7522 42.5919 14.2072C42.0973 14.2368 41.6663 14.2329 41.1635 14.226Z" fill="white"/>
<path d="M33.3936 25.355C33.5887 24.0352 33.8287 22.7632 34.0701 21.4095C34.4054 21.3542 34.7394 21.3804 35.1324 21.4347C34.9461 22.7873 34.7008 24.1118 34.4551 25.5081C34.1161 25.5209 33.7773 25.4619 33.3936 25.355Z" fill="white"/>
<path d="M165.451 14.6911C164.287 13.6545 163.135 12.5368 161.976 11.3574C162.407 11.2862 162.844 11.2766 163.37 11.3433C164.118 12.0447 164.778 12.6698 165.438 13.295C165.446 13.7333 165.455 14.1715 165.451 14.6911Z" fill="#ACABB7"/>
<path d="M33.5561 7.38263C33.777 7.69739 34.1266 7.98851 34.1895 8.3323C34.2913 8.88893 34.5959 9.09801 35.1338 9.30383C35.0657 9.7837 34.9349 10.163 34.8042 10.5424C34.5758 10.4811 34.3473 10.4199 34.1453 10.3657C33.7864 10.6408 33.4402 10.906 33.0367 11.1122C33.1715 9.8296 33.3638 8.60611 33.5561 7.38263Z" fill="white"/>
<path d="M36.0332 15.103C35.8211 16.4168 35.5419 17.7359 35.2344 19.1154C34.9098 18.6137 34.6134 18.0516 34.3214 17.3632C34.4294 16.8021 34.5331 16.3673 34.6368 15.9325C35.0799 15.6578 35.523 15.3831 36.0332 15.103Z" fill="white"/>
<path d="M6.10945 34.3334C6.21326 34.39 6.32497 34.5067 6.41966 34.4941C7.54707 34.3448 8.29831 34.7614 8.56982 35.9599C8.40047 36.1897 8.25528 36.357 8.1101 36.5243C6.78011 36.825 6.71155 36.7749 6.2071 35.4154C6.13057 35.2091 5.90865 35.0571 5.74351 34.7697C5.85851 34.5508 5.98398 34.4421 6.10945 34.3334Z" fill="white"/>
<path d="M11.0626 16.1768C10.9253 16.7041 10.7585 17.1764 10.538 17.6933C9.88744 17.2289 9.29069 16.72 8.67205 16.1543C8.83537 15.6037 9.02058 15.1097 9.26909 14.6039C9.89932 15.1019 10.4662 15.6119 11.0626 16.1768Z" fill="white"/>
<path d="M7.17061 29.217C7.07288 29.6633 6.93218 30.0706 6.71678 30.5142C6.05027 30.1748 5.45846 29.7993 4.83394 29.3679C4.97261 28.5937 5.14399 27.8753 5.38272 27.153C5.42855 28.3078 6.39468 28.6461 7.17061 29.217Z" fill="white"/>
<path d="M112.954 33.2054C112.954 31.9866 112.931 30.8546 112.975 29.7252C112.983 29.5081 113.257 29.3014 113.517 28.9375C114.04 30.9847 113.112 32.8886 114.205 34.5578C113.178 34.8983 112.957 34.6796 112.954 33.2054Z" fill="white"/>
<path d="M173.324 42.0001C173.178 42.198 172.863 42.4894 172.809 42.4469C172.536 42.2327 172.146 41.9395 172.134 41.6596C172.069 40.1334 172.103 38.603 172.103 37.0375C172.583 36.8511 172.855 36.8713 172.845 37.4831C172.824 38.6771 172.81 39.8728 172.859 41.0651C172.871 41.3618 173.13 41.6485 173.324 42.0001Z" fill="white"/>
<path d="M18.4901 36.5454C18.6716 35.2284 18.9176 33.9108 19.1757 32.5175C20.6464 33.757 20.3854 35.4479 18.4901 36.5454Z" fill="#ACABB7"/>
<path d="M36.5096 25.5587C36.5426 25.062 36.6056 24.6187 36.6682 24.0998C37.3754 24.4345 38.0831 24.845 38.8322 25.3731C38.7484 25.9956 38.6231 26.5005 38.4977 27.0053C37.845 26.5409 37.1923 26.0765 36.5096 25.5587Z" fill="white"/>
<path d="M43.9586 8.54336C43.8545 8.72874 43.7135 8.85776 43.5139 9.02695C43.1995 8.99904 42.931 8.84358 42.6904 8.87884C41.8811 8.99746 41.4913 8.61357 41.4016 7.80647C41.5923 7.45513 41.7098 7.17949 41.8274 6.90385C42.8273 6.61107 43.1892 6.82494 43.4981 7.8243C43.5727 8.06588 43.7771 8.26718 43.9586 8.54336Z" fill="white"/>
<path d="M38.5179 27.0626C38.6231 26.5005 38.7484 25.9956 38.8752 25.4212C39.4718 25.8433 40.0669 26.335 40.6976 26.8779C40.6025 27.4856 40.4717 28.042 40.3231 28.68C39.7162 28.2145 39.1271 27.6672 38.5179 27.0626Z" fill="white"/>
<path d="M162.679 30.8038C162.534 31.0305 162.335 31.3385 162.214 31.3105C161.292 31.0971 161.087 31.6514 161.054 32.3572C161.019 33.0908 161.046 33.8274 161.046 34.9096C160.689 34.6046 160.343 34.4491 160.336 34.28C160.289 33.0917 160.311 31.9005 160.311 30.7294C161.142 30.7294 161.902 30.7294 162.679 30.8038Z" fill="white"/>
<path d="M33.5298 7.32606C33.3638 8.60611 33.1715 9.8296 32.9783 11.1294C32.7182 11.2975 32.4591 11.3893 32.1314 11.4656C32.2473 9.97911 32.4319 8.50803 32.6168 6.95827C32.9126 7.00957 33.2081 7.13953 33.5298 7.32606Z" fill="#ACABB7"/>
<path d="M61.5445 33.7649C61.5445 32.698 61.5445 31.7203 61.5445 30.7727C62.3459 30.731 63.0966 30.692 63.8473 30.653C63.8987 30.7371 63.9501 30.8212 64.0015 30.9053C63.7954 31.0362 63.5739 31.2974 63.3858 31.2751C62.6209 31.1843 62.339 31.6031 62.2914 32.2406C62.2437 32.8799 62.3181 33.529 62.26 34.1667C62.2397 34.3892 61.9839 34.5902 61.8356 34.801C61.7518 34.754 61.6679 34.707 61.584 34.66C61.5708 34.3914 61.5577 34.1227 61.5445 33.7649Z" fill="white"/>
<path d="M147.042 34.7136C146.863 34.5281 146.69 34.3439 146.687 34.1569C146.664 32.7492 146.656 31.3405 146.694 29.9334C146.7 29.7106 146.958 29.4945 147.1 29.2753C147.201 29.3192 147.302 29.3631 147.403 29.407C147.403 31.0821 147.408 32.7573 147.392 34.4322C147.391 34.5269 147.219 34.6199 147.042 34.7136Z" fill="white"/>
<path d="M24.6265 11.2804C24.3844 12.9431 24.0789 14.6027 23.7713 16.3364C23.5342 16.2157 23.2992 16.021 23.0725 15.705C23.3102 14.2737 23.5397 12.9636 23.7692 11.6534C24.0338 11.528 24.2983 11.4027 24.6265 11.2804Z" fill="#ACABB7"/>
<path d="M7.20456 23.5451C7.28523 22.9606 7.39782 22.4285 7.53948 21.8287C8.23295 22.22 8.89734 22.6789 9.53531 23.2208C9.34246 23.741 9.17601 24.1781 9.00956 24.6152C8.41854 24.2759 7.82751 23.9367 7.20456 23.5451Z" fill="white"/>
<path d="M19.8978 28.9588C19.1351 28.7598 18.3724 28.5608 17.5567 28.2438C17.5659 27.6943 17.6283 27.2628 17.6906 26.8313C18.4449 27.0482 19.1992 27.2652 20.0174 27.5809C20.0201 28.106 19.959 28.5324 19.8978 28.9588Z" fill="white"/>
<path d="M145.568 12.1882C146.764 12.1895 147.868 12.1902 148.972 12.1935C149.03 12.1937 149.087 12.2166 149.199 12.2405C149.199 13.2875 149.199 14.3458 149.199 15.4578C146.866 15.4578 144.522 15.4578 142.122 15.4578C142.122 14.413 142.122 13.3548 142.122 12.1882C143.232 12.1882 144.354 12.1882 145.568 12.1882ZM149.067 14.813C149.067 14.2298 149.046 13.6454 149.075 13.0637C149.102 12.5476 148.904 12.3566 148.385 12.3659C147.038 12.3899 145.69 12.3736 144.343 12.3736C142.16 12.3735 142.179 12.3731 142.239 14.6003C142.254 15.1641 142.435 15.3461 142.989 15.3381C144.765 15.3124 146.542 15.3419 148.318 15.3132C148.565 15.3092 148.81 15.0982 149.067 14.813Z" fill="white"/>
<path d="M34.5727 15.9054C34.5331 16.3673 34.4294 16.8021 34.298 17.2996C33.5707 17.1161 32.8712 16.87 32.1117 16.5219C32.1163 15.9852 32.1808 15.5505 32.2453 15.1158C32.9997 15.37 33.7542 15.6241 34.5727 15.9054Z" fill="white"/>
<path d="M23.7078 11.6621C23.5397 12.9636 23.3102 14.2737 23.0521 15.6502C21.9898 14.3385 22.2102 12.9073 23.7078 11.6621Z" fill="#ACABB7"/>
<path d="M37.5898 6.27585C37.1428 6.12691 36.5572 6.09822 36.2921 5.79138C36.0761 5.54126 36.0675 4.79257 36.283 4.56281C36.5905 4.23507 37.1868 4.17955 37.716 4.12319C37.7115 4.91769 37.6507 5.59677 37.5898 6.27585Z" fill="white"/>
<path d="M38.6803 10.6278C38.5868 11.0633 38.4689 11.4398 38.281 11.8535C37.6581 11.6769 37.1052 11.463 36.5309 11.1359C36.5712 10.5866 36.6329 10.1505 36.6947 9.71442C37.3485 9.99918 38.0022 10.284 38.6803 10.6278Z" fill="white"/>
<path d="M9.04755 24.6627C9.17601 24.1781 9.34246 23.741 9.5726 23.2729C10.1503 23.5223 10.6642 23.8026 11.2156 24.1339C11.0723 24.6259 10.8917 25.067 10.704 25.5749C10.1598 25.3313 9.62267 25.0208 9.04755 24.6627Z" fill="white"/>
<path d="M129.905 41.1647C129.905 41.6182 129.905 41.982 129.905 42.3852C129.417 42.5519 129.151 42.5201 129.163 41.9195C129.186 40.7321 129.17 39.544 129.17 38.3153C129.659 38.1519 129.931 38.1863 129.911 38.7852C129.886 39.5477 129.905 40.3116 129.905 41.1647Z" fill="white"/>
<path d="M174.13 40.0793C174.13 39.4424 174.13 38.8963 174.13 38.31C174.628 38.1534 174.885 38.2004 174.873 38.7921C174.848 39.9787 174.866 41.1662 174.866 42.393C174.366 42.5497 174.096 42.5009 174.124 41.9096C174.151 41.3309 174.13 40.7499 174.13 40.0793Z" fill="white"/>
<path d="M86.7877 40.6235C86.7877 41.2603 86.7877 41.8064 86.7877 42.3927C86.2894 42.5493 86.032 42.5023 86.0444 41.9106C86.0693 40.724 86.0518 39.5365 86.0518 38.3097C86.5514 38.153 86.8218 38.2017 86.7935 38.7931C86.7659 39.3718 86.7877 39.9528 86.7877 40.6235Z" fill="white"/>
<path d="M124.194 31.7817C124.194 31.3282 124.194 30.9644 124.194 30.5611C124.682 30.3945 124.948 30.4262 124.937 31.0269C124.914 32.2143 124.93 33.4024 124.93 34.631C124.44 34.7945 124.168 34.76 124.188 34.1612C124.214 33.3987 124.194 32.6348 124.194 31.7817Z" fill="white"/>
<path d="M68.5465 31.9614C68.5465 31.4471 68.5465 31.0227 68.5465 30.5572C69.0383 30.3965 69.3012 30.434 69.2894 31.0306C69.2659 32.2177 69.2824 33.4056 69.2824 34.6344C68.7891 34.7929 68.5181 34.7529 68.5406 34.1577C68.5671 33.4565 68.5466 32.7535 68.5465 31.9614Z" fill="white"/>
<path d="M39.3887 2.42378C39.1093 2.44321 38.824 2.43352 38.5516 2.48806C37.9635 2.6058 37.5157 2.37376 37.4743 1.81484C37.4494 1.47879 37.7021 0.944885 37.9824 0.80371C38.4326 0.576953 38.9361 0.711567 39.1313 1.34153C39.2146 1.6105 39.409 1.8449 39.5588 2.2001C39.506 2.34471 39.4474 2.38425 39.3887 2.42378Z" fill="white"/>
<path d="M10.4974 41.2093C10.6645 41.1687 10.8362 41.1415 10.9977 41.0851C11.5683 40.8858 12.0145 40.9741 12.2233 41.6074C12.4231 42.2136 12.1667 42.6717 11.6049 42.8098C11.0096 42.9562 10.6455 42.5835 10.548 41.9795C10.5336 41.8901 10.5317 41.7987 10.5114 41.5787C10.4984 41.3693 10.4979 41.2893 10.4974 41.2093Z" fill="white"/>
<path d="M32.1951 15.0742C32.1808 15.5505 32.1163 15.9852 32.0464 16.4928C31.4774 16.4 30.9138 16.2343 30.2856 16.0423C30.3365 15.6034 30.4519 15.1908 30.5778 14.7145C31.1071 14.7781 31.626 14.9053 32.1951 15.0742Z" fill="#ACABB7"/>
<path d="M41.8034 19.486C41.7483 19.962 41.6549 20.3879 41.4971 20.8481C40.9791 20.5931 40.5255 20.3039 40.0387 19.8992C40.1312 19.3849 40.257 18.9861 40.3827 18.5872C40.8435 18.8701 41.3043 19.1529 41.8034 19.486Z" fill="white"/>
<path d="M37.6626 6.27996C37.6507 5.59677 37.7115 4.91769 37.7703 4.16071C37.9372 4.2014 38.2351 4.30242 38.254 4.44143C38.3788 5.36174 39.1959 5.50466 39.8048 6.03451C39.8125 6.32998 39.8066 6.48803 39.8006 6.64607C39.1157 6.50527 38.5498 5.6825 37.6626 6.27996Z" fill="white"/>
<path d="M15.2549 32.9913C15.2366 33.4515 15.1704 33.8695 15.0906 34.3668C14.5614 34.2837 14.0458 34.1214 13.4762 33.9252C13.5435 33.4557 13.6649 33.02 13.8147 32.5154C14.2978 32.6141 14.7524 32.7816 15.2549 32.9913Z" fill="white"/>
<path d="M165.451 13.2104C164.778 12.6698 164.118 12.0447 163.451 11.358C164.074 11.2965 164.705 11.2965 165.464 11.2965C165.464 11.8912 165.464 12.5085 165.451 13.2104Z" fill="white"/>
<path d="M40.3382 18.5454C40.257 18.9861 40.1312 19.3849 39.9987 19.8521C39.4416 19.7293 38.8914 19.538 38.293 19.2966C38.4761 18.7728 38.7072 18.299 38.9872 17.7817C39.4552 17.9933 39.8744 18.2484 40.3382 18.5454Z" fill="white"/>
<path d="M14.8193 27.5266C14.8421 26.819 14.9328 26.0929 15.0813 25.327C15.2597 25.8309 15.5997 26.1603 16.1712 26.4247C16.1531 26.9824 16.0924 27.4203 16.0318 27.8582C15.6503 27.7415 15.2687 27.6248 14.8193 27.5266Z" fill="white"/>
<path d="M36.6449 9.67224C36.6329 10.1505 36.5712 10.5866 36.4801 11.1C35.9304 10.9993 35.4099 10.8215 34.8469 10.593C34.9349 10.163 35.0657 9.7837 35.1964 9.33228C35.6626 9.38347 36.1288 9.50676 36.6449 9.67224Z" fill="white"/>
<path d="M8.15801 36.5692C8.25528 36.357 8.40047 36.1897 8.60619 36.0157C9.37904 36.3861 10.0913 36.7632 10.8472 37.1828C10.8793 37.404 10.8679 37.5827 10.8476 37.8503C9.96118 37.4976 9.08356 37.0558 8.15801 36.5692Z" fill="white"/>
<path d="M16.0979 27.8787C16.0924 27.4203 16.1531 26.9824 16.2165 26.4703C16.6675 26.5215 17.1156 26.6469 17.6272 26.8018C17.6283 27.2628 17.5659 27.6943 17.5033 28.2016C17.0566 28.1513 16.6102 28.0252 16.0979 27.8787Z" fill="white"/>
<path d="M39.8311 6.70077C39.8066 6.48803 39.8125 6.32998 39.8274 6.0933C40.4556 6.30172 41.0748 6.58878 41.7607 6.88984C41.7098 7.17949 41.5923 7.45513 41.4162 7.74311C40.8589 7.42212 40.3602 7.08879 39.8311 6.70077Z" fill="white"/>
<path d="M6.07994 34.2784C5.98398 34.4421 5.85851 34.5508 5.70694 34.7176C5.09682 34.3002 4.51282 33.8247 3.89932 33.2951C3.98936 33.0962 4.10889 32.9512 4.2331 32.747C4.84201 33.1996 5.44622 33.7115 6.07994 34.2784Z" fill="white"/>
<path d="M179.584 30.0535C179.392 29.9533 179.258 29.8198 179.124 29.6864C179.323 29.5189 179.508 29.2336 179.724 29.2072C180.265 29.1412 180.821 29.1757 181.367 29.2117C181.475 29.2188 181.646 29.4101 181.651 29.5229C181.657 29.6539 181.529 29.894 181.432 29.909C181.074 29.9645 180.704 29.941 180.339 29.958C180.107 29.9689 179.875 29.9988 179.584 30.0535Z" fill="white"/>
<path d="M101.195 37.7282C100.974 37.6796 100.8 37.5833 100.626 37.487C100.811 37.3054 100.982 36.9897 101.184 36.9679C101.753 36.9066 102.336 36.9504 102.911 36.9933C103.008 37.0005 103.142 37.2016 103.161 37.3278C103.176 37.4319 103.061 37.6459 102.979 37.6589C102.616 37.7168 102.245 37.7315 101.876 37.7384C101.665 37.7424 101.454 37.7013 101.195 37.7282Z" fill="white"/>
<path d="M19.965 28.9808C19.959 28.5324 20.0201 28.106 20.0822 27.6077C20.4088 27.5911 20.7346 27.6465 21.1117 27.8031C21.1097 28.3216 21.0561 28.739 21.0026 29.1564C20.6791 29.1052 20.3556 29.054 19.965 28.9808Z" fill="#ACABB7"/>
<path d="M21.0623 29.18C21.0561 28.739 21.1097 28.3216 21.175 27.8366C21.4497 27.8186 21.7126 27.8682 22.0415 27.9307C22.0052 28.3769 21.903 28.8101 21.7709 29.3036C21.5347 29.3104 21.3284 29.257 21.0623 29.18Z" fill="#ACABB7"/>
<path d="M5.88835 37.3201C5.29796 36.5525 4.70755 35.785 4.13858 34.9315C4.20377 34.8016 4.23384 34.7495 4.25024 34.6895C4.83422 35.4652 5.4182 36.2409 5.98862 37.0959C5.93286 37.2155 5.90395 37.2638 5.88835 37.3201Z" fill="white"/>
<path d="M10.4602 41.1591C10.4979 41.2893 10.4984 41.3693 10.4961 41.5091C9.78729 41.0351 9.08136 40.5011 8.35791 39.8808C8.37909 39.749 8.42683 39.7173 8.48361 39.6991C9.13008 40.1691 9.77654 40.639 10.4602 41.1591Z" fill="white"/>
<path d="M39.4241 2.47597C39.4474 2.38425 39.506 2.34471 39.5914 2.25885C40.2651 2.7418 40.9121 3.27107 41.5766 3.8867C41.5555 4.01775 41.5082 4.04943 41.4522 4.0681C40.7879 3.55479 40.1236 3.04148 39.4241 2.47597Z" fill="white"/>
<path d="M165.597 1.6011C165.229 1.37055 164.885 1.06369 164.536 0.695272C164.855 0.615768 165.178 0.597826 165.62 0.573243C165.62 0.943624 165.62 1.23421 165.597 1.6011Z" fill="#ACABB7"/>
<path d="M8.45564 39.6442C8.42683 39.7173 8.37909 39.749 8.31948 39.8326C7.7169 39.294 7.13525 38.7173 6.5536 38.1406C6.62489 38.0671 6.69618 37.9936 6.76747 37.9202C7.32087 38.4765 7.87427 39.0329 8.45564 39.6442Z" fill="white"/>
<path d="M43.854 6.46891C43.4008 6.13282 42.9476 5.79673 42.4944 5.46063C42.6307 5.32159 42.767 5.18255 42.9033 5.04351C43.2588 5.41812 43.6142 5.79272 43.9535 6.24794C43.8958 6.36704 43.868 6.41383 43.854 6.46891Z" fill="white"/>
<path d="M41.482 4.12114C41.5082 4.04943 41.5555 4.01775 41.615 3.93519C41.8927 4.13125 42.1496 4.36519 42.4115 4.67867C42.4164 4.75821 42.3629 4.82238 42.3629 4.82238C42.0792 4.60631 41.7955 4.39024 41.482 4.12114Z" fill="white"/>
<path d="M5.90438 37.3843C5.90395 37.2638 5.93286 37.2155 6.01114 37.1526C6.25774 37.355 6.46826 37.5799 6.67879 37.8049C6.62495 37.8622 6.57112 37.9196 6.51729 37.977C6.31832 37.8008 6.11936 37.6246 5.90438 37.3843Z" fill="white"/>
<path d="M157.891 0.721442C157.749 0.716543 157.607 0.711643 157.422 0.675272C157.512 0.629946 157.646 0.616091 157.84 0.641236C157.9 0.680235 157.891 0.721442 157.891 0.721442Z" fill="white"/>
<path d="M42.4442 4.72707C42.5513 4.79745 42.6304 4.89896 42.7096 5.00048C42.614 4.98069 42.5184 4.96089 42.3928 4.88174C42.3629 4.82238 42.4164 4.75821 42.4442 4.72707Z" fill="white"/>
<path d="M4.23956 34.6457C4.23384 34.7495 4.20377 34.8016 4.12242 34.8712C4.04429 34.8475 4.00375 34.7984 3.94452 34.7054C3.95093 34.635 3.97602 34.6084 4.04156 34.5445C4.14678 34.5142 4.19574 34.5457 4.23956 34.6457Z" fill="white"/>
<path d="M157.942 0.731092C157.891 0.721442 157.9 0.680235 157.905 0.659774C157.992 0.626175 158.073 0.613037 158.214 0.621565C158.179 0.675735 158.086 0.708238 157.942 0.731092Z" fill="#ACABB7"/>
<path d="M43.8581 6.49553C43.868 6.41383 43.8958 6.36704 43.9725 6.3066C44.0074 6.28464 44.0639 6.34336 44.0742 6.38281C44.0554 6.44701 44.0262 6.47176 43.9489 6.52816C43.9007 6.55982 43.8622 6.52215 43.8581 6.49553Z" fill="white"/>
<path d="M0.84641 25.6234C0.830462 25.6416 0.821287 25.5821 0.821287 25.5821C0.821287 25.5821 0.862358 25.6053 0.84641 25.6234Z" fill="#ACABB7"/>
<path d="M3.43586 33.0121C3.38623 33.0215 3.36719 32.999 3.34815 32.9766C3.38758 32.9778 3.42701 32.979 3.43586 33.0121Z" fill="#ACABB7"/>
<path d="M39.7472 40.3891C39.938 40.2011 40.1289 40.0131 40.372 39.7965C40.4493 39.7933 40.4743 39.8189 40.535 39.8846C40.3788 40.1199 40.187 40.315 39.911 40.4944C39.8003 40.4489 39.7737 40.419 39.7472 40.3891Z" fill="#ACABB7"/>
<path d="M46.0834 9.9602C46.1636 10.0296 46.1961 10.1482 46.2287 10.2669C46.1601 10.2438 46.0916 10.2206 45.9869 10.1574C45.9791 10.0813 46.0074 10.0454 46.0834 9.9602Z" fill="#ACABB7"/>
<path d="M39.6798 40.7133C39.6165 40.7335 39.5533 40.7537 39.49 40.7739C39.4968 40.73 39.5037 40.6862 39.5776 40.6535C39.6446 40.6647 39.6798 40.7133 39.6798 40.7133Z" fill="#ACABB7"/>
<path d="M39.8619 40.5274C39.8588 40.6209 39.8138 40.6574 39.7209 40.6995C39.6798 40.7133 39.6446 40.6647 39.6258 40.6413C39.6265 40.5584 39.646 40.4988 39.7063 40.4142C39.7737 40.419 39.8003 40.4489 39.8619 40.5274Z" fill="#ACABB7"/>
<path d="M174.929 11.8735C174.973 11.9667 174.988 12.0971 174.981 12.2905C174.94 12.2059 174.92 12.0583 174.929 11.8735Z" fill="#ACABB7"/>
<path d="M149.061 14.898C148.81 15.0982 148.565 15.3092 148.318 15.3132C146.542 15.3419 144.765 15.3124 142.989 15.3381C142.435 15.3461 142.254 15.1641 142.239 14.6003C142.179 12.3731 142.16 12.3735 144.343 12.3736C145.69 12.3736 147.038 12.3899 148.385 12.3659C148.904 12.3566 149.102 12.5476 149.075 13.0637C149.046 13.6454 149.067 14.2298 149.061 14.898Z" fill="white"/>
</g>
</svg>
