<svg width="66" height="22" viewBox="0 0 66 22" fill="none" xmlns="http://www.w3.org/2000/svg">
<g id="pitch-logo-svg-150px" clip-path="url(#clip0_67_53)">
<path id="Vector" d="M44.87 16.521C44.3429 17.245 43.5874 17.7884 42.714 18.0719C41.8406 18.3553 40.8953 18.3638 40.0165 18.0962C39.1377 17.8285 38.3716 17.2987 37.8304 16.5845C37.2891 15.8702 37.0012 15.0089 37.0088 14.1267C37.0163 13.2446 37.319 12.3879 37.8724 11.6822C38.4258 10.9765 39.2009 10.4589 40.0842 10.205C40.9675 9.95118 41.9125 9.97453 42.7809 10.2716C43.6493 10.5687 44.3954 11.124 44.91 11.8561L48.101 10.054C47.1719 8.65188 45.7922 7.57593 44.1693 6.98774C42.5463 6.39956 40.7677 6.33088 39.1005 6.79202C37.4332 7.25316 35.9674 8.21923 34.9231 9.54516C33.8789 10.8711 33.3125 12.4853 33.309 14.1453C33.3056 15.8054 33.8653 17.4217 34.9041 18.7516C35.9429 20.0815 37.4048 21.0531 39.0701 21.5205C40.7354 21.9879 42.5143 21.926 44.1396 21.3439C45.765 20.7619 47.1491 19.6911 48.084 18.2925L44.871 16.521H44.87ZM53.662 0H49.96V21.2405H53.66V14.1603C53.66 13.0649 54.1149 12.0144 54.9247 11.2398C55.7345 10.4652 56.8328 10.0301 57.978 10.0301C59.1232 10.0301 60.2215 10.4652 61.0313 11.2398C61.8411 12.0144 62.296 13.0649 62.296 14.1603V21.2405H65.997V13.4717C65.9965 12.1052 65.5768 10.7689 64.7899 9.62836C64.0031 8.48783 62.8837 7.59321 61.5704 7.05535C60.2571 6.51748 58.8077 6.36002 57.4018 6.60247C55.9959 6.84492 54.6952 7.47662 53.661 8.4193V0H53.662ZM27.756 0H24.055V16.5201C24.0549 17.5396 24.3616 18.5377 24.9386 19.3949C25.5155 20.2522 26.3383 20.9324 27.3087 21.3544C28.279 21.7764 29.3558 21.9222 30.4104 21.7744C31.4651 21.6267 32.4529 21.1916 33.256 20.5212L31.468 17.6191C31.2949 17.8284 31.0746 17.9974 30.8234 18.1135C30.5723 18.2297 30.2969 18.2899 30.018 18.2897H29.606C29.1154 18.2894 28.645 18.1029 28.2981 17.7711C27.9513 17.4393 27.7563 16.9893 27.756 16.5201V10.6203H31.456V7.08017H27.756V0ZM19.74 0C19.1947 0 18.6718 0.207196 18.2862 0.576006C17.9006 0.944817 17.684 1.44503 17.684 1.96661C17.684 2.48819 17.9006 2.9884 18.2862 3.35721C18.6718 3.72602 19.1947 3.93322 19.74 3.93322C20.2853 3.93322 20.8082 3.72602 21.1938 3.35721C21.5794 2.9884 21.796 2.48819 21.796 1.96661C21.796 1.44503 21.5794 0.944817 21.1938 0.576006C20.8082 0.207196 20.2853 0 19.74 0V0ZM21.59 21.2405V7.08017H17.89V21.2405H21.59Z" fill="white"/>
<path id="Vector_2" fill-rule="evenodd" clip-rule="evenodd" d="M0 21.2405H3.7V17.1103H7.093C8.26754 17.1103 9.43058 16.889 10.5157 16.459C11.6009 16.0291 12.5868 15.3989 13.4174 14.6045C14.2479 13.8101 14.9067 12.867 15.3562 11.829C15.8057 10.7911 16.037 9.67861 16.037 8.55513C16.037 7.43165 15.8057 6.31918 15.3562 5.28122C14.9067 4.24327 14.2479 3.30016 13.4174 2.50574C12.5868 1.71132 11.6009 1.08116 10.5157 0.65122C9.43058 0.221285 8.26754 -2.36755e-08 7.093 0L0 0V21.2405ZM3.7 3.53913H7.093C8.48353 3.53913 9.81711 4.0675 10.8004 5.008C11.7836 5.94851 12.336 7.2241 12.336 8.55417C12.336 9.88425 11.7836 11.1598 10.8004 12.1003C9.81711 13.0408 8.48353 13.5692 7.093 13.5692H3.701V3.53913H3.7Z" fill="white"/>
</g>
<defs>
<clipPath id="clip0_67_53">
<rect width="66" height="22" fill="white"/>
</clipPath>
</defs>
</svg>
