<svg width="61" height="20" viewBox="0 0 61 20" fill="none" xmlns="http://www.w3.org/2000/svg">
<g id="Calque 2">
<g id="Calque 1">
<g id="Group-12">
<g id="Group-3">
<g id="Group">
<path id="Fill-1" fill-rule="evenodd" clip-rule="evenodd" d="M5.65818 13.0531C4.02687 13.0531 2.83907 11.7904 2.83907 9.95811C2.83907 8.12581 4.02687 6.88295 5.65818 6.88295C7.28949 6.88295 8.49724 8.14561 8.49724 9.95811C8.49724 11.7706 7.30944 13.0531 5.65818 13.0531ZM8.39596 4.92727C8.38747 5.23245 8.40081 5.53784 8.43586 5.84114H8.35606C7.82661 4.94859 6.56361 4.39875 5.17477 4.39875C2.17457 4.39875 0 6.7017 0 9.99771C0 13.2937 2.09324 15.5982 5.05354 15.5982C6.58817 15.5982 7.8926 14.9661 8.5571 13.8466H8.63843C8.60701 14.1645 8.59216 14.4838 8.59393 14.8031V15.2723H11.1721V0H8.39596V4.92727Z" fill="white"/>
</g>
</g>
<path id="Fill-4" fill-rule="evenodd" clip-rule="evenodd" d="M17.8017 13.0729C16.1719 13.0729 15.0394 11.7904 15.0394 9.95811C15.0394 8.1258 16.1673 6.88294 17.8017 6.88294C19.4361 6.88294 20.564 8.1456 20.564 9.95811C20.564 11.7706 19.456 13.0729 17.8017 13.0729ZM17.8017 4.39874C14.5606 4.39874 12.2249 6.73977 12.2249 9.99771C12.2249 13.2556 14.556 15.5982 17.8017 15.5982C21.0474 15.5982 23.4 13.2358 23.4 9.99771C23.4 6.75957 21.0398 4.39874 17.8017 4.39874Z" fill="white"/>
<path id="Fill-6" fill-rule="evenodd" clip-rule="evenodd" d="M33.28 5.92643C33.2831 5.52505 33.2631 5.12382 33.2201 4.7247H30.5207C30.5621 5.27454 30.5621 5.55936 30.5621 5.88531C30.5621 7.73742 29.3544 8.8173 27.743 8.8173C27.5816 8.82084 27.4201 8.81372 27.2596 8.79598V0H24.4405V15.2723H27.2596V11.1995C27.4606 11.2193 27.6632 11.2193 27.8443 11.2193C28.0653 11.2193 28.2863 11.2193 28.4888 11.1995L30.7233 15.2723H33.8846L31.0655 10.4059C32.6768 9.40827 33.28 7.63689 33.28 5.92643Z" fill="white"/>
<path id="Fill-8" fill-rule="evenodd" clip-rule="evenodd" d="M36.6623 9.08232C36.9431 7.71151 37.87 6.88294 39.2389 6.88294C40.548 6.88294 41.4534 7.75873 41.656 9.08232H36.6623ZM39.3003 4.39874C36.0576 4.39874 33.7419 6.71997 33.7419 9.99771C33.7419 13.2358 36.0438 15.5982 39.3402 15.5982C41.1112 15.5982 42.5415 14.9661 43.608 13.5618L41.9782 11.8315C41.2923 12.7058 40.528 13.0729 39.3602 13.0729C37.9099 13.0729 36.9631 12.2793 36.6623 10.8948H44.3354C44.3938 10.5994 44.4211 10.2987 44.4168 9.99771C44.4168 6.73977 42.3634 4.39874 39.3034 4.39874H39.3003Z" fill="white"/>
<path id="Fill-10" fill-rule="evenodd" clip-rule="evenodd" d="M51.6449 4.72168V11.204C51.6449 12.1819 50.9405 12.8323 50.0351 12.8323C49.0882 12.8323 48.4037 12.1819 48.4037 11.204V4.72168H45.5785V11.204C45.5785 13.6075 47.1699 15.3576 49.3445 15.3576H49.4703H49.4887H49.5532H49.6176C51.4438 15.3073 51.9948 14.2076 52.073 14.0325C52.0823 14.1589 52.0853 14.2838 52.0853 14.4087C52.0853 16.0384 51.0188 17.2599 49.1864 17.2599C48.8641 17.2599 48.5818 17.2599 48.0385 17.2188V19.9467C48.4328 19.9908 48.8295 20.0111 49.2263 20.0076C50.9144 20.0076 52.6685 19.3984 53.6552 17.7687C54.0589 17.1092 54.441 16.4146 54.441 15.1626C54.4609 14.9585 54.4609 14.7346 54.4609 14.5107V4.72168H51.6449Z" fill="white"/>
</g>
<path id="Oval" d="M59.3656 15.1367C60.2683 15.1367 61 14.4104 61 13.5146C61 12.6187 60.2683 11.8925 59.3656 11.8925C58.463 11.8925 57.7313 12.6187 57.7313 13.5146C57.7313 14.4104 58.463 15.1367 59.3656 15.1367Z" fill="white"/>
</g>
</g>
</svg>
