<svg width="44" height="44" viewBox="0 0 44 44" fill="none" xmlns="http://www.w3.org/2000/svg">
<g id="Vector">
<path d="M20.591 6.60697C20.3175 6.26252 20.3869 5.67891 20.725 5.49755C21.1358 5.27721 21.3218 4.89049 21.2623 4.47503C21.1496 3.68798 20.9522 2.91282 20.782 2.13446C20.7513 1.99416 20.6827 1.86215 20.6181 1.66898C20.5971 1.57188 20.5896 1.53212 20.5821 1.49237C20.5821 1.49237 20.5925 1.45628 20.5939 1.40666C20.5947 1.31498 20.5942 1.2729 20.5937 1.23083C20.7287 0.655113 21.0375 0.23284 21.6381 0.0298028C21.8566 1.75714e-07 22.0652 1.76e-07 22.3129 0C22.6266 0.206913 22.9542 0.371055 23.1638 0.63049C23.5013 1.04824 23.4543 1.53509 23.2909 2.0433C23.0689 2.73399 22.8632 3.43904 22.7519 4.15372C22.633 4.91683 22.9151 5.34015 23.5748 5.62841C23.5748 5.8652 23.5983 6.11596 23.5625 6.35797C23.5493 6.44692 23.3962 6.51518 23.2295 6.59104C22.2985 6.59513 21.4447 6.60105 20.591 6.60697Z" fill="#ACABB7"/>
<path d="M43.1183 20.6668C43.3927 20.9589 43.6672 21.2509 43.9708 21.5515C44 21.8267 44 22.0934 44 22.4C43.8248 22.6671 43.6829 22.9345 43.4673 23.1128C43.0246 23.4793 42.525 23.4769 41.9794 23.2953C41.304 23.0706 40.6118 22.8553 39.9103 22.7664C39.5283 22.718 39.1121 22.9398 38.6558 23.061C38.5673 23.1437 38.5342 23.2051 38.5012 23.2664C38.5012 23.2664 38.4944 23.2725 38.4783 23.2685C38.4514 23.2673 38.4407 23.2701 38.43 23.2729C38.4434 23.2884 38.4568 23.304 38.4702 23.3195C38.466 23.3575 38.4618 23.3956 38.4205 23.4527C38.128 23.4718 37.8725 23.4718 37.5703 23.4718C37.5703 22.7748 37.5703 22.1194 37.5703 21.4639C37.5703 20.5694 37.5703 20.5694 38.4493 20.5939C38.6513 21.0956 39.0781 21.3269 39.5583 21.2595C40.3677 21.146 41.1618 20.9231 42.0118 20.7183C42.1503 20.6603 42.2392 20.6302 42.3548 20.6033C42.4164 20.5987 42.4514 20.5909 42.5195 20.5854C42.5746 20.5836 42.5964 20.5795 42.6309 20.5791C42.6436 20.5828 42.67 20.5853 42.6923 20.5951C42.7308 20.6026 42.7469 20.6004 42.7864 20.6013C42.8252 20.6016 42.8406 20.5988 42.8561 20.596C42.8772 20.6178 42.903 20.6295 42.9715 20.6429C43.0459 20.6588 43.0821 20.6628 43.1183 20.6668Z" fill="#ACABB7"/>
<path d="M0 21.6876C0.264518 21.1304 0.597442 20.693 1.29326 20.5972C1.38537 20.5909 1.40999 20.589 1.46631 20.5898C1.58225 20.6006 1.66649 20.6087 1.75074 20.6167C1.9561 20.7001 2.16147 20.7835 2.41787 20.889C2.52595 20.9198 2.58298 20.9284 2.64002 20.937C2.82351 20.9967 3.00701 21.0563 3.23155 21.1574C3.57366 21.2587 3.87328 21.3563 4.17619 21.368C4.49856 21.3804 4.87066 21.4855 5.10748 21.1214C5.1066 21.114 5.09923 21.101 5.09923 21.101C5.09923 21.101 5.13202 21.107 5.18169 21.108C5.30497 21.0659 5.42044 21.0397 5.44554 20.9771C5.64323 20.4846 6.03353 20.5607 6.42958 20.6147C6.42958 21.4379 6.4338 22.2504 6.42542 23.0629C6.42403 23.1979 6.38421 23.4404 6.33388 23.448C6.12883 23.4794 5.9108 23.4511 5.70189 23.4176C5.63109 23.4063 5.5731 23.3149 5.50925 23.2601C5.50925 23.2601 5.53562 23.2375 5.52814 23.2178C5.46687 23.1528 5.4131 23.1077 5.35932 23.0625C5.35932 23.0625 5.36734 23.057 5.36129 23.031C5.29317 22.9726 5.2311 22.9402 5.16903 22.9078C5.16903 22.9078 5.18415 22.8847 5.16693 22.8665C4.48248 22.4829 3.26597 22.5732 2.72227 23.0286C2.54338 23.0901 2.36111 23.1433 2.18615 23.2145C1.1764 23.6252 0.568057 23.4113 0.0285761 22.4502C0 22.2024 0 21.9648 0 21.6876Z" fill="#ACABB7"/>
<path d="M20.6134 42.6804C20.6134 42.6804 20.5937 42.6485 20.5964 42.6026C20.6076 42.5387 20.6161 42.5207 20.6547 42.4929C20.7037 42.3362 20.7227 42.1893 20.7417 42.0423C20.7417 42.0423 20.7425 42.0576 20.7722 42.0458C20.996 41.3467 21.2315 40.6673 21.365 39.9684C21.4237 39.6608 21.2747 39.3134 21.2119 38.9542C21.1143 38.8291 21.0248 38.7339 20.9353 38.6387C20.9353 38.6387 20.9431 38.6331 20.9362 38.6049C20.8551 38.5116 20.7384 38.4588 20.715 38.3788C20.6535 38.1678 20.6147 37.9454 20.6089 37.7264C20.6076 37.677 20.7765 37.5794 20.8682 37.578C21.6559 37.5661 22.4441 37.563 23.2315 37.5826C23.3211 37.5848 23.4478 37.7274 23.4872 37.8314C23.6445 38.247 23.1986 38.3749 23.0659 38.6559C22.5241 39.3498 22.7518 40.1072 22.906 40.8473C22.983 41.2171 23.1118 41.5807 23.2566 41.9307C23.6242 42.819 23.3425 43.55 22.4488 43.9706C22.2891 44 22.1383 44 21.9305 43.9748C21.7304 43.9215 21.5873 43.8935 21.4442 43.8656C21.4442 43.8656 21.4408 43.8653 21.4383 43.8355C21.3804 43.7959 21.3249 43.7861 21.2695 43.7763C21.2695 43.7763 21.2877 43.7468 21.2747 43.7313C21.2109 43.6967 21.1601 43.6775 21.1093 43.6584C21.1093 43.6584 21.1164 43.6495 21.1061 43.6328C21.0693 43.6007 21.0426 43.5853 21.0159 43.57C21.0159 43.57 21.0238 43.5681 21.0165 43.5495C20.9844 43.5131 20.9597 43.4952 20.935 43.4774C20.935 43.4774 20.9439 43.474 20.9397 43.4482C20.8974 43.388 20.8592 43.3535 20.821 43.3191C20.821 43.3191 20.827 43.3057 20.8333 43.2782C20.7643 43.0607 20.6888 42.8705 20.6134 42.6804Z" fill="#ACABB7"/>
<path d="M21.4591 43.8844C21.5873 43.8935 21.7304 43.9215 21.8927 43.9748C21.8181 44 21.7243 44 21.5952 44C21.5313 43.9678 21.5027 43.9355 21.4591 43.8844Z" fill="#ACABB7"/>
<path d="M9.24294 14.2016C10.25 12.6657 11.4061 11.302 12.8485 10.1958C15.1423 8.43642 17.7205 7.40007 20.677 7.12583C20.9011 7.11739 21.0506 7.11249 21.2383 7.11471C21.6941 7.10266 22.1116 7.08349 22.5519 7.06103C22.5893 7.0525 22.6038 7.04727 22.6413 7.05494C22.68 7.07535 22.6958 7.08287 22.7254 7.10039C22.7391 7.11039 22.7726 7.11594 22.7726 7.11594C22.7726 7.11594 22.8048 7.10526 22.8358 7.10491C22.9288 7.10473 22.9907 7.1049 23.0751 7.11244C23.113 7.1166 23.1284 7.11339 23.1734 7.11597C23.243 7.11852 23.2829 7.11527 23.3229 7.11203C29.1909 7.632 34.2129 11.5463 36.1073 17.0622C38.7421 24.7343 35.0278 32.859 27.5224 35.9069C26.227 36.433 24.8795 36.7629 23.4119 36.8594C22.9498 36.8858 22.5583 36.9289 22.1669 36.9721C22.1294 36.9683 22.092 36.9646 21.9995 36.9325C21.5219 36.8949 21.0993 36.8857 20.6768 36.8764C16.0918 36.4473 12.4752 34.3172 9.79081 30.6072C8.24942 28.4768 7.38721 26.0721 7.13209 23.4521C7.11266 23.2527 7.07167 23.0553 7.07365 22.7943C7.09246 22.3119 7.07832 21.8923 7.06418 21.4726C7.06797 21.4308 7.07176 21.3891 7.09627 21.2975C7.1155 21.2032 7.11402 21.1587 7.11253 21.1142C7.11161 21.0749 7.11068 21.0357 7.11959 20.9487C7.12941 20.9009 7.12537 20.8622 7.12537 20.8622C7.19248 19.2646 7.6216 17.7511 8.18736 16.2339C8.18318 16.1977 8.19679 16.2075 8.19679 16.2075C8.54327 15.549 8.88975 14.8905 9.24294 14.2016ZM22.5799 32.2132C22.6256 32.1872 22.6714 32.1612 22.7728 32.1722C22.8586 32.183 22.9467 32.2124 23.0298 32.2019C25.659 31.8694 27.9063 30.7794 29.6676 28.7785C31.0567 27.2004 31.9286 25.3759 32.162 23.2095C32.1686 23.1311 32.1752 23.0526 32.2004 22.9092C32.1912 22.8661 32.182 22.823 32.19 22.7081C32.1989 22.5602 32.2077 22.4123 32.2345 22.1904C32.2283 22.0388 32.2221 21.8872 32.2298 21.6672C32.1907 21.5422 32.1517 21.4171 32.1333 21.213C32.1181 20.8785 32.1458 20.5356 32.0812 20.211C31.4376 16.9774 29.6814 14.5351 26.7776 12.9703C24.9885 12.0062 23.0601 11.607 20.9644 11.8471C20.9277 11.8571 20.8911 11.8672 20.7783 11.8695C20.3603 11.9402 19.9351 11.9824 19.5253 12.0858C14.5093 13.3518 11.2623 18.0891 11.8665 23.2465C12.387 27.6892 15.8059 31.3084 20.2348 32.0837C20.578 32.1438 20.9411 32.091 21.3277 32.1535C21.4638 32.1738 21.5999 32.1942 21.8004 32.2341C21.867 32.229 21.9335 32.2239 22.058 32.2356C22.0973 32.2294 22.1366 32.2232 22.2452 32.2328C22.3388 32.2232 22.4325 32.2136 22.5799 32.2132ZM33.0571 22.8346C33.3906 22.834 33.7241 22.8335 34.1214 22.8421C34.1858 22.8418 34.2502 22.8416 34.3624 22.8591C34.3789 22.8551 34.3954 22.851 34.4899 22.8548C34.725 22.8565 34.9602 22.8581 35.267 22.8777C35.8475 22.8263 35.6988 23.2698 35.7433 23.6493C35.8316 23.6912 35.9198 23.733 36.1007 23.8186C36.1007 22.8424 36.1042 21.9656 36.0944 21.0891C36.0936 21.0153 36.0043 20.9424 35.9561 20.8692C35.9051 20.9395 35.8178 21.0062 35.8102 21.081C35.7897 21.2821 35.8032 21.4866 35.8032 21.7457C34.8246 21.7457 33.8869 21.7457 32.8696 21.7457C32.9126 22.1113 32.9532 22.4566 33.0571 22.8346ZM33.3741 18.6562C33.5524 18.4597 33.8116 18.2903 33.8888 18.06C33.9881 17.7635 34.0978 17.6751 34.4054 17.6928C34.9087 17.7218 35.2279 17.3184 35.0511 16.8599C34.8164 16.2517 34.52 15.6674 34.2425 15.056C33.2574 15.5167 32.3203 15.955 31.3583 16.405C31.6347 16.9887 31.8798 17.5509 32.1638 18.0927C32.4234 18.5877 32.8107 18.7653 33.3741 18.6562ZM19.5681 11.4349C19.7685 11.3924 19.9701 11.3544 20.1692 11.3066C20.8797 11.1362 21.2984 10.4955 21.2206 9.70354C21.1399 8.88319 20.562 8.18653 19.8788 8.20866C19.2624 8.22863 18.6499 8.37056 18.0135 8.46188C18.2089 9.55739 18.3901 10.5731 18.5733 11.5996C18.92 11.5406 19.2069 11.4917 19.5681 11.4349ZM9.37933 19.3481C9.97921 19.5523 10.5791 19.7566 11.1989 19.9677C11.3258 19.5854 11.4335 19.2605 11.5403 18.9387C11.306 18.8383 11.1152 18.7565 10.9244 18.6746C11.4846 18.4695 12.0215 18.2865 12.0203 17.606C12.0199 17.4012 11.8178 17.1967 11.7082 16.9921C11.5926 17.4663 11.4815 17.8155 11.0185 17.9828C11.0068 17.8805 10.9965 17.811 10.9912 17.7411C10.9364 17.0057 10.6195 16.5754 10.0601 16.4783C9.50498 16.382 9.02172 16.6874 8.75287 17.3493C8.54581 17.8591 8.37921 18.3853 8.18574 18.9292C8.57606 19.0682 8.94428 19.1994 9.37933 19.3481ZM29.9993 14.7355C30.3234 15.256 30.8493 15.6117 31.3983 15.5178C32.1001 15.3976 32.7182 14.9689 32.9405 14.1972C33.0912 13.6739 33.0108 13.1855 32.6336 12.7686C32.0955 12.1737 31.2911 12.0703 30.6077 12.5085C29.919 12.9501 29.514 13.8886 29.9993 14.7355ZM22.1224 8.7159C21.5194 9.85204 22.0484 11.1347 23.1811 11.2827C23.9518 11.3834 24.6168 10.9493 24.8613 10.1859C25.1197 9.37898 24.8193 8.54155 24.1398 8.17422C23.4427 7.79745 22.7323 7.97294 22.1224 8.7159ZM14.8069 13.9897C15.4005 13.5947 15.6182 13.0299 15.455 12.3555C15.2826 11.6431 14.7957 11.1803 14.0841 11.0253C13.4559 10.8884 12.935 11.1351 12.5579 11.656C12.1624 12.2023 12.2175 13.0037 12.6725 13.5678C13.0695 14.0601 13.9365 14.5162 14.8069 13.9897ZM32.3966 25.0996C32.2625 25.8239 32.4911 26.3974 33.124 26.7851C33.9291 27.2784 34.9496 27.0816 35.4209 26.3547C35.8717 25.6595 35.6823 24.7587 34.9821 24.2681C34.0473 23.613 32.9095 23.9497 32.3966 25.0996ZM10.8304 25.2267C10.6059 24.9278 10.4252 24.5768 10.1464 24.3426C9.75164 24.0109 9.27611 24.0396 8.83355 24.3063C8.44573 24.5401 8.25399 24.9889 8.36537 25.4918C8.49737 26.088 8.67 26.6751 8.83162 27.2913C9.87211 27.0111 10.88 26.7396 11.9097 26.4623C11.7977 26.0784 11.7016 25.7491 11.6237 25.4821C11.3328 25.3255 10.9883 25.8231 10.8304 25.2267ZM7.91603 22.1685C7.94857 22.2655 7.97402 22.3656 8.0148 22.4589C8.27807 23.0619 8.98939 23.4591 9.67022 23.387C10.4353 23.306 11.0324 22.8152 11.1586 22.1636C11.2921 21.4742 11.0179 20.8489 10.4147 20.5244C9.813 20.2008 9.19534 20.2114 8.61082 20.5553C8.03184 20.8959 7.82316 21.4349 7.91603 22.1685ZM12.5168 16.3679C12.5985 16.3466 12.7177 16.3523 12.7557 16.2995C12.932 16.0543 13.0857 15.793 13.2573 15.522C12.4526 14.9971 11.6712 14.4874 10.8717 13.9659C11.0308 13.7085 11.1743 13.4764 11.3177 13.2443C11.3057 13.2084 11.2937 13.1725 11.2816 13.1366C11.1788 13.1642 11.0256 13.158 10.9808 13.2246C10.4864 13.9596 10.0089 14.7059 9.49579 15.4969C10.0529 15.653 9.9785 15.0309 10.3212 14.9391C11.0222 15.3968 11.7429 15.8673 12.5168 16.3679ZM28.827 10.0428C28.3113 10.8683 27.7957 11.6939 27.2716 12.5329C27.8885 12.9182 28.4661 13.2885 29.0566 13.6369C29.1393 13.6857 29.2852 13.6275 29.4018 13.6188C29.3972 13.5744 29.3925 13.5301 29.3878 13.4858C29.0607 13.2754 28.7335 13.065 28.3943 12.8469C28.9038 12.0285 29.3956 11.2384 29.8952 10.436C29.6281 10.2661 29.3879 10.0991 29.1324 9.96058C29.0654 9.92432 28.9505 9.97668 28.827 10.0428ZM33.6438 20.3095C34.3987 20.1582 35.1535 20.0069 35.9383 19.8496C35.8594 19.4655 35.7878 19.1171 35.7153 18.7639C34.647 18.9751 33.637 19.1749 32.6079 19.3784C32.6893 19.7734 32.7589 20.1108 32.8294 20.4528C33.1117 20.4045 33.3417 20.3652 33.6438 20.3095Z" fill="#ACABB7"/>
<path d="M36.6506 38.0036C36.6028 38.0107 36.5848 38.0068 36.5392 38.0069C36.4623 37.9988 36.4128 37.9868 36.321 37.9636C36.2423 37.9479 36.2058 37.9435 36.1694 37.939C36.0115 37.8536 35.8536 37.7683 35.6674 37.6733C35.6219 37.6401 35.6047 37.6164 35.5663 37.5849C35.2919 37.0905 35.0531 36.5959 34.7814 36.12C34.457 35.5516 34.1112 34.9933 33.4531 34.6433C33.1495 34.6362 32.8985 34.6537 32.6475 34.6712C32.3456 34.4711 32.0437 34.271 31.7667 34.0874C32.5281 33.303 33.2497 32.5598 34.0539 31.7314C34.2504 31.9718 34.4234 32.1687 34.5768 32.3797C34.6261 32.4475 34.6671 32.5717 34.6381 32.6379C34.3961 33.1916 34.6164 33.6494 35.0211 33.9644C35.6046 34.4187 36.2225 34.8599 36.8903 35.1657C37.4982 35.4441 37.8818 35.8044 37.9878 36.5179C37.9941 36.6162 37.9978 36.6548 38.0016 36.6934C37.849 37.4191 37.4298 37.8737 36.6506 38.0036Z" fill="#ACABB7"/>
<path d="M37.8389 6.77798C37.8631 6.84888 37.8874 6.91978 37.9217 7.03805C37.9475 7.10913 37.9631 7.13284 37.9787 7.15654C37.9787 7.15654 37.9694 7.15941 37.967 7.19247C37.9785 7.28123 37.9925 7.33693 37.9993 7.42073C37.9955 7.4871 37.9988 7.52537 37.9861 7.59163C37.9035 7.82 37.837 8.02036 37.7498 8.2397C37.5904 8.40937 37.4516 8.56006 37.3013 8.7128C37.2896 8.71483 37.2676 8.72327 37.2474 8.72202C37.1926 8.74135 37.1579 8.76193 37.1065 8.7837C37.0897 8.78488 37.0624 8.80448 37.0624 8.80448C36.4261 9.18407 35.7897 9.56365 35.1693 9.9759C35.1851 10.0086 35.1775 10.0073 35.1775 10.0073C34.7923 10.1759 34.5224 10.612 34.5461 11.0275C34.585 11.7108 34.585 11.7108 33.9851 12.192C33.3489 11.5513 32.7027 10.915 32.0812 10.2554C32.0085 10.1783 32.0119 9.92337 32.0837 9.83626C32.2999 9.57377 32.5196 9.39218 32.9615 9.43773C33.2968 9.47229 33.7733 9.21732 34.0059 8.93953C34.469 8.38618 34.875 7.75966 35.1778 7.10477C35.4581 6.4988 35.8193 6.11088 36.5149 6.01838C36.6618 6.02616 36.7805 6.05134 36.9553 6.08755C37.1367 6.15379 37.2619 6.209 37.3872 6.2642C37.3872 6.2642 37.3926 6.25703 37.3966 6.27956C37.4285 6.31603 37.4563 6.32998 37.4842 6.34392C37.4842 6.34392 37.4866 6.33665 37.4971 6.36437C37.618 6.52072 37.7284 6.64935 37.8389 6.77798Z" fill="#ACABB7"/>
<path d="M23.0969 38.644C23.1986 38.3749 23.6445 38.247 23.4872 37.8314C23.4478 37.7274 23.3211 37.5848 23.2315 37.5826C22.4441 37.563 21.6559 37.5661 20.8682 37.578C20.7765 37.5794 20.6076 37.677 20.6089 37.7264C20.6147 37.9454 20.6535 38.1678 20.715 38.3788C20.7384 38.4588 20.8551 38.5116 20.9335 38.6089C20.782 38.5661 20.6264 38.4911 20.4648 38.4133C20.4648 38.1009 20.4648 37.7856 20.5242 37.4453C20.7908 37.4154 20.9981 37.4104 21.2456 37.4111C21.5835 37.413 21.8812 37.4092 22.213 37.4132C22.3399 37.4158 22.4327 37.4106 22.56 37.4111C22.693 37.3866 22.7915 37.3564 22.8944 37.3303C22.8988 37.3344 22.9107 37.3328 22.9107 37.3328C22.9383 37.3452 22.9659 37.3577 23.0156 37.3522C23.0378 37.3342 23.0458 37.3265 23.0558 37.3598C23.1804 37.3965 23.295 37.4 23.4351 37.4119C23.4955 37.4275 23.5304 37.4346 23.5654 37.4418C23.5709 37.5561 23.5656 37.6721 23.5838 37.7844C23.6493 38.1865 23.5705 38.5058 23.0969 38.644Z" fill="#ACABB7"/>
<path d="M38.3093 23.5906C38.1015 23.5914 37.9201 23.5864 37.7003 23.5879C37.5813 23.5189 37.4317 23.4447 37.4305 23.368C37.4145 22.4106 37.42 21.4528 37.42 20.3996C37.7926 20.4438 38.1206 20.4828 38.4489 20.5578C37.5703 20.5694 37.5703 20.5694 37.5703 21.4639C37.5703 22.1194 37.5703 22.7748 37.5703 23.4718C37.8725 23.4718 38.128 23.4718 38.4121 23.4802C38.4057 23.5206 38.3707 23.5526 38.3093 23.5906Z" fill="#ACABB7"/>
<path d="M21.9366 36.9708C21.819 36.9761 21.7229 36.9753 21.5907 36.9786C21.283 36.958 21.0114 36.9334 20.7083 36.8926C21.0993 36.8857 21.5219 36.8949 21.972 36.9262C21.9857 36.9538 21.9719 36.9594 21.9366 36.9708Z" fill="#ACABB7"/>
<path d="M22.1938 36.9882C22.5583 36.9289 22.9498 36.8858 23.3732 36.8561C23.0103 36.9146 22.6156 36.9595 22.1938 36.9882Z" fill="#ACABB7"/>
<path d="M32.683 34.6725C32.8985 34.6537 33.1495 34.6362 33.4223 34.6403C33.2022 34.6658 32.9603 34.6698 32.683 34.6725Z" fill="#F8FAF9"/>
<path d="M23.566 37.4058C23.5304 37.4346 23.4955 37.4275 23.4144 37.3868C23.2608 37.3443 23.1533 37.3354 23.0458 37.3265C23.0458 37.3265 23.0378 37.3342 23.0322 37.3338C23.2067 37.3455 23.3867 37.3577 23.566 37.4058Z" fill="#E9E8FF"/>
<path d="M38.5226 23.2521C38.5342 23.2051 38.5673 23.1437 38.6278 23.0738C38.6183 23.1228 38.5812 23.1802 38.5226 23.2521Z" fill="#ACABB7"/>
<path d="M38.4804 23.3126C38.4568 23.304 38.4434 23.2884 38.43 23.2729C38.4407 23.2701 38.4514 23.2673 38.4772 23.2729C38.4923 23.2813 38.4906 23.3058 38.4804 23.3126Z" fill="#ACABB7"/>
<path d="M6.36197 8.36912C5.60097 7.24721 6.36175 6.11002 7.33276 6.04321C7.98112 5.99861 8.49113 6.3765 8.80366 6.99807C9.14822 7.68336 9.54932 8.35385 10.0185 8.95886C10.4547 9.52121 10.912 9.57739 11.4879 9.32791C11.713 9.54983 11.9392 9.77283 12.1573 9.98777C11.4358 10.7062 10.7131 11.4258 9.99437 12.1414C9.80004 11.94 9.58129 11.7132 9.35101 11.4744C9.57757 10.8972 9.51773 10.4478 8.95023 10.0088C8.35516 9.54844 7.67654 9.19566 7.0316 8.80049C6.8836 8.70981 6.724 8.63805 6.54079 8.54799C6.46969 8.48546 6.42754 8.43251 6.36197 8.36912Z" fill="#ACABB7"/>
<path d="M7.59307 37.9887C7.5238 37.9993 7.48401 37.9977 7.41485 38.003C6.39194 37.7308 5.95653 37.2043 6.05571 36.402C6.12747 35.8216 6.47308 35.4816 6.98207 35.2201C7.62863 34.8881 8.26863 34.5265 8.85569 34.1007C9.30027 33.7783 9.5748 33.335 9.44816 32.6919C9.40922 32.4942 9.73386 32.2003 9.93937 31.9988C9.98293 31.956 10.2656 32.0898 10.3826 32.2008C10.9245 32.715 11.4467 33.2498 12.0158 33.8173C12.0769 33.9499 12.0981 34.0424 12.1193 34.1349C12.0921 34.1364 12.0713 34.1489 12.0254 34.2032C11.8608 34.3774 11.7278 34.5206 11.5948 34.6637C11.5353 34.664 11.4757 34.6643 11.367 34.6404C11.2412 34.6026 11.1645 34.5891 11.0879 34.5755C10.8664 34.621 10.6449 34.6665 10.3812 34.7423C10.3203 34.7953 10.3015 34.8179 10.2828 34.8405C10.2828 34.8405 10.2922 34.8431 10.2609 34.8482C10.0249 35.0864 9.82013 35.3194 9.6154 35.5525C9.54955 35.6419 9.4837 35.7314 9.38791 35.8665C9.26534 36.0856 9.17272 36.2589 9.0801 36.4322C9.04377 36.4913 9.00743 36.5504 8.94481 36.6563C8.88013 36.8182 8.84175 36.9331 8.80336 37.0481C8.77202 37.1076 8.74068 37.1671 8.68089 37.268C8.59503 37.3994 8.5376 37.4894 8.48017 37.5795C8.48017 37.5795 8.47104 37.5821 8.46688 37.5844C8.18266 37.7166 7.90261 37.8466 7.59307 37.9887Z" fill="#ACABB7"/>
<path d="M5.5162 23.2926C5.5731 23.3149 5.63109 23.4063 5.70189 23.4176C5.9108 23.4511 6.12883 23.4794 6.33388 23.448C6.38421 23.4404 6.42403 23.1979 6.42542 23.0629C6.4338 22.2504 6.42958 21.4379 6.42958 20.6147C6.03353 20.5607 5.64323 20.4846 5.44554 20.9771C5.42044 21.0397 5.30497 21.0659 5.19835 21.1084C5.29246 20.9355 5.38447 20.6914 5.55511 20.6079C5.79875 20.4886 6.09962 20.458 6.37682 20.4548C6.44886 20.4539 6.58417 20.6939 6.58742 20.8258C6.60716 21.6263 6.60105 22.4277 6.59258 23.2286C6.59135 23.3447 6.53106 23.4603 6.42394 23.5789C6.16845 23.5859 5.98712 23.5901 5.80579 23.5942C5.71158 23.5045 5.61736 23.4148 5.5162 23.2926Z" fill="#ACABB7"/>
<path d="M21.22 38.9841C21.2747 39.3134 21.4237 39.6608 21.365 39.9684C21.2315 40.6673 20.996 41.3467 20.7689 42.0389C20.9167 41.2511 21.1068 40.4604 21.2704 39.6641C21.3039 39.5011 21.2376 39.3176 21.2167 39.0855C21.2162 39.0275 21.22 38.9841 21.22 38.9841Z" fill="#ACABB7"/>
<path d="M7.02754 21.4771C7.07832 21.8923 7.09246 22.3119 7.08506 22.7569C6.86173 22.4847 6.67284 22.1772 6.77753 21.7985C6.80971 21.6821 6.91765 21.5866 7.02754 21.4771Z" fill="#ACABB7"/>
<path d="M2.75595 23.0296C3.26597 22.5732 4.48248 22.4829 5.16096 22.879C4.36041 22.603 3.57404 22.7974 2.75595 23.0296Z" fill="#ACABB7"/>
<path d="M4.94577 21.1666C5.00555 21.1394 5.03463 21.1335 5.08602 21.1282C4.87066 21.4855 4.49856 21.3804 4.17619 21.368C3.87328 21.3563 3.57366 21.2587 3.26264 21.1677C3.31224 21.136 3.37179 21.1354 3.46109 21.1361C3.56728 21.1641 3.64374 21.1909 3.75136 21.215C4.16003 21.2042 4.53754 21.1961 4.94577 21.1666Z" fill="#ACABB7"/>
<path d="M20.6094 42.7126C20.6888 42.8705 20.7643 43.0607 20.8335 43.2856C20.7533 43.1285 20.6794 42.9367 20.6094 42.7126Z" fill="#ACABB7"/>
<path d="M20.6547 42.4929C20.6206 42.4885 20.6166 42.4741 20.605 42.4389C20.6302 42.3049 20.6631 42.1919 20.7188 42.0606C20.7227 42.1893 20.7037 42.3362 20.6547 42.4929Z" fill="#ACABB7"/>
<path d="M21.2119 38.9542C21.22 38.9841 21.2162 39.0275 21.2128 39.0491C21.1256 38.9444 21.0417 38.8182 20.9465 38.6653C21.0248 38.7339 21.1143 38.8291 21.2119 38.9542Z" fill="#ACABB7"/>
<path d="M8.83631 37.0408C8.84175 36.9331 8.88014 36.8182 8.94156 36.6823C8.93281 36.7855 8.90103 36.9095 8.83631 37.0408Z" fill="#FCFDFA"/>
<path d="M11.0917 34.6052C11.1645 34.5891 11.2412 34.6026 11.3371 34.6387C11.2694 34.6525 11.1825 34.6437 11.0917 34.6052Z" fill="#FCFDFA"/>
<path d="M5.36716 23.0864C5.4131 23.1077 5.46687 23.1528 5.51396 23.2278C5.46318 23.2085 5.41909 23.1593 5.36716 23.0864Z" fill="#ACABB7"/>
<path d="M5.18089 22.9304C5.2311 22.9402 5.29318 22.9726 5.35833 23.0349C5.30519 23.0275 5.24897 22.9902 5.18089 22.9304Z" fill="#ACABB7"/>
<path d="M21.284 43.7974C21.3249 43.7861 21.3803 43.7959 21.4387 43.8371C21.3939 43.8519 21.3462 43.8352 21.284 43.7974Z" fill="#ACABB7"/>
<path d="M21.1207 43.6812C21.1601 43.6775 21.2109 43.6967 21.2641 43.7451C21.2217 43.7509 21.1769 43.7275 21.1207 43.6812Z" fill="#ACABB7"/>
<path d="M20.8271 43.3444C20.8592 43.3535 20.8974 43.388 20.936 43.4512C20.9021 43.4432 20.8677 43.4065 20.8271 43.3444Z" fill="#ACABB7"/>
<path d="M2.64002 20.9168C2.58299 20.9284 2.52595 20.9198 2.44857 20.8896C2.47529 20.8645 2.52234 20.8608 2.60468 20.8566C2.63998 20.856 2.64002 20.856 2.64002 20.856C2.64002 20.856 2.64002 20.8965 2.64002 20.9168Z" fill="#FDFEF9"/>
<path d="M7.09985 21.1337C7.11401 21.1587 7.1155 21.2032 7.10588 21.2675C7.09224 21.2426 7.08971 21.1979 7.09985 21.1337Z" fill="#ACABB7"/>
<path d="M21.0239 43.5925C21.0426 43.5853 21.0693 43.6007 21.1044 43.6382C21.0859 43.6452 21.0589 43.6302 21.0239 43.5925Z" fill="#ACABB7"/>
<path d="M20.9407 43.5005C20.9597 43.4952 20.9844 43.5131 21.0157 43.5535C20.997 43.5586 20.9717 43.5411 20.9407 43.5005Z" fill="#ACABB7"/>
<path d="M10.3041 34.8349C10.3015 34.8179 10.3203 34.7953 10.3616 34.7693C10.3726 34.7944 10.353 34.8155 10.3041 34.8349Z" fill="#FCFDFA"/>
<path d="M7.11672 20.8697C7.12536 20.8622 7.12941 20.9009 7.12491 20.9196C7.10219 20.9219 7.09807 20.9016 7.11672 20.8697Z" fill="#ACABB7"/>
<path d="M37.9845 7.13429C37.9631 7.13284 37.9475 7.10913 37.9347 7.06315C37.9552 7.0646 37.9727 7.08832 37.9845 7.13429Z" fill="#FFFAFF"/>
<path d="M37.4743 6.32255C37.4563 6.32998 37.4285 6.31603 37.3921 6.27968C37.4105 6.2719 37.4375 6.28654 37.4743 6.32255Z" fill="#FEFEF9"/>
<path d="M43.0989 20.6477C43.0821 20.6628 43.0459 20.6588 42.9912 20.6339C43.0083 20.6182 43.0439 20.6234 43.0989 20.6477Z" fill="#F6F8FA"/>
<path d="M42.6923 20.5951C42.6927 20.5608 42.7187 20.5567 42.7556 20.5857C42.7469 20.6004 42.7308 20.6026 42.6923 20.5951Z" fill="#ACABB7"/>
<path d="M36.1888 37.9586C36.2058 37.9435 36.2423 37.9479 36.2972 37.9736C36.2798 37.9892 36.244 37.9837 36.1888 37.9586Z" fill="#F6F8FA"/>
<path d="M33.3428 18.6686C32.8107 18.7653 32.4234 18.5877 32.1638 18.0927C31.8798 17.5509 31.6347 16.9887 31.3583 16.405C32.3203 15.955 33.2574 15.5167 34.2425 15.056C34.52 15.6674 34.8164 16.2517 35.0511 16.8599C35.2279 17.3184 34.9087 17.7218 34.4054 17.6928C34.0978 17.6751 33.9881 17.7635 33.8888 18.06C33.8116 18.2903 33.5524 18.4597 33.3428 18.6686ZM32.3049 17.1877C32.2622 17.2458 32.2195 17.3039 32.1769 17.362C32.2801 17.4278 32.4103 17.5707 32.4818 17.5457C32.7761 17.4428 33.0657 17.3093 33.3273 17.1408C33.4035 17.0917 33.3809 16.8891 33.4181 16.6725C32.9904 16.8701 32.6763 17.0153 32.3049 17.1877ZM34.4188 16.6028C34.4291 16.4804 34.4394 16.3581 34.4542 16.1825C34.1338 16.3365 33.8962 16.4507 33.6404 16.5737C33.8956 16.9257 34.1308 16.8343 34.4188 16.6028Z" fill="#F8FAF9"/>
<path d="M19.5309 11.4389C19.2069 11.4917 18.92 11.5406 18.5733 11.5996C18.3901 10.5731 18.2089 9.55739 18.0135 8.46188C18.6499 8.37056 19.2624 8.22863 19.8788 8.20866C20.562 8.18653 21.1399 8.88319 21.2206 9.70354C21.2984 10.4955 20.8797 11.1362 20.1692 11.3066C19.9701 11.3544 19.7685 11.3924 19.5309 11.4389ZM19.8538 8.98791C19.7276 8.68319 19.5405 8.5049 19.1776 8.65138C19.327 9.46693 19.473 10.2641 19.6213 11.0736C20.0585 10.9576 20.1617 10.6963 20.1069 10.3515C20.0381 9.9182 19.9557 9.48705 19.8538 8.98791Z" fill="#F8FAF9"/>
<path d="M9.34591 19.3393C8.94427 19.1994 8.57606 19.0682 8.18574 18.9292C8.37921 18.3853 8.54581 17.8591 8.75287 17.3493C9.02172 16.6874 9.50498 16.382 10.0601 16.4783C10.6195 16.5754 10.9364 17.0057 10.9912 17.7411C10.9965 17.811 11.0068 17.8805 11.0185 17.9828C11.4815 17.8155 11.5926 17.4663 11.7082 16.9921C11.8178 17.1967 12.0199 17.4012 12.0203 17.606C12.0215 18.2865 11.4846 18.4695 10.9244 18.6746C11.1152 18.7565 11.306 18.8383 11.5403 18.9387C11.4335 19.2605 11.3258 19.5854 11.1989 19.9677C10.5791 19.7566 9.97921 19.5523 9.34591 19.3393ZM10.3927 18.5233C10.4762 18.5063 10.5597 18.4893 10.6431 18.4722C10.5933 18.3001 10.5967 18.0464 10.4829 17.9719C10.2089 17.7928 9.88634 17.6783 9.57145 17.5736C9.22019 17.4568 8.9954 17.6143 8.86472 17.9932C9.36965 18.1664 9.84872 18.3308 10.3927 18.5233Z" fill="#F8FAF9"/>
<path d="M29.9805 14.7084C29.514 13.8886 29.919 12.9501 30.6077 12.5085C31.2911 12.0703 32.0955 12.1737 32.6336 12.7686C33.0108 13.1855 33.0912 13.6739 32.9405 14.1972C32.7182 14.9689 32.1001 15.3976 31.3983 15.5178C30.8493 15.6117 30.3234 15.256 29.9805 14.7084ZM32.4746 13.224C32.4358 12.9105 32.2471 12.7212 31.9789 12.925C31.4239 13.3467 30.9062 13.8204 30.4012 14.3021C30.3278 14.3721 30.3622 14.6345 30.4368 14.7494C30.4786 14.8137 30.7566 14.8181 30.8406 14.7466C31.3929 14.2761 31.9213 13.7777 32.4746 13.224Z" fill="#F8FAF9"/>
<path d="M22.1415 8.6895C22.7323 7.97294 23.4427 7.79745 24.1398 8.17422C24.8193 8.54155 25.1197 9.37898 24.8613 10.1859C24.6168 10.9493 23.9518 11.3834 23.1811 11.2827C22.0484 11.1347 21.5194 9.85204 22.1415 8.6895ZM23.4634 8.31208C23.3737 8.41484 23.2225 8.50793 23.2045 8.62197C23.1028 9.26932 23.014 9.92036 22.9683 10.5735C22.9593 10.7024 23.1578 10.8459 23.2606 10.9826C23.3792 10.8753 23.5817 10.7819 23.6022 10.6583C23.7091 10.0126 23.788 9.36029 23.8305 8.70727C23.8384 8.58546 23.6354 8.44994 23.4634 8.31208Z" fill="#F8FAF9"/>
<path d="M14.7779 14.0059C13.9365 14.5162 13.0695 14.0601 12.6725 13.5678C12.2175 13.0037 12.1624 12.2023 12.5579 11.656C12.935 11.1351 13.4559 10.8884 14.0841 11.0253C14.7957 11.1803 15.2826 11.6431 15.455 12.3555C15.6182 13.0299 15.4005 13.5947 14.7779 14.0059ZM14.7488 13.6431C14.7549 13.4755 14.833 13.2541 14.7549 13.1494C14.3813 12.6491 13.9807 12.1659 13.5529 11.7112C13.4535 11.6056 13.2101 11.6355 13.033 11.6031C13.0377 11.783 12.972 12.0149 13.0596 12.1335C13.4135 12.6126 13.8015 13.0691 14.2075 13.5054C14.3109 13.6165 14.5269 13.6227 14.7488 13.6431Z" fill="#F8FAF9"/>
<path d="M32.4049 25.0639C32.9095 23.9497 34.0473 23.613 34.9821 24.2681C35.6823 24.7587 35.8717 25.6595 35.4209 26.3547C34.9496 27.0816 33.9291 27.2784 33.124 26.7851C32.4911 26.3974 32.2625 25.8239 32.4049 25.0639ZM33.3411 24.9676C33.0921 24.9036 32.8116 24.8297 32.7264 25.1675C32.6391 25.5134 32.9435 25.5672 33.18 25.632C33.7295 25.7826 34.2784 25.9414 34.8368 26.0493C34.9717 26.0754 35.1424 25.9168 35.2966 25.8432C35.19 25.6981 35.112 25.4719 34.9717 25.4226C34.4633 25.2437 33.934 25.1242 33.3411 24.9676Z" fill="#F8FAF9"/>
<path d="M10.8396 25.2602C10.9883 25.8231 11.3328 25.3255 11.6237 25.4821C11.7016 25.7491 11.7977 26.0784 11.9097 26.4623C10.88 26.7396 9.87211 27.0111 8.83162 27.2913C8.67 26.6751 8.49737 26.088 8.36537 25.4918C8.25399 24.9889 8.44573 24.5401 8.83355 24.3063C9.27611 24.0396 9.75164 24.0109 10.1464 24.3426C10.4252 24.5768 10.6059 24.9278 10.8396 25.2602ZM10.4793 25.3625C10.1148 25.1404 9.28973 25.2211 8.98428 25.5517C8.86795 25.6776 8.85393 25.898 8.76326 26.1632C9.47893 25.9661 10.0467 25.8098 10.6413 25.6461C10.5862 25.5387 10.5538 25.4755 10.4793 25.3625Z" fill="#F8FAF9"/>
<path d="M7.9105 22.1309C7.82316 21.4349 8.03184 20.8959 8.61082 20.5553C9.19534 20.2114 9.813 20.2008 10.4147 20.5244C11.0179 20.8489 11.2921 21.4742 11.1586 22.1636C11.0324 22.8152 10.4353 23.306 9.67022 23.387C8.98939 23.4591 8.27807 23.0619 8.0148 22.4589C7.97402 22.3656 7.94856 22.2655 7.9105 22.1309ZM10.7096 21.5892C10.2248 21.549 9.7401 21.5089 9.25537 21.4687C9.27515 21.4319 9.29494 21.3951 9.31473 21.3583C9.22361 21.2363 9.10893 21.001 9.04589 21.0141C8.87292 21.0501 8.71465 21.1811 8.56491 21.2935C8.49586 21.3454 8.45561 21.4392 8.41059 21.5187C8.33932 21.6446 8.19536 21.8024 8.22806 21.8954C8.26832 22.0098 8.45389 22.1362 8.58436 22.1452C9.20901 22.188 9.83639 22.2097 10.4625 22.2051C10.8556 22.2021 10.9364 22.0191 10.7096 21.5892Z" fill="#F6F8FA"/>
<path d="M12.4901 16.3528C11.7429 15.8673 11.0222 15.3968 10.3212 14.9391C9.9785 15.0309 10.0529 15.653 9.49579 15.4969C10.0089 14.7059 10.4864 13.9596 10.9808 13.2246C11.0256 13.158 11.1788 13.1642 11.2816 13.1366C11.2937 13.1725 11.3057 13.2084 11.3177 13.2443C11.1743 13.4764 11.0308 13.7085 10.8717 13.9659C11.6712 14.4874 12.4526 14.9971 13.2573 15.522C13.0857 15.793 12.932 16.0543 12.7557 16.2995C12.7177 16.3523 12.5985 16.3466 12.4901 16.3528Z" fill="#F8FAF9"/>
<path d="M28.8423 10.0156C28.9505 9.97668 29.0654 9.92432 29.1324 9.96058C29.3879 10.0991 29.6281 10.2661 29.8952 10.436C29.3956 11.2384 28.9038 12.0285 28.3943 12.8469C28.7335 13.065 29.0607 13.2754 29.3878 13.4858C29.3925 13.5301 29.3972 13.5744 29.4018 13.6188C29.2852 13.6275 29.1393 13.6857 29.0566 13.6369C28.4661 13.2885 27.8885 12.9182 27.2716 12.5329C27.7957 11.6939 28.3113 10.8683 28.8423 10.0156Z" fill="#F8FAF9"/>
<path d="M34.3146 22.8414C34.2502 22.8416 34.1858 22.8418 34.0598 22.8223C33.6634 22.8023 33.3286 22.8021 32.9938 22.8019C32.9532 22.4566 32.9126 22.1113 32.8696 21.7457C33.8869 21.7457 34.8246 21.7457 35.8032 21.7457C35.8032 21.4866 35.7897 21.2821 35.8102 21.081C35.8178 21.0062 35.9051 20.9395 35.9561 20.8692C36.0043 20.9424 36.0936 21.0153 36.0944 21.0891C36.1042 21.9656 36.1007 22.8424 36.1007 23.8186C35.9198 23.733 35.8316 23.6911 35.764 23.5883C36.0467 22.9969 35.3921 22.7484 35.4222 22.3835C35.3675 22.4983 35.2814 22.6791 35.1954 22.8598C34.9602 22.8581 34.725 22.8565 34.4419 22.8387C34.3675 22.8288 34.3411 22.8351 34.3146 22.8414Z" fill="#F8FAF9"/>
<path d="M33.6078 20.3177C33.3417 20.3652 33.1117 20.4045 32.8294 20.4528C32.7589 20.1108 32.6893 19.7734 32.6079 19.3784C33.637 19.1749 34.647 18.9751 35.7153 18.7639C35.7878 19.1171 35.8594 19.4655 35.9383 19.8496C35.1535 20.0069 34.3987 20.1582 33.6078 20.3177Z" fill="#F8FAF9"/>
<path d="M21.2383 7.11471C21.5328 7.01734 21.8626 6.91175 22.2002 6.84723C22.2886 6.83034 22.4014 6.94101 22.516 7.02871C22.1115 7.08349 21.6941 7.10266 21.2383 7.11471Z" fill="#ACABB7"/>
<path d="M35.2312 22.8688C35.2814 22.6791 35.3675 22.4983 35.4222 22.3835C35.3921 22.7484 36.0467 22.9969 35.7646 23.5543C35.6988 23.2698 35.8475 22.8263 35.2312 22.8688Z" fill="#ACABB7"/>
<path d="M33.0254 22.8182C33.3286 22.8021 33.6634 22.8023 34.0279 22.8177C33.7241 22.8335 33.3906 22.834 33.0254 22.8182Z" fill="#ACABB7"/>
<path d="M22.6413 7.05494C22.8037 6.96198 22.9961 6.71208 23.1536 7.08741C23.1284 7.11339 23.113 7.1166 23.0536 7.09255C22.9327 7.0607 22.8557 7.05611 22.7608 7.05913C22.7428 7.06673 22.7117 7.09038 22.7117 7.09038C22.6958 7.08287 22.68 7.07535 22.6413 7.05494Z" fill="#FEFEF9"/>
<path d="M22.2105 32.2249C22.229 31.9131 22.3756 32.1161 22.5094 32.1814C22.4325 32.2136 22.3389 32.2232 22.2105 32.2249Z" fill="#FBFCF9"/>
<path d="M22.7788 7.05152C22.8557 7.05611 22.9327 7.0607 23.0311 7.08518C22.9907 7.10489 22.9288 7.10472 22.8294 7.09153C22.7918 7.0785 22.7788 7.05152 22.7788 7.05152Z" fill="#E9E8FF"/>
<path d="M32.1458 23.2348C32.1344 23.1802 32.1391 23.1003 32.1629 22.9972C32.1752 23.0526 32.1686 23.1311 32.1458 23.2348Z" fill="#F7F7F7"/>
<path d="M22.7608 7.05913C22.7788 7.05152 22.7918 7.0785 22.7983 7.09188C22.8048 7.10526 22.7726 7.11594 22.7726 7.11594C22.7726 7.11594 22.7391 7.11039 22.7254 7.10039C22.7117 7.09038 22.7428 7.06673 22.7608 7.05913Z" fill="#ACABB7"/>
<path d="M34.3385 22.8502C34.3411 22.8351 34.3675 22.8288 34.4029 22.8347C34.3954 22.851 34.3789 22.855 34.3385 22.8502Z" fill="#ACABB7"/>
<path d="M21.2456 37.4111C21.5135 37.3876 21.8217 37.3697 22.1544 37.3786C21.8812 37.4092 21.5835 37.413 21.2456 37.4111Z" fill="#FEFEF9"/>
<path d="M22.56 37.4111C22.6247 37.376 22.724 37.3466 22.8566 37.3217C22.7915 37.3564 22.693 37.3866 22.56 37.4111Z" fill="#FEFEF9"/>
<path d="M23.0558 37.3598C23.1533 37.3354 23.2608 37.3443 23.389 37.3783C23.2951 37.4 23.1804 37.3965 23.0558 37.3598Z" fill="#FEFEF9"/>
<path d="M29.8168 21.2147C30.4127 21.7753 30.4798 22.4859 30.4236 23.2476C30.396 23.6201 30.4425 23.9982 30.5219 24.4007C30.6003 24.5572 30.6124 24.6867 30.6244 24.8161C30.451 24.9968 30.2777 25.1776 30.0525 25.3789C29.8851 25.4417 29.7698 25.4839 29.6256 25.5186C29.5377 25.5114 29.4787 25.5117 29.4196 25.512C29.2944 25.3904 29.1693 25.2687 29.0186 25.1295C28.993 25.1119 28.9951 25.1085 28.9806 25.0833C28.9111 24.9547 28.8561 24.8513 28.7895 24.7262C28.7027 24.8869 28.6303 25.0208 28.5421 25.1574C28.5052 25.1721 28.496 25.1903 28.4985 25.2144C28.4106 25.2666 28.3228 25.3187 28.181 25.3885C27.9632 25.4129 27.7993 25.4197 27.6353 25.4265C27.6139 25.4141 27.5924 25.4017 27.522 25.3638C27.4097 25.3095 27.3464 25.2806 27.2831 25.2518C27.2498 25.2142 27.2165 25.1766 27.1536 25.1422C27.1241 25.1455 27.1283 25.1371 27.1283 25.1371C27.0745 25.0469 27.0206 24.9568 26.9682 24.8691C26.7119 25.067 26.4945 25.2349 26.2141 25.4121C26.0277 25.4273 25.9042 25.4332 25.7807 25.439C25.7185 25.4134 25.6563 25.3878 25.5599 25.324C25.4567 25.2389 25.3876 25.1919 25.3185 25.1448C25.242 25.0489 25.1654 24.953 25.1 24.871C24.8602 25.0783 24.6548 25.256 24.3869 25.4393C24.3123 25.5013 24.3001 25.5577 24.2878 25.6141C23.9714 25.3952 23.6549 25.1763 23.327 24.904C23.297 24.8185 23.2785 24.7865 23.26 24.7545C23.2287 24.8046 23.1974 24.8548 23.1661 24.9049C23.0284 25.0491 22.8908 25.1934 22.6995 25.3562C22.5505 25.3997 22.455 25.4245 22.3304 25.4405C22.1716 25.4306 22.0418 25.4297 21.912 25.4287C21.7362 25.2248 21.5605 25.0209 21.3787 24.81C21.2747 24.9405 21.1455 25.1027 20.9707 25.2926C20.6914 25.3527 20.6648 25.7977 20.326 25.6213C20.096 25.4004 19.866 25.1795 19.626 24.9044C19.5814 24.8188 19.5468 24.7874 19.5121 24.7559C19.4969 24.8055 19.4817 24.8552 19.4664 24.9048C19.2943 25.0598 19.1222 25.2148 18.8984 25.3927C18.7783 25.4778 18.7099 25.54 18.6415 25.6022C18.3464 25.5965 18.1841 25.3777 17.959 25.1621C17.8761 25.0743 17.8301 25.0246 17.7803 24.9429C17.7415 24.8731 17.7064 24.8351 17.6713 24.7972C17.6446 24.8564 17.6178 24.9155 17.5668 24.9892C17.4435 25.1144 17.3445 25.2252 17.2456 25.336C17.1949 25.3477 17.1442 25.3595 17.055 25.3903C17.0165 25.4094 16.9824 25.4364 16.9615 25.434C16.9406 25.4316 16.901 25.4461 16.8789 25.4383C16.8417 25.4347 16.8266 25.4389 16.7855 25.4364C16.6613 25.4311 16.5632 25.4325 16.4654 25.4073C16.4334 25.3696 16.4011 25.3586 16.3516 25.3385C16.3344 25.3295 16.297 25.3397 16.2784 25.3155C16.1089 25.1135 15.958 24.9357 15.8071 24.7579C15.7516 24.8734 15.6961 24.989 15.6406 25.1046C15.4903 25.2046 15.34 25.3046 15.127 25.4147C14.9414 25.4277 14.8185 25.4306 14.6718 25.4186C14.5792 25.3763 14.5105 25.3489 14.4234 25.3017C14.3 25.1853 14.1949 25.0888 14.0899 24.9923C14.0197 24.8802 13.9494 24.768 13.8479 24.6101C13.8698 24.3233 13.923 24.0824 13.9804 23.8088C13.9795 23.7109 13.9744 23.6457 13.9694 23.5805C13.9774 23.3413 13.9854 23.1021 13.9969 22.7949C13.9683 22.5726 13.9361 22.4183 13.9356 22.2522C13.9749 22.1307 13.9825 22.0209 13.9954 21.8736C13.9975 21.6853 13.9943 21.5345 13.9967 21.3471C13.9982 21.1884 13.9942 21.0661 13.9902 20.9438C13.9956 20.9044 14.0009 20.8651 13.9981 20.7679C13.989 20.4222 13.8177 20.32 13.5582 20.3138C13.5528 20.2779 13.5474 20.242 13.5481 20.1527C13.7849 19.8462 14.0154 19.593 14.2789 19.3538C14.5255 19.4024 14.7391 19.4371 14.9792 19.4857C15.0253 19.496 15.0449 19.4923 15.073 19.4943C15.0815 19.5 15.102 19.4999 15.1308 19.5209C15.2757 19.5572 15.3917 19.5724 15.5177 19.5845C15.5276 19.5813 15.5421 19.5661 15.5623 19.5893C15.7163 19.6576 15.8502 19.7028 16.0035 19.7701C16.0786 19.8105 16.1343 19.8289 16.2098 19.868C16.3368 19.917 16.444 19.9452 16.5796 19.984C16.7893 20.0826 16.9706 20.1707 17.1689 20.2831C17.4 20.4325 17.6212 20.5468 17.8271 20.684C19.1753 21.5822 20.2074 22.7821 21.108 24.1113C21.2083 24.2595 21.4023 24.3441 21.5529 24.4582C21.5796 24.4237 21.6062 24.3892 21.6328 24.3546C21.5944 24.2784 21.556 24.2022 21.5542 24.1209C21.6152 24.1126 21.6397 24.1094 21.689 24.1254C21.8387 24.2223 21.9636 24.3 22.1267 24.3916C23.153 24.4056 24.141 24.4056 25.1657 24.4056C25.1657 23.5952 25.1657 22.7971 25.1881 21.98C25.4314 21.6707 25.6523 21.3803 25.8109 21.1718C25.6296 21.0627 25.3605 20.9832 25.3521 20.8819C25.3086 20.3596 25.3319 19.8318 25.3319 19.2581C24.6388 18.7034 23.8795 18.0874 23.1086 17.4862C22.9702 17.3783 22.7843 17.3313 22.5824 17.2543C22.5123 17.3803 22.4544 17.5078 22.4523 17.6361C22.4424 18.2325 22.4725 18.8305 22.4383 19.425C22.4191 19.7587 22.5483 19.8939 22.8443 19.963C23.0605 20.0135 23.2683 20.1004 23.4941 20.1947C23.562 20.2206 23.6157 20.2229 23.6891 20.2351C23.7233 20.2475 23.7379 20.25 23.7681 20.2796C23.9297 20.3919 24.0758 20.477 24.2165 20.6037C24.2412 20.9513 24.2713 21.2573 24.2921 21.5878C24.2513 21.6531 24.2198 21.6939 24.1482 21.728C23.1161 21.7217 22.1239 21.7219 21.1179 21.6954C21.0542 21.5455 21.0043 21.4225 20.9838 21.2883C21.175 20.885 21.1554 20.8105 20.8786 20.7362C21.0657 20.4248 21.3315 20.2633 21.6568 20.2258C21.6685 20.3166 21.6769 20.4148 21.6867 20.4149C22.1984 20.4223 22.7102 20.4215 23.222 20.4215C23.2274 20.3901 23.2327 20.3587 23.2381 20.3274C22.8559 20.1815 22.4736 20.0356 22.1291 19.8846C22.2073 19.7825 22.2823 19.6857 22.2829 19.5885C22.2873 18.7789 22.278 17.9693 22.2908 17.1451C22.3199 17.12 22.331 17.1093 22.3697 17.0982C22.4698 17.0895 22.5423 17.0813 22.637 17.0756C22.6736 17.0751 22.6881 17.0719 22.7289 17.0743C22.8254 17.0889 22.8957 17.0978 22.9659 17.1068C23.0065 17.1264 23.0471 17.1459 23.1544 17.1437C23.2211 17.122 23.2272 17.1274 23.2035 17.1502C23.3084 17.26 23.4368 17.347 23.581 17.4571C23.6792 17.5229 23.7617 17.5654 23.8442 17.608C23.9677 17.6722 24.0912 17.7365 24.2634 17.828C24.7024 18.0706 25.0926 18.2858 25.4984 18.5236C25.5674 18.5557 25.6207 18.565 25.6824 18.5994C25.7218 18.6362 25.753 18.6479 25.8026 18.6799C25.9185 18.748 26.0157 18.7957 26.1308 18.8647C26.1997 18.9052 26.2507 18.9244 26.3018 18.9436C26.3386 18.9684 26.3754 18.9931 26.4516 19.0495C26.5861 19.0672 26.6811 19.0533 26.8027 19.0403C26.8627 19.0294 26.896 19.0175 26.9625 19.009C27.062 19.0056 27.1283 18.9986 27.1946 18.9917C27.2588 19.0033 27.323 19.0149 27.4245 19.0509C27.4906 19.0792 27.5194 19.083 27.5482 19.0868C27.6121 19.103 27.676 19.1192 27.7891 19.1557C27.9446 19.2092 28.051 19.2423 28.1565 19.2752C28.1556 19.275 28.1553 19.2769 28.1743 19.2997C28.271 19.3321 28.3487 19.3418 28.4532 19.3668C28.579 19.4061 28.6779 19.43 28.7993 19.4713C28.8949 19.5037 28.968 19.5188 29.0685 19.5489C29.2727 19.6188 29.4494 19.6736 29.6376 19.7666C29.6739 20.2008 29.6988 20.5969 29.7054 21.0232C29.7304 21.1071 29.7736 21.1609 29.8168 21.2147ZM29.8004 24.3795C29.8405 24.3767 29.8806 24.3739 29.9961 24.3834C30.0215 24.3538 30.0689 24.3245 30.0691 24.2948C30.0739 23.6236 30.0789 22.9524 30.0683 22.2814C30.0666 22.1774 30.0062 22.0622 29.943 21.9735C29.7623 21.7197 29.5724 21.4716 29.372 21.2332C29.3176 21.1685 29.1955 21.0955 29.1363 21.1164C29.0614 21.1428 29.0189 21.2613 28.9718 21.327C28.827 21.2799 28.6806 21.2323 28.5204 21.1251C28.4648 21.1287 28.4092 21.1322 28.3536 21.1358C28.3802 21.1753 28.4068 21.2148 28.4616 21.3098C28.8219 21.7217 29.0909 22.1496 29.0107 22.75C28.9511 23.196 28.9878 23.6568 29.0086 24.1098C29.0126 24.1967 29.1423 24.2777 29.2786 24.3546C29.4012 24.3333 29.5237 24.312 29.6599 24.3364C29.6871 24.3462 29.7143 24.3559 29.8004 24.3795ZM27.2527 21.1965C27.269 21.1517 27.2852 21.1069 27.3015 21.0621C27.2695 21.0584 27.2374 21.0546 27.1408 21.0819C27.0695 21.0846 26.9981 21.0873 26.8689 21.0513C26.731 21.0636 26.5931 21.0758 26.4015 21.0766C26.1076 21.4724 25.8137 21.8682 25.5032 22.345C25.5091 22.9634 25.515 23.5818 25.5062 24.2638C25.5405 24.3031 25.5748 24.3425 25.6867 24.402C25.9534 24.3955 26.2201 24.389 26.5525 24.3825C26.56 24.3217 26.5674 24.2609 26.5922 24.1192C26.5857 23.442 26.5791 22.7649 26.5915 22.0308C26.7956 21.7594 26.9996 21.488 27.2527 21.1965ZM26.9144 24.2822C26.9598 24.325 27.0047 24.4044 27.0508 24.4051C27.5874 24.4138 28.1242 24.4107 28.6681 24.4107C28.6681 23.7262 28.6681 23.0844 28.6849 22.3828C28.6813 22.3417 28.6776 22.3005 28.6727 22.1985C28.3912 21.8066 28.1097 21.4147 27.7708 20.9429C27.4502 21.4468 27.1905 21.8549 26.9133 22.344C26.9186 22.9627 26.9239 23.5815 26.9144 24.2822Z" fill="#E1E0E7"/>
<path d="M25.1797 27.6281C25.173 27.6438 25.1663 27.6595 25.1571 27.7276C25.1555 27.8174 25.1563 27.8547 25.1571 27.892C24.8929 28.7489 24.2064 28.9616 23.403 29.0011C23.3882 29.225 23.3751 29.4237 23.3605 29.645C22.9997 29.645 22.6589 29.645 22.2977 29.645C22.2977 28.6205 22.2977 27.6189 22.2977 26.5948C22.9756 26.5948 23.6447 26.5532 24.3053 26.6095C24.7414 26.6466 25.0286 26.9623 25.1454 27.4643C25.1689 27.5551 25.1743 27.5916 25.1797 27.6281ZM23.564 28.6391C23.9511 28.4067 24.0818 27.9272 23.9316 27.2788C23.8702 27.0139 23.7213 26.8683 23.3808 26.9328C23.3808 27.3791 23.3728 27.8302 23.386 28.2808C23.3897 28.4066 23.4559 28.5307 23.564 28.6391Z" fill="#ACABB7"/>
<path d="M16.5512 19.9735C16.444 19.9452 16.3368 19.917 16.2437 19.8597C16.3019 19.7135 16.3459 19.5963 16.3938 19.4688C16.317 19.4452 16.2378 19.421 16.1246 19.3793C15.9925 19.3499 15.8945 19.338 15.7835 19.3009C15.6344 19.2436 15.4983 19.2116 15.3392 19.1534C15.2672 19.1421 15.2183 19.1569 15.1602 19.1601C15.1275 19.1415 15.1121 19.1497 15.1081 19.1323C15.0613 19.0751 15.0114 19.0589 14.9351 19.0297C14.7747 18.9932 14.6405 18.9699 14.4727 18.9379C13.8534 18.8601 13.7811 19.4816 13.3706 19.7196C13.3382 19.5598 13.309 19.4155 13.2798 19.2713C13.5414 18.9132 13.803 18.5552 14.1166 18.1682C14.381 18.1739 14.5933 18.2086 14.8073 18.2405C14.8088 18.2377 14.8049 18.2418 14.8286 18.2651C15.0355 18.3541 15.2187 18.4198 15.4305 18.4905C15.4977 18.4904 15.5363 18.4853 15.5748 18.4802C15.6725 18.5443 15.7701 18.6083 15.8987 18.6905C16.0135 18.7541 16.0974 18.7997 16.1813 18.8452C16.1963 18.8545 16.2113 18.8638 16.2552 18.8699C16.2842 18.8667 16.2786 18.8707 16.2786 18.8707C16.3465 18.9116 16.4145 18.9525 16.5216 19.0283C16.6287 19.0851 16.6967 19.1071 16.7646 19.129C16.9426 19.2179 17.1339 19.475 17.304 19.0622C17.392 18.9951 17.4502 18.9544 17.5272 18.914C17.5932 18.9161 17.6404 18.918 17.6929 18.9592C17.6972 19.1422 17.7127 19.2883 17.6926 19.4293C17.607 20.0302 18.31 19.8039 18.4666 20.1634C18.4883 20.2133 18.6902 20.1848 18.8436 20.2093C18.9815 20.2307 19.0844 20.2354 19.198 20.271C19.3083 20.37 19.4077 20.4381 19.5072 20.5062C19.3963 20.6197 19.2855 20.7333 19.1938 20.8272C19.6921 21.3796 20.231 21.9769 20.7647 22.5684C20.7899 22.457 20.8226 22.3129 20.8824 22.1648C20.93 22.1911 20.9504 22.2215 20.9699 22.2874C21.0205 22.48 21.0718 22.637 21.1071 22.8246C21.0849 22.9277 21.0485 23.0166 21.0775 23.0705C21.2651 23.42 21.4669 23.7619 21.6641 24.1062C21.6397 24.1094 21.6152 24.1126 21.5323 24.1026C20.995 23.4451 20.5511 22.7708 20.0294 22.1633C19.2485 21.254 18.3696 20.4459 17.2377 19.9138C16.9703 19.8115 16.7253 19.7307 16.4802 19.6499C16.4631 19.6914 16.446 19.733 16.4289 19.7746C16.4697 19.8409 16.5104 19.9072 16.5512 19.9735Z" fill="#E1E0E7"/>
<path d="M19.5584 29.1371C19.6258 29.1946 19.6896 29.296 19.7613 29.3019C20.0345 29.3246 20.3139 29.2927 20.5831 29.3333C20.6739 29.347 20.7414 29.5157 20.7639 29.6048C19.9684 29.5868 19.2285 29.5774 18.4885 29.5679C18.4853 29.5531 18.4821 29.5382 18.5196 29.4922C18.5922 29.3269 18.6498 29.193 18.6517 29.0584C18.6611 28.3702 18.6455 27.6814 18.6669 26.9937C18.6704 26.8821 18.8114 26.6846 18.8965 26.6803C19.4573 26.652 20.0203 26.6657 20.7112 26.6657C20.263 26.7511 19.9486 26.811 19.6342 26.8709C19.5405 27.1594 19.6456 27.2715 19.9465 27.2613C20.2358 27.2516 20.5263 27.2783 20.7928 27.3327C20.3743 27.4232 19.9794 27.4699 19.5584 27.5198C19.5584 28.0654 19.5584 28.6012 19.5584 29.1371Z" fill="#ACABB7"/>
<path d="M19.6742 26.8732C19.9486 26.811 20.263 26.7511 20.7112 26.6657C20.0203 26.6657 19.4573 26.652 18.8965 26.6803C18.8114 26.6846 18.6704 26.8821 18.6669 26.9937C18.6455 27.6814 18.6611 28.3702 18.6517 29.0584C18.6498 29.193 18.5922 29.3269 18.5266 29.4704C18.4885 29.465 18.4843 29.4503 18.4721 29.4139C18.4686 28.5378 18.4729 27.6835 18.4701 26.788C18.463 26.747 18.4793 26.7499 18.4993 26.7432C18.5105 26.7129 18.5016 26.6892 18.4926 26.6655C18.5749 26.6304 18.6567 26.5662 18.7395 26.5649C19.325 26.5561 19.9109 26.5521 20.4962 26.5668C20.6185 26.5699 20.7386 26.6572 20.8596 26.7057C20.8479 26.7623 20.8361 26.8189 20.8243 26.8754C20.4543 26.8754 20.0843 26.8754 19.6742 26.8732Z" fill="#ACABB7"/>
<path d="M25.7056 29.0986C26.1695 29.0986 26.6335 29.0986 27.1432 29.0986C27.0431 29.4852 26.87 29.6689 26.5242 29.6638C26.2458 29.6596 25.9673 29.6653 25.6628 29.628C25.6598 29.4258 25.6827 29.2622 25.7056 29.0986Z" fill="#ACABB7"/>
<path d="M21.8241 29.4691C21.6397 29.5808 21.4556 29.6511 21.22 29.7412C21.22 29.4436 21.22 29.2515 21.22 29.0395C21.4183 29.0395 21.5982 29.0395 21.8047 29.0395C21.8117 29.1772 21.818 29.3025 21.8241 29.4691Z" fill="#ACABB7"/>
<path d="M25.6832 29.0685C25.6827 29.2622 25.6598 29.4258 25.6224 29.6214C25.095 29.7464 25.1082 29.4287 25.1611 29.0384C25.3268 29.0384 25.4938 29.0384 25.6832 29.0685Z" fill="#ACABB7"/>
<path d="M18.5005 29.6047C19.2285 29.5773 19.9684 29.5868 20.7355 29.6198C20.0126 29.6429 19.2625 29.6422 18.5005 29.6047Z" fill="#ACABB7"/>
<path d="M18.6748 25.6032C18.7099 25.54 18.7783 25.4778 18.88 25.4152C18.8449 25.4779 18.7765 25.541 18.6748 25.6032Z" fill="#F3F3F3"/>
<path d="M19.4902 24.9051C19.4817 24.8552 19.4969 24.8055 19.5121 24.7559C19.5468 24.7874 19.5814 24.8188 19.6126 24.8774C19.5773 24.9049 19.5456 24.9052 19.4902 24.9051Z" fill="#F3F3F3"/>
<path d="M23.1899 24.9053C23.1974 24.8548 23.2287 24.8046 23.26 24.7545C23.2785 24.7865 23.297 24.8185 23.3122 24.8775C23.2771 24.9048 23.2454 24.9052 23.1899 24.9053Z" fill="#F3F3F3"/>
<path d="M18.5106 25.8379C18.4659 25.8389 18.4397 25.8195 18.4135 25.8C18.452 25.8059 18.4906 25.8117 18.5106 25.8379Z" fill="#949494"/>
<path d="M30.712 25.0138C30.7214 25.0277 30.7167 25.0418 30.712 25.056C30.7073 25.042 30.7026 25.028 30.712 25.0138Z" fill="#D0D0D0"/>
<path d="M18.4879 26.688C18.5016 26.6892 18.5105 26.7129 18.5072 26.7458C18.491 26.7402 18.4871 26.7254 18.4879 26.688Z" fill="#ACABB7"/>
<path d="M32.3335 17.1741C32.6763 17.0153 32.9904 16.8701 33.4181 16.6725C33.3809 16.8891 33.4035 17.0917 33.3273 17.1408C33.0657 17.3093 32.7761 17.4428 32.4818 17.5457C32.4103 17.5707 32.2801 17.4278 32.1769 17.362C32.2195 17.3039 32.2622 17.2458 32.3335 17.1741Z" fill="#ACABB7"/>
<path d="M34.395 16.6257C34.1308 16.8343 33.8956 16.9257 33.6404 16.5737C33.8962 16.4507 34.1338 16.3365 34.4542 16.1825C34.4394 16.3581 34.4291 16.4804 34.395 16.6257Z" fill="#ACABB7"/>
<path d="M19.8665 9.02144C19.9557 9.48705 20.0381 9.9182 20.1069 10.3515C20.1617 10.6963 20.0585 10.9576 19.6213 11.0736C19.473 10.2641 19.327 9.46693 19.1776 8.65138C19.5405 8.5049 19.7276 8.6832 19.8665 9.02144Z" fill="#ACABB7"/>
<path d="M10.3602 18.5093C9.84872 18.3308 9.36965 18.1664 8.86472 17.9932C8.9954 17.6143 9.22019 17.4568 9.57145 17.5736C9.88634 17.6783 10.2089 17.7928 10.4829 17.9719C10.5967 18.0464 10.5933 18.3001 10.6431 18.4722C10.5597 18.4893 10.4762 18.5063 10.3602 18.5093Z" fill="#ACABB7"/>
<path d="M32.466 13.2562C31.9213 13.7777 31.3929 14.2761 30.8406 14.7466C30.7566 14.8181 30.4786 14.8137 30.4368 14.7494C30.3622 14.6345 30.3278 14.3721 30.4012 14.3021C30.9062 13.8204 31.4239 13.3467 31.9789 12.925C32.2471 12.7212 32.4358 12.9105 32.466 13.2562Z" fill="#ACABB7"/>
<path d="M23.4966 8.31641C23.6354 8.44994 23.8384 8.58546 23.8305 8.70727C23.788 9.36029 23.7091 10.0126 23.6022 10.6583C23.5817 10.7819 23.3792 10.8753 23.2606 10.9826C23.1578 10.8459 22.9593 10.7024 22.9683 10.5735C23.014 9.92036 23.1028 9.26932 23.2045 8.62197C23.2225 8.50793 23.3737 8.41484 23.4966 8.31641Z" fill="#ACABB7"/>
<path d="M14.72 13.6601C14.5269 13.6227 14.3109 13.6165 14.2075 13.5054C13.8015 13.0691 13.4135 12.6126 13.0596 12.1335C12.972 12.0149 13.0377 11.783 13.033 11.6031C13.2101 11.6355 13.4535 11.6056 13.5529 11.7112C13.9807 12.1659 14.3813 12.6491 14.7549 13.1494C14.833 13.2541 14.7549 13.4755 14.72 13.6601Z" fill="#ACABB7"/>
<path d="M33.3768 24.9749C33.934 25.1242 34.4633 25.2437 34.9717 25.4226C35.112 25.4719 35.19 25.6981 35.2966 25.8432C35.1424 25.9168 34.9717 26.0754 34.8368 26.0493C34.2784 25.9414 33.7295 25.7826 33.18 25.632C32.9435 25.5672 32.6391 25.5134 32.7264 25.1675C32.8116 24.8297 33.0921 24.9036 33.3768 24.9749Z" fill="#ACABB7"/>
<path d="M10.5004 25.3874C10.5538 25.4755 10.5862 25.5387 10.6413 25.6461C10.0467 25.8098 9.47893 25.9661 8.76326 26.1632C8.85393 25.898 8.86795 25.6776 8.98428 25.5517C9.28973 25.2211 10.1148 25.1404 10.5004 25.3874Z" fill="#ACABB7"/>
<path d="M10.7363 21.6105C10.9364 22.0191 10.8556 22.2021 10.4625 22.2051C9.83639 22.2097 9.20901 22.188 8.58436 22.1452C8.45389 22.1362 8.26832 22.0098 8.22806 21.8954C8.19536 21.8024 8.33932 21.6446 8.41059 21.5187C8.45561 21.4392 8.49586 21.3454 8.56491 21.2935C8.71465 21.1811 8.87292 21.0501 9.04589 21.0141C9.10893 21.001 9.22361 21.2363 9.31473 21.3583C9.29494 21.3951 9.27515 21.4319 9.25537 21.4687C9.7401 21.5089 10.2248 21.549 10.7363 21.6105Z" fill="#ACABB7"/>
<path d="M31.3573 22.2609C31.3274 22.2641 31.3253 22.2233 31.3249 22.203C31.3746 22.127 31.4247 22.0714 31.4747 22.0158C31.5024 22.0423 31.53 22.0688 31.5576 22.0954C31.5009 22.1495 31.4441 22.2037 31.3573 22.2609Z" fill="#FBFCF9"/>
<path d="M20.9838 21.2883C20.8828 21.2581 20.8112 21.2167 20.7042 21.1561C20.6703 21.0224 20.6717 20.9079 20.673 20.7933C20.72 20.794 20.7669 20.7947 20.8467 20.7823C21.1554 20.8105 21.175 20.885 20.9838 21.2883Z" fill="#454545"/>
<path d="M17.7803 24.9429C17.7292 24.9897 17.6743 25.0045 17.6053 24.997C17.6178 24.9155 17.6446 24.8564 17.6713 24.7972C17.7064 24.8351 17.7415 24.8731 17.7803 24.9429Z" fill="#FBFCF9"/>
<path d="M28.4594 21.2381C28.4068 21.2148 28.3802 21.1753 28.3536 21.1358C28.4092 21.1322 28.4648 21.1287 28.5274 21.1549C28.518 21.197 28.5017 21.2094 28.4594 21.2381Z" fill="#F5F5F5"/>
<path d="M27.2282 21.2066C27.2033 21.1889 27.2028 21.1613 27.2038 21.0923C27.2374 21.0546 27.2695 21.0584 27.3015 21.0621C27.2852 21.1069 27.269 21.1517 27.2282 21.2066Z" fill="#7D7D7D"/>
<path d="M15.073 19.4943C15.0747 19.443 15.085 19.3973 15.0952 19.3517C15.1033 19.3836 15.1113 19.4155 15.1107 19.4737C15.102 19.4999 15.0815 19.5 15.073 19.4943Z" fill="#949494"/>
<path d="M25.5136 24.232C25.5492 24.2427 25.5774 24.2852 25.6074 24.3548C25.5748 24.3425 25.5405 24.3031 25.5136 24.232Z" fill="#F5F5F5"/>
<path d="M26.4832 24.232C26.4964 24.2012 26.5121 24.2003 26.5514 24.1998C26.5674 24.2609 26.56 24.3217 26.5197 24.3825C26.4864 24.3423 26.486 24.3021 26.4832 24.232Z" fill="#F5F5F5"/>
<path d="M16.9615 25.434C16.9824 25.4364 16.9559 25.468 16.9559 25.468C16.9559 25.468 16.9207 25.4657 16.9109 25.4559C16.901 25.4461 16.9406 25.4316 16.9615 25.434Z" fill="#FBFCF9"/>
<path d="M16.4654 25.4073C16.44 25.4183 16.4149 25.4026 16.3793 25.3673C16.4011 25.3586 16.4334 25.3696 16.4654 25.4073Z" fill="#AAAAAA"/>
<path d="M25.6824 18.5994C25.6922 18.5729 25.7103 18.5713 25.7556 18.5672C25.7831 18.5805 25.7835 18.5964 25.784 18.6359C25.753 18.6479 25.7218 18.6362 25.6824 18.5994Z" fill="#FBFCF9"/>
<path d="M15.5891 19.461C15.6123 19.4736 15.6033 19.4955 15.5682 19.5418C15.5421 19.5662 15.5276 19.5813 15.5177 19.5845C15.5241 19.5486 15.5405 19.5096 15.5891 19.461Z" fill="#9A9A9A"/>
<path d="M18.7684 18.5734C18.7684 18.5734 18.7833 18.5614 18.7824 18.5873C18.8935 18.6464 19.0055 18.6796 19.1174 18.7128C19.1174 18.7128 19.1192 18.7099 19.1173 18.7114C19.334 18.8684 19.7131 18.8697 19.6635 19.2835C19.6618 19.2971 19.6665 19.3232 19.672 19.3242C19.7522 19.3395 19.833 19.3523 19.9141 19.3628C19.9192 19.3634 19.9274 19.3399 19.9341 19.3276C19.9748 19.381 20.0043 19.4584 20.0582 19.4838C20.3148 19.6045 20.4295 19.7984 20.3873 20.0765C20.3839 20.099 20.2926 20.1081 20.2135 20.1022C20.1849 20.0809 20.188 20.0804 20.1829 20.0726C20.1777 20.0649 20.1595 20.0608 20.1464 20.0337C19.7907 19.8192 19.4481 19.6317 19.091 19.4218C19.026 19.3881 18.9755 19.3768 18.9023 19.3556C18.8639 19.3504 18.8481 19.355 18.8323 19.3596C18.5525 19.3596 18.2727 19.3596 17.9406 19.3596C17.9406 19.2156 17.9406 19.0197 17.9544 18.7881C18.0126 18.7369 18.0569 18.7213 18.1149 18.6863C18.1796 18.6558 18.2307 18.6447 18.3285 18.6205C18.4058 18.5912 18.4364 18.5751 18.4671 18.559C18.4852 18.5604 18.5033 18.5618 18.5727 18.5791C18.672 18.5877 18.7202 18.5806 18.7684 18.5734Z" fill="#E1E0E7"/>
<path d="M20.8637 22.1402C20.7466 22.1004 20.6323 22.0222 20.518 21.9439C20.5603 21.9258 20.6026 21.9077 20.6449 21.8896C20.6196 21.7317 20.6189 21.5639 20.5605 21.4194C20.5208 21.3212 20.3942 21.2611 20.3173 21.1744C20.1677 21.0056 19.9268 20.8469 20.2318 20.6011C20.2506 20.5859 20.1918 20.4744 20.2054 20.3865C20.37 20.4951 20.4983 20.6248 20.6499 20.7739C20.6717 20.9079 20.6703 21.0224 20.6737 21.1711C20.7411 21.504 20.8038 21.8028 20.8637 22.1402Z" fill="#E1E0E7"/>
<path d="M19.9949 20.2833C20.0203 20.2379 20.0579 20.234 20.1235 20.2357C20.1573 20.2571 20.1631 20.273 20.186 20.3077C20.1378 20.3259 20.0725 20.3253 19.9949 20.2833Z" fill="#E1E0E7"/>
<path d="M15.1081 19.1323C15.0808 19.1768 15.0567 19.1802 14.9961 19.1841C14.9611 19.1611 14.9626 19.1374 14.9628 19.0783C15.0114 19.0589 15.0613 19.0751 15.1081 19.1323Z" fill="#E9E9E9"/>
<path d="M15.3392 19.1534C15.3298 19.1841 15.2974 19.1887 15.2172 19.1824C15.2183 19.1569 15.2672 19.1421 15.3392 19.1534Z" fill="#E9E9E9"/>
<path d="M23.9569 23.1283C23.9065 23.1362 23.8842 23.1196 23.8585 23.0767C23.8925 23.0092 23.9353 22.9609 24.0002 22.9027C24.0081 22.9655 23.9939 23.0383 23.9569 23.1283Z" fill="#D0D0D0"/>
<path d="M24.1725 22.7821C24.1759 22.7986 24.1576 22.8284 24.1132 22.866C24.1084 22.8476 24.1297 22.8215 24.1725 22.7821Z" fill="#D0D0D0"/>
<path d="M23.0217 19.4069C23.0616 19.4172 23.0861 19.4423 23.1086 19.4691C23.1092 19.4698 23.089 19.4881 23.0785 19.4982C23.0544 19.4728 23.0302 19.4474 23.0217 19.4069Z" fill="#AAAAAA"/>
<path d="M19.0484 19.4454C19.0023 19.4312 18.9752 19.418 18.9365 19.3851C18.9755 19.3768 19.026 19.3881 19.091 19.4218C19.1054 19.4442 19.0674 19.4463 19.0484 19.4454Z" fill="#CBCBCB"/>
<path d="M20.1829 20.0726C20.1686 20.0814 20.1492 20.0825 20.1446 20.0722C20.1595 20.0608 20.1777 20.0649 20.1829 20.0726Z" fill="#F5F5F5"/>
</g>
</svg>
