<svg width="83" height="22" viewBox="0 0 83 22" fill="none" xmlns="http://www.w3.org/2000/svg">
<g id="Group">
<path id="Vector" fill-rule="evenodd" clip-rule="evenodd" d="M63.1635 20.0268C63.1635 21.0281 62.3285 21.7938 61.2771 21.7938C60.2565 21.7938 59.4216 21.0281 59.4216 20.0268V1.76707C59.4216 0.795182 60.2256 0 61.2771 0C62.3285 0 63.1635 0.795182 63.1635 1.76707V20.0268ZM26.8377 2.09119C26.8377 3.15143 25.91 3.85826 24.7039 3.85826C23.4979 3.85826 22.5701 3.15143 22.5701 2.09119V1.91448C22.5701 0.854236 23.4979 0.176863 24.7039 0.176863C25.91 0.176863 26.8377 0.854236 26.8377 1.91448V2.09119ZM18.864 19.2316C16.823 20.9398 14.5036 22 11.0092 22C4.70054 22 0 17.3173 0 11.3976V11.3387C0 5.47791 4.60777 0.677376 11.1637 0.677376C14.5036 0.677376 16.6993 1.61981 18.5857 3.00401C18.9877 3.29853 19.3279 3.7992 19.3279 4.44712C19.3279 5.44846 18.4929 6.21419 17.4415 6.21419C16.9157 6.21419 16.5446 6.03748 16.2973 5.86078C14.8129 4.71218 13.2048 4.00535 11.1328 4.00535C7.01988 4.00535 3.98927 7.24498 3.98927 11.2798V11.3387C3.98927 15.3735 6.98895 18.6426 11.1328 18.6426C13.4213 18.6426 14.9675 17.9357 16.5447 16.6693C16.823 16.4338 17.225 16.2571 17.6889 16.2571C18.6476 16.2571 19.4825 17.0227 19.4825 17.9357C19.4825 18.4953 19.2041 18.937 18.864 19.2316ZM24.7049 21.7938C25.7563 21.7938 26.5913 21.0281 26.5913 20.0268V7.7162C26.5913 6.71486 25.7563 5.91968 24.7049 5.91968C23.6534 5.91968 22.8494 6.71486 22.8494 7.7162V20.0268C22.8494 21.0281 23.6843 21.7938 24.7049 21.7938ZM34.5041 20.0268C34.5041 20.9987 33.6692 21.7938 32.6177 21.7938C31.5972 21.7938 30.7623 21.0281 30.7623 20.0268V7.7162C30.7623 6.71486 31.5663 5.91968 32.6177 5.91968C33.6692 5.91968 34.5041 6.71486 34.5041 7.7162V9.30655C35.37 7.36279 36.9781 5.89022 38.6171 5.89022C39.7922 5.89022 40.4725 6.6265 40.4725 7.6573C40.4725 8.59972 39.8232 9.21824 38.9881 9.36548C36.3287 9.80721 34.5041 11.751 34.5041 15.4324V20.0268ZM49.8079 22C52.5293 22 54.2919 21.1165 55.7454 19.7912C56.0856 19.5261 56.2711 19.1432 56.2711 18.672C56.2711 17.818 55.5599 17.1111 54.6631 17.1111C54.2301 17.1111 53.859 17.3173 53.6426 17.494C52.6221 18.3186 51.4778 18.8782 49.9935 18.8782C47.1175 18.8782 45.1074 16.6693 45.1074 13.9009V13.842C45.1074 11.1325 47.1175 8.89421 49.8389 8.89421C51.3232 8.89421 52.3746 9.45379 53.3333 10.2195C53.5807 10.3963 53.9827 10.573 54.4466 10.573C55.4053 10.573 56.1784 9.86614 56.1784 8.95314C56.1784 8.36409 55.8382 7.92236 55.5908 7.7162C54.1992 6.5676 52.4365 5.77242 49.8698 5.77242C44.9527 5.77242 41.3655 9.48326 41.3655 13.9009V13.9599C41.3655 18.3775 44.9527 22 49.8079 22ZM74.8197 22C77.3555 22 79.211 21.2048 80.6954 19.9384C80.9737 19.6733 81.1902 19.2905 81.1902 18.8487C81.1902 18.024 80.5407 17.4056 79.7058 17.4056C79.2729 17.4056 79.0255 17.5234 78.7471 17.7296C77.6957 18.5542 76.4587 19.0843 74.8816 19.0843C72.4694 19.0843 70.583 17.6706 70.181 15.1379H80.4171C81.3758 15.1379 82.1799 14.4311 82.1799 13.4297C82.1799 9.83667 79.613 5.77239 74.4177 5.77239C69.7481 5.77239 66.4392 9.42433 66.4392 13.8715V13.9303C66.4392 18.7309 70.0882 22 74.8197 22ZM70.15 12.7818H78.5306C78.2832 10.4846 76.8606 8.68811 74.3867 8.68811C72.0982 8.68811 70.4902 10.3669 70.15 12.7818Z" fill="white"/>
</g>
</svg>
