<svg width="101" height="22" viewBox="0 0 101 22" fill="none" xmlns="http://www.w3.org/2000/svg">
<g id="Group">
<path id="Vector" d="M34.7575 7.61655C34.7575 7.15758 34.3858 6.78101 33.8655 6.78101C33.3452 6.78101 32.9735 7.15758 32.9735 7.61655V14.395C32.9735 14.854 33.3452 15.2306 33.8655 15.2306C34.3981 15.2306 34.7575 14.854 34.7575 14.395V7.61655Z" fill="white"/>
<path id="Vector_2" d="M43.5412 6.78101C43.0209 6.78101 42.6616 7.15758 42.6616 7.61655V10.5115L42.7111 13.1006L41.6334 10.6763L40.2211 7.92253C39.7875 7.06344 39.292 6.78101 38.5858 6.78101C37.5453 6.78101 37.0869 7.40472 37.0869 8.2991V14.395C37.0869 14.854 37.4461 15.2306 37.9665 15.2306C38.4868 15.2306 38.846 14.854 38.846 14.395L38.8336 11.5354L38.7965 8.60508L39.9486 11.2882L41.3732 14.089C41.8193 14.9834 42.29 15.2424 43.0085 15.2424C43.9376 15.2424 44.4207 14.701 44.4207 13.7008V7.61655C44.4207 7.15758 44.0615 6.78101 43.5412 6.78101Z" fill="white"/>
<path id="Vector_3" d="M50.9983 8.51098L53.0176 8.55806C53.4884 8.56982 53.8601 8.22855 53.8601 7.73428C53.8601 7.24001 53.4884 6.89873 53.0176 6.89873L47.1703 6.88696C46.712 6.88696 46.3279 7.22824 46.3279 7.72251C46.3279 8.21678 46.712 8.55806 47.1703 8.54628L49.202 8.51098V14.3951C49.202 14.8541 49.5736 15.2307 50.094 15.2307C50.6266 15.2307 50.9983 14.8541 50.9983 14.3951V8.51098Z" fill="white"/>
<path id="Vector_4" d="M56.9847 15.1247H61.3329C61.7913 15.1247 62.163 14.7952 62.163 14.3362C62.163 13.8655 61.7913 13.536 61.3329 13.536L57.5545 13.5478V11.5824H60.825C61.271 11.5824 61.6303 11.2647 61.6303 10.8293C61.6303 10.3821 61.271 10.0643 60.825 10.0643L57.5545 10.0879V8.46389H61.3329C61.7913 8.46389 62.163 8.13438 62.163 7.66365C62.163 7.19292 61.7913 6.87518 61.3329 6.87518L56.997 6.88694C56.2041 6.88694 55.7582 7.3106 55.7582 8.06377V13.9479C55.7582 14.701 56.2041 15.1247 56.9847 15.1247Z" fill="white"/>
<path id="Vector_5" d="M69.2456 11.7708C70.4224 11.4766 71.1162 10.6058 71.1162 9.45244C71.1162 8.16971 70.2366 6.88696 68.1306 6.88696H65.4051C64.6123 6.88696 64.1663 7.31062 64.1663 8.06379V14.3951C64.1663 14.8541 64.538 15.2307 65.0831 15.2307C65.6157 15.2307 65.9998 14.8541 65.9998 14.3951L65.9874 12.1826H67.4864L69.0101 14.7952C69.2579 15.1954 69.7782 15.3601 70.2614 15.1247C70.7446 14.8776 70.8808 14.3833 70.6207 13.9832L69.2456 11.7708ZM65.9874 8.45214H68.143C68.8739 8.45214 69.3323 8.88756 69.3323 9.53482C69.3323 10.1703 68.8987 10.6411 68.1678 10.6411H65.9874V8.45214Z" fill="white"/>
<path id="Vector_6" d="M76.5879 15.2776C78.3967 15.2776 79.5611 14.501 79.9575 13.2418C80.1682 12.5239 79.7222 12.0061 79.0532 12.0061C78.6443 12.0061 78.3718 12.2061 78.2108 12.6416C77.9631 13.3006 77.356 13.7125 76.4888 13.7125C75.1137 13.7125 74.519 12.8298 74.519 10.994C74.519 9.19348 75.1261 8.3344 76.4888 8.3344C77.3436 8.3344 77.8392 8.67568 78.1489 9.46415C78.3223 9.91136 78.6073 10.1114 79.0284 10.1114C79.6726 10.1114 80.1433 9.61714 79.9452 8.93459C79.5488 7.54593 78.3967 6.76923 76.5383 6.76923C73.9864 6.76923 72.6855 8.25203 72.6855 10.994C72.6855 13.7595 73.9864 15.2776 76.5879 15.2776Z" fill="white"/>
<path id="Vector_7" d="M85.3956 15.2542C88.022 15.2542 89.3227 13.7242 89.3227 10.994C89.3227 8.24027 87.9848 6.72217 85.3956 6.72217C82.7941 6.72217 81.4932 8.2638 81.4809 10.994C81.4809 13.736 82.8064 15.2542 85.3956 15.2542ZM85.3956 13.6772C83.9337 13.6772 83.302 12.7946 83.302 10.994C83.302 9.16996 83.9462 8.28734 85.3832 8.28734C86.8326 8.28734 87.514 9.16996 87.5017 10.994C87.5017 12.8063 86.8575 13.6772 85.3956 13.6772Z" fill="white"/>
<path id="Vector_8" d="M100.855 8.25203C100.855 7.32233 100.248 6.76923 99.3066 6.76923C98.5385 6.76923 97.9563 7.16935 97.6714 8.08727L96.7175 11.0411L96.0857 13.1711L95.4787 11.0411L94.4628 8.08727C94.1778 7.22819 93.6823 6.76923 92.8151 6.76923C91.8612 6.76923 91.2665 7.31056 91.2665 8.25203V14.395C91.2665 14.854 91.6134 15.2306 92.1213 15.2306C92.6293 15.2306 92.9761 14.854 92.9761 14.395L92.9638 11.4295L92.8771 8.25203L93.8558 11.5001L94.8964 14.3715C95.1193 15.007 95.5406 15.2189 96.0857 15.2189C96.5936 15.2189 97.0024 15.0423 97.213 14.395L98.204 11.5001L99.2571 8.22849L99.158 11.4295V14.395C99.158 14.854 99.5172 15.2306 100.013 15.2306C100.521 15.2306 100.868 14.854 100.868 14.395L100.855 8.25203Z" fill="white"/>
<path id="Vector_9" d="M20.0527 12.1061C20.0527 12.3022 19.9716 12.4903 19.8271 12.629C19.6826 12.7676 19.4867 12.8456 19.2824 12.8456C19.0781 12.8456 18.8821 12.7676 18.7377 12.629C18.5932 12.4903 18.5121 12.3022 18.5121 12.1061V5.50003C18.5121 5.30392 18.5932 5.11584 18.7377 4.97717C18.8821 4.83849 19.0781 4.76059 19.2824 4.76059C19.4867 4.76059 19.6826 4.83849 19.8271 4.97717C19.9716 5.11584 20.0527 5.30392 20.0527 5.50003V12.1061ZM19.7853 16.6833C19.6835 16.7811 16.8188 19.0727 11.5669 19.0727C6.315 19.0727 3.46943 16.7933 3.34848 16.6955C3.27226 16.6338 3.20947 16.5583 3.16372 16.4733C3.11797 16.3882 3.09015 16.2953 3.08188 16.1999C3.0736 16.1046 3.08501 16.0086 3.11547 15.9174C3.14592 15.8263 3.19482 15.7418 3.25935 15.6688C3.3923 15.5212 3.58068 15.43 3.78341 15.4151C3.98614 15.4002 4.18677 15.4629 4.34156 15.5894C4.38613 15.62 6.94522 17.6122 11.5605 17.6122C16.1758 17.6122 18.754 15.6077 18.7795 15.5894C18.936 15.464 19.1373 15.4021 19.3405 15.417C19.5439 15.4318 19.7331 15.5222 19.868 15.6688C19.9979 15.8143 20.0627 16.0032 20.0485 16.1942C20.0342 16.3853 19.9419 16.5633 19.7916 16.6894L19.7853 16.6833ZM3.07475 5.50003C3.08625 5.3033 3.17843 5.11894 3.33112 4.98726C3.4838 4.85556 3.68459 4.78726 3.88958 4.79725C4.07962 4.80762 4.25894 4.88516 4.39294 5.01493C4.52696 5.1447 4.60617 5.31752 4.61529 5.50003V12.0939C4.61529 12.29 4.53414 12.4781 4.38969 12.6167C4.24523 12.7555 4.04931 12.8333 3.84502 12.8333C3.64073 12.8333 3.44481 12.7555 3.30035 12.6167C3.1559 12.4781 3.07475 12.29 3.07475 12.0939V5.50003ZM6.93886 4.03337C6.95037 3.83664 7.04255 3.65228 7.19523 3.5206C7.34792 3.38891 7.5487 3.3206 7.7537 3.3306C7.94374 3.34096 8.12305 3.4185 8.25706 3.54827C8.39107 3.67804 8.47028 3.85085 8.47941 4.03337V13.8111C8.47941 14.0072 8.39826 14.1953 8.25381 14.334C8.10935 14.4726 7.91343 14.5505 7.70914 14.5505C7.50485 14.5505 7.30893 14.4726 7.16447 14.334C7.02002 14.1953 6.93886 14.0072 6.93886 13.8111V4.03337ZM10.8221 3.66671C10.8221 3.4706 10.9032 3.28252 11.0477 3.14385C11.1922 3.00517 11.3881 2.92726 11.5923 2.92726C11.7966 2.92726 11.9926 3.00517 12.137 3.14385C12.2815 3.28252 12.3626 3.4706 12.3626 3.66671V14.3C12.3626 14.4961 12.2815 14.6841 12.137 14.8229C11.9926 14.9615 11.7966 15.0394 11.5923 15.0394C11.3881 15.0394 11.1922 14.9615 11.0477 14.8229C10.9032 14.6841 10.8221 14.4961 10.8221 14.3V3.66671ZM14.6417 4.03337C14.6417 3.83726 14.7228 3.64918 14.8673 3.51051C15.0117 3.37184 15.2076 3.29393 15.4119 3.29393C15.6162 3.29393 15.8121 3.37184 15.9566 3.51051C16.101 3.64918 16.1822 3.83726 16.1822 4.03337V13.8111C16.1822 14.0072 16.101 14.1953 15.9566 14.334C15.8121 14.4726 15.6162 14.5505 15.4119 14.5505C15.2076 14.5505 15.0117 14.4726 14.8673 14.334C14.7228 14.1953 14.6417 14.0072 14.6417 13.8111V4.03337ZM20.2627 6.10242e-05H2.89649C2.51809 -0.00235352 2.14291 0.0669062 1.79244 0.203874C1.44196 0.340843 1.12307 0.542831 0.854014 0.798271C0.584965 1.05371 0.371044 1.35758 0.2245 1.6925C0.0779552 2.02742 0.00166601 2.38679 0 2.75005V19.25C0.00166601 19.6132 0.0779552 19.9726 0.2245 20.3075C0.371044 20.6424 0.584965 20.9463 0.854014 21.2017C1.12307 21.4571 1.44196 21.6592 1.79244 21.7961C2.14291 21.9331 2.51809 22.0023 2.89649 21.9999H20.2627C20.6406 22.0023 21.0153 21.9333 21.3653 21.7967C21.7154 21.6602 22.034 21.4587 22.303 21.2038C22.5719 20.9491 22.786 20.6459 22.9329 20.3117C23.0799 19.9775 23.1568 19.6188 23.1592 19.2561V2.75005C23.1576 2.38731 23.0815 2.02844 22.9353 1.69392C22.7892 1.35941 22.5759 1.05581 22.3074 0.800442C22.0391 0.545082 21.721 0.342966 21.3712 0.205637C21.0215 0.0683073 20.647 -0.00154756 20.2691 6.10242e-05" fill="white"/>
</g>
</svg>
